<svg style="position: absolute; width: 0; height: 0;" xmlns="http://www.w3.org/2000/svg"><symbol viewBox="0 0 32 32" id="icon-call-subprocess"> <path d="m2.8376 0c-1.5465 0-2.8376 1.2911-2.8376 2.8376v26.324c0 1.547 1.2911 2.838 2.8376 2.838h26.324c1.547 0 2.838-1.291 2.838-2.838v-26.324c0-1.5469-1.291-2.838-2.838-2.838h-26.324zm0.11439 2.952h26.096v26.096h-26.096v-26.096z"/> <path d="m15.324 19.592v6.4865h1.3514v-6.4865h-1.3514zm-2.5676 2.5676v1.3514h6.4865v-1.3514h-6.4865zm-1.756-4.325v0.67567 8.6486 0.67568h0.67568 8.6486 0.67568v-0.67568-8.6486-0.67567h-0.67568-8.6486-0.67568zm1.3514 1.3514h7.2973v7.2973h-7.2973v-7.2973z"/> </symbol><symbol viewBox="0 0 32 32" id="icon-calltask-manual"> <path d="m2.8376 0c-1.5465 0-2.8376 1.2911-2.8376 2.8376v26.324c0 1.547 1.2911 2.838 2.8376 2.838h26.324c1.547 0 2.838-1.291 2.838-2.838v-26.324c0-1.5469-1.291-2.838-2.838-2.838h-26.324zm0.11439 2.952h26.096v26.096h-26.096v-26.096z"/> <path d="m11.399 8.8319c-0.54923 0-1.1803 0.20521-1.8703 0.47621-0.3447 0.1355-0.6823 0.2902-0.979 0.4647-0.2967 0.1746-0.5616 0.3382-0.7604 0.6602-0.82869 1.3417-1.1022 3.647-1.1022 5.895 0 1.124 0.085943 2.2214 0.26499 3.1491 0.17906 0.9277 0.40005 1.6903 0.9332 2.2082 0.40843 0.39672 1.0063 0.67311 1.6706 0.95626 0.66423 0.28315 1.2551 0.52613 1.8434 0.52613h4.4318 3.6637c1.0145 0 1.7704-0.90682 1.7704-1.924 0-0.29955-0.07286-0.58511-0.19201-0.84488a0.61452 0.61452 0 0 0 0.12289 -0.14593c0.51071-0.34768 0.84104-0.96499 0.84104-1.6322 0-0.32179-0.08327-0.62782-0.21891-0.90248 0.59476-0.3224 0.99083-0.98686 0.99083-1.7166 0-0.24333-0.04699-0.47904-0.12674-0.69895h0.67206 0.06145 0.12673c1.0145 0 1.7704-0.90683 1.7704-1.924s-0.7559-1.924-1.7704-1.924h-4.716c0.07977-0.21992 0.1267-0.45561 0.12673-0.69895 0-1.0172-0.75973-1.924-1.7743-1.924h-1.348-4.4318zm0 1.2289h4.4318 1.348c0.26706 0 0.54531 0.25988 0.54535 0.69511 0 0.43522-0.27832 0.69895-0.54535 0.69895v0.61446 0.61446h6.3635c0.26702 0 0.54146 0.25988 0.5415 0.6951 0 0.43522-0.27448 0.69511-0.5415 0.69511h-0.18818-5.7874-0.60677a0.61452 0.61452 0 0 0 -0.0077 0 0.61452 0.61452 0 0 0 -0.0538 0 0.61523 0.61523 0 0 0 0.0538 1.2289h0.61446 3.4679c0.26705 0 0.5453 0.26372 0.54534 0.69895 0 0.43522-0.27832 0.6951-0.54534 0.6951h-0.37252-3.0953-0.61446a0.61452 0.61452 0 1 0 0 1.2289 0.61452 0.61452 0 0 0 0.0077 0h0.60677 2.6998c0.26705 0 0.54149 0.25987 0.54149 0.6951 0 0.4164-0.25134 0.67345-0.50692 0.69511h-3.3411a0.61452 0.61452 0 1 0 -0.0077 1.2289v0.0038h0.61446 1.9279c0.26702 0 0.54149 0.25989 0.54149 0.6951 0 0.43524-0.27447 0.69511-0.54149 0.69511h-3.6637-4.4318c-0.05242 0-0.76337-0.17215-1.3595-0.42629-0.5964-0.254-1.2202-0.635-1.2983-0.711-0.1415-0.137-0.4254-0.739-0.5837-1.559s-0.242-1.854-0.242-2.915c0-2.1215 0.40099-4.4067 0.92169-5.2498-0.015153 0.02449 0.11815-0.12258 0.33411-0.24962s0.50643-0.26235 0.80648-0.38019c0.60011-0.2357 1.3294-0.38788 1.4209-0.38788z"/> </symbol><symbol viewBox="0 0 32 32" id="icon-calltask-rule"> <path d="m2.8376 0c-1.5465 0-2.8376 1.2911-2.8376 2.8376v26.324c0 1.547 1.2911 2.838 2.8376 2.838h26.324c1.547 0 2.838-1.291 2.838-2.838v-26.324c0-1.5469-1.291-2.838-2.838-2.838h-26.324zm0.11439 2.952h26.096v26.096h-26.096v-26.096z"/> <path d="m8.309 5.9872v0.72557 5.9496 1.4511 3.4827 1.4511 3.1925 1.4511 1.5962 0.72556h0.72557 13.931 0.72557v-0.72556-1.5962-1.4511-3.1925-1.4511-3.4827-1.4511-5.9496-0.72557h-0.72557-13.931-0.72557zm1.4511 1.4511h12.48v0.87068h-12.48v-0.87068zm0 2.3218h12.48v2.9022h-12.48v-2.9022zm0 4.3534h12.48v3.4827h-12.48v-3.4827zm0 4.9338h12.48v3.1925h-12.48v-3.1925zm0 4.6436h12.48v0.87067h-12.48v-0.87067z"/> </symbol><symbol viewBox="0 0 32 32" id="icon-calltask-script"> <path d="m2.8376 0c-1.5465 0-2.8376 1.2911-2.8376 2.8376v26.324c0 1.547 1.2911 2.838 2.8376 2.838h26.324c1.547 0 2.838-1.291 2.838-2.838v-26.324c0-1.5469-1.291-2.838-2.838-2.838h-26.324zm0.11439 2.952h26.096v26.096h-26.096v-26.096z"/> <path d="m10.855 11.926v1.1639h0.58197 7.5656 0.58197v-1.1639h-0.58197-7.5656-0.58197zm2.0369 10.475v1.1639h0.58197 7.5656 0.58197v-1.1639h-0.58197-7.5656-0.58197zm1.1639-3.7828v1.1639h0.58197 7.5656 0.58197v-1.1639h-0.58197-7.5656-0.58197zm-1.4549-3.4918v1.1639h0.58197 7.5656 0.58197v-1.1639h-0.58197-7.5656-0.58197zm-2.0369-6.6927v1.1639h0.58197 8.1476 0.58197v-1.1639h-0.58197-8.1476-0.58197zm0.7411-2.4734-0.16367 0.0909s-1.4783 0.79868-2.3324 2.4415c-0.8541 1.6429-0.9607 4.18 1.414 7.1382 1.1531 1.4364 1.6913 2.6097 1.8641 3.5464 0.17284 0.93665 0.008 1.6548-0.3501 2.3143-0.71518 1.3188-2.3142 2.3174-3.4827 3.2508l-1.6231 1.2958h2.0778 12.076 0.17277l0.15459-0.08184s1.9763-0.97297 3.2463-2.9144c0.63499-0.97071 1.0977-2.2129 0.99572-3.66-0.102-1.4472-0.75956-3.0585-2.2097-4.7831-2.0458-2.433-1.9103-4.1442-1.3913-5.3787 0.51903-1.2345 1.5095-1.9369 1.5095-1.9369l1.905-1.3231h-2.3233-11.348-0.19096zm0.4183 1.4549h9.4161c-0.26203 0.35285-0.52292 0.75471-0.72746 1.2412-0.69892 1.6624-0.68551 4.1389 1.6186 6.8791 1.3048 1.5517 1.7966 2.8588 1.8732 3.9465 0.0767 1.0876-0.25958 1.9935-0.76384 2.7644-0.9466 1.4471-2.3792 2.2373-2.5643 2.337h-9.7116c0.79889-0.63538 1.5993-1.3841 2.1506-2.4006 0.49054-0.9046 0.7357-2.0172 0.50467-3.269s-0.9093-2.6287-2.1642-4.192c-2.127-2.6497-1.8793-4.3549-1.2549-5.556 0.56409-1.085 1.4406-1.6392 1.6232-1.7504z"/> </symbol><symbol viewBox="0 0 32 32" id="icon-calltask-user"> <path d="m2.8376 0c-1.5465 0-2.8376 1.2911-2.8376 2.8376v26.324c0 1.547 1.2911 2.838 2.8376 2.838h26.324c1.547 0 2.838-1.291 2.838-2.838v-26.324c0-1.5469-1.291-2.838-2.838-2.838h-26.324zm0.11439 2.952h26.096v26.096h-26.096v-26.096z"/> <path d="m18.992 22.033v0.74557 2.1202 0.74557h1.4911v-0.74557-2.1202-0.74557h-1.4911zm-7.4557-0.0019v0.74557 2.1249 0.74557h1.4911v-0.74557-2.1249-0.74557h-1.4911zm4.4641-6.149c-2.513 0-4.7242 1.3449-6.3 3.1081-1.5759 1.7631-2.5676 3.9498-2.5676 5.9273v0.74557h0.74556 16.244 0.74556v-0.74557c0-1.9775-0.99168-4.1641-2.5675-5.9273-1.5759-1.7632-3.7871-3.1081-6.3-3.1081zm0 1.4911c1.9739 0 3.8264 1.0827 5.191 2.6095 1.1463 1.2826 1.8766 2.8547 2.0922 4.1892h-14.567c0.21564-1.3345 0.94594-2.9066 2.0923-4.1892 1.3645-1.5267 3.217-2.6095 5.191-2.6095zm0-11.036c-3.0382 0-5.5172 2.479-5.5172 5.5172s2.4789 5.5172 5.5172 5.5172c3.0382 0 5.5172-2.479 5.5172-5.5172s-2.479-5.5172-5.5172-5.5172zm0 1.4911c2.2324 0 4.0261 1.7937 4.0261 4.0261s-1.7937 4.0261-4.0261 4.0261-4.0261-1.7937-4.0261-4.0261 1.7937-4.0261 4.0261-4.0261z"/> </symbol><symbol viewBox="0 0 32 32" id="icon-calltask"> <path d="m2.8376 0c-1.5465 0-2.8376 1.2911-2.8376 2.8376v26.324c0 1.547 1.2911 2.838 2.8376 2.838h26.324c1.547 0 2.838-1.291 2.838-2.838v-26.324c0-1.5469-1.291-2.838-2.838-2.838h-26.324zm0.11439 2.952h26.096v26.096h-26.096v-26.096z"/> </symbol><symbol viewBox="0 0 32 32" id="icon-dataobject-datainput"> <path d="m16.419 14.815v1.3045 3.581h-6.8551-0.51158v0.51158 3.2741 0.51158h0.51158 6.8551v3.581 1.3013l0.88566-0.95601 5.3204-5.7297 0.32294-0.34532-0.32294-0.34851-5.3204-5.7297-0.88566-0.95601zm1.0232 2.6026 4.1118 4.4315-4.1118 4.4283v-2.7913-0.51157h-0.51158-6.8551v-2.2509h6.8551 0.51158v-0.51158-2.7945z"/> <path d="m3.0517 0v0.9375 30.125 0.9375h0.9375 24.016 0.9375v-0.9375-19.957a0.93759 0.93759 0 0 0 0 -0.21094v-0.19531l-0.07422-0.07422a0.93759 0.93759 0 0 0 -0.47656 -0.47656l-9.75-9.8711-0.277-0.2759h-0.39-13.985-0.9373zm1.875 1.875h12.133v9.125 0.9375h0.9375 9.0703v18.188h-22.141v-28.25zm14.008 1.3633 6.7422 6.8242h-6.7422v-6.8242z"/> </symbol><symbol viewBox="0 0 32 32" id="icon-dataobject-dataoutput"> <path d="m3.0517 0v0.9375 30.125 0.9375h0.9375 24.016 0.9375v-0.9375-19.957a0.93759 0.93759 0 0 0 0 -0.21094v-0.19531l-0.07422-0.07422a0.93759 0.93759 0 0 0 -0.47656 -0.47656l-9.75-9.8711-0.277-0.2759h-0.39-13.985-0.9373zm1.875 1.875h12.133v9.125 0.9375h0.9375 9.0703v18.188h-22.141v-28.25zm14.008 1.3633 6.7422 6.8242h-6.7422v-6.8242z"/> <path d="m16.419 14.815v4.8823h-7.3666v4.2972h7.3666v4.8855c2.1734-2.3474 4.3546-4.6876 6.5289-7.0341-2.1757-2.3442-4.3515-4.6883-6.5289-7.0309z"/> </symbol><symbol viewBox="0 0 32 32" id="icon-dataobject-datastore"> <path d="m31.044 4.5408a0.93762 0.92753 0 0 0 -0.9219 0.94289v22.351a0.93762 0.92753 0 1 0 1.875 0v-22.351a0.93762 0.92753 0 0 0 -0.953 -0.9432zm-30.114 0.0581a0.93762 0.93432 0 0 0 -0.9219 0.9498v22.546a0.93762 0.93432 0 1 0 1.875 0v-22.546a0.93762 0.93432 0 0 0 -0.95315 -0.9501zm0.47105 22.679c0.00937 0.01646 0.044512 0.09685 0.070775 0.29214l-1.4715 0.507c0.1081 0.80388 0.4502 1.1397 0.75622 1.407 0.30604 0.26731 0.66182 0.46926 1.0915 0.66176 0.85937 0.38502 2.0102 0.70541 3.4086 0.97775 2.7969 0.54464 6.5739 0.87638 10.732 0.87638 4.2389 0 8.0735-0.34448 10.881-0.9062 1.404-0.28086 2.5465-0.60859 3.39-1.0076 0.42176-0.19948 0.76882-0.40989 1.0692-0.7035 0.30034-0.2936 0.67055-0.7786 0.67055-1.6395h-1.505c0-0.43945 0.15834-0.51518 0.05215-0.41136-0.10619 0.10381-0.36115 0.28142-0.71152 0.44714-0.70075 0.33142-1.7943 0.65852-3.1516 0.93002-2.7146 0.54305-6.507 0.88235-10.695 0.88235-4.1087 0-7.8464-0.32531-10.554-0.85252-1.3536-0.26361-2.4517-0.58525-3.1814-0.91218-0.36484-0.16345-0.63989-0.33192-0.77859-0.45309-0.06935-0.06059-0.083925-0.11186-0.0745-0.09539zm14.595-27.278c-4.257 0-8.1078 0.48022-10.923 1.2716-1.4078 0.3956-2.5526 0.8671-3.3892 1.4231-0.4183 0.278-0.75829 0.5664-1.0448 0.96-0.28649 0.3936-0.61789 1.0174-0.61789 2.0884s0.3314 1.6948 0.6179 2.0884c0.2865 0.39355 0.6265 0.682 1.0448 0.95999 0.83661 0.55598 1.9814 1.0275 3.3891 1.4231 2.8153 0.79134 6.6664 1.2716 10.924 1.2716 4.2572 0 8.1083-0.48022 10.924-1.2716 1.4076-0.39567 2.5524-0.86716 3.3891-1.4231 0.4183-0.27799 0.75829-0.56643 1.0448-0.95999 0.2865-0.39355 0.61789-1.0174 0.61789-2.0884s-0.33139-1.6948-0.61789-2.0884c-0.288-0.3936-0.628-0.682-1.046-0.96-0.836-0.556-1.981-1.0275-3.389-1.4231-2.815-0.79137-6.666-1.2716-10.924-1.2716zm0 2.6092c3.561 0.1919 11.481 0.6624 13.794 3.1339-3.087 2.7248-10.644 2.8662-13.794 2.88-3.786-0.2279-11.187-0.34-13.794-2.88 3.423-2.7134 10.375-3.119 13.794-3.1339z"/> </symbol><symbol viewBox="0 0 32 32" id="icon-dataobject"> <path d="m3.0517 0v0.9375 30.125 0.9375h0.9375 24.016 0.9375v-0.9375-19.957a0.93759 0.93759 0 0 0 0 -0.21094v-0.19531l-0.07422-0.07422a0.93759 0.93759 0 0 0 -0.47656 -0.47656l-9.75-9.8711-0.277-0.2759h-0.39-13.985-0.9373zm1.875 1.875h12.133v9.125 0.9375h0.9375 9.0703v18.188h-22.141v-28.25zm14.008 1.3633 6.7422 6.8242h-6.7422v-6.8242z"/> </symbol><symbol viewBox="0 0 32 32" id="icon-endevent-cancel"> <path d="m16 0.00001125c-8.8138 0-16 7.1862-16 16 0 8.814 7.1862 16 16 16s16-7.1862 16-16-7.186-16-16-16zm0 3.7517c6.7873 0 12.248 5.461 12.248 12.248 0 6.7873-5.461 12.248-12.248 12.248-6.7873 0-12.248-5.461-12.248-12.248 0-6.7873 5.461-12.248 12.248-12.248z"/> <path d="m20.027 8.4503-0.42 0.4194-3.607 3.6073-3.607-3.6073l-0.41943-0.41943-0.41943 0.41943-2.6843 2.6843-0.41943 0.41943 0.41943 0.41943 3.6071 3.6071-3.6071 3.6071-0.41943 0.41943 0.41943 0.41943 2.6843 2.6843 0.41943 0.41943 0.41943-0.41943 3.607-3.606 3.6071 3.6071 0.41943 0.41943 0.41943-0.41943 2.6843-2.6843 0.41943-0.41943-0.41943-0.41943-3.6071-3.6071 3.6071-3.6071 0.41943-0.41943-0.41943-0.41943-2.6843-2.6843z"/> </symbol><symbol viewBox="0 0 32 32" id="icon-endevent-compensation"> <path d="m16 0.00001125c-8.8138 0-16 7.1862-16 16 0 8.814 7.1862 16 16 16s16-7.1862 16-16-7.186-16-16-16zm0 3.7517c6.7873 0 12.248 5.461 12.248 12.248 0 6.7873-5.461 12.248-12.248 12.248-6.7873 0-12.248-5.461-12.248-12.248 0-6.7873 5.461-12.248 12.248-12.248z"/> <path d="m15.444 10.504c-2.844 1.8328-5.6904 3.6618-8.5324 5.4976 2.8463 1.8279 5.688 3.6632 8.5324 5.494v-5.3118c3.0127 1.9454 5.5256 3.5544 8.2446 5.3118v-10.992c-2.945 1.9049-5.6519 3.6365-8.2446 5.3118v-5.3118z"/> </symbol><symbol viewBox="0 0 32 32" id="icon-endevent-error"> <path d="m16 0.00001125c-8.8138 0-16 7.1862-16 16 0 8.814 7.1862 16 16 16s16-7.1862 16-16-7.186-16-16-16zm0 3.7517c6.7873 0 12.248 5.461 12.248 12.248 0 6.7873-5.461 12.248-12.248 12.248-6.7873 0-12.248-5.461-12.248-12.248 0-6.7873 5.461-12.248 12.248-12.248z"/> <path d="m22.778 8.583c-0.19517 0.00933-0.38282 0.11933-0.4864 0.28501l-4.382 7.011-4.336-6.0686c-0.131-0.183-0.37-0.2822-0.592-0.2461s-0.417 0.2059-0.483 0.4209l-3.8915 12.647c-0.083001 0.27279 0.05653 0.59561 0.31212 0.72204 0.25557 0.12644 0.59684 0.04148 0.76331-0.19003l4.3701-6.1181 4.3701 6.1181c0.13214 0.18484 0.37413 0.28421 0.59804 0.24558s0.41862-0.21335 0.48119-0.43178l3.892-13.62c0.053-0.1851 0.011-0.3949-0.109-0.5459-0.119-0.1509-0.314-0.239-0.507-0.2291z"/> </symbol><symbol viewBox="0 0 32 32" id="icon-endevent-escalation"> <path d="m16 0.00001125c-8.8138 0-16 7.1862-16 16 0 8.814 7.1862 16 16 16s16-7.1862 16-16-7.186-16-16-16zm0 3.7517c6.7873 0 12.248 5.461 12.248 12.248 0 6.7873-5.461 12.248-12.248 12.248-6.7873 0-12.248-5.461-12.248-12.248 0-6.7873 5.461-12.248 12.248-12.248z"/> <path d="m16 6.4181c-2.656 6.2039-4.857 11.343-7.2633 16.949 2.423-1.6107 4.8426-3.2266 7.2633-4.8409 2.4204 1.6146 4.8407 3.2295 7.2632 4.8409-2.492-5.819-5.116-11.925-7.263-16.949z"/> </symbol><symbol viewBox="0 0 32 32" id="icon-endevent-message"> <path d="m16 0.00000875c-8.8138 0-16 7.1862-16 16 0 8.814 7.1862 16 16 16s16-7.1862 16-16-7.186-16-16-16zm0 3.7517c6.7873 0 12.248 5.461 12.248 12.248 0 6.7873-5.461 12.248-12.248 12.248-6.7873 0-12.248-5.461-12.248-12.248-0.0003-6.7873 5.4607-12.248 12.248-12.248z"/> <path d="m7.3467 12.05v9.6467h17.307v-9.7185l-8.6892 6.7742zm0.047895-1.7474h17.091l-8.5456 6.6785z"/> </symbol><symbol viewBox="0 0 32 32" id="icon-endevent-multiple"> <path d="m16 0.00000875c-8.8138 0-16 7.1862-16 16 0 8.814 7.1862 16 16 16s16-7.1862 16-16-7.186-16-16-16zm0 3.7517c6.7873 0 12.248 5.461 12.248 12.248 0 6.7873-5.461 12.248-12.248 12.248-6.7873 0-12.248-5.461-12.248-12.248-0.0003-6.7873 5.4607-12.248 12.248-12.248z"/> <path d="m16 6.395-0.38797 0.28066-8.4526 6.1042-0.38384 0.27653 0.14032 0.45812 3.1698 10 0.14858 0.45813h0.48289 10.566 0.48288l0.14858-0.45813 3.1698-10 0.14032-0.45812-0.38383-0.27653-8.4526-6.1042z"/> </symbol><symbol viewBox="0 0 32 32" id="icon-endevent-normal"> <path d="m16 0.00001125c-8.8138 0-16 7.1862-16 16 0 8.814 7.1862 16 16 16s16-7.1862 16-16-7.186-16-16-16zm0 3.7517c6.7873 0 12.248 5.461 12.248 12.248 0 6.7873-5.461 12.248-12.248 12.248-6.7873 0-12.248-5.461-12.248-12.248 0-6.7873 5.461-12.248 12.248-12.248z"/> </symbol><symbol viewBox="0 0 32 32" id="icon-endevent-signal"> <path d="m16 0.00001125c-8.8138 0-16 7.1862-16 16 0 8.814 7.1862 16 16 16s16-7.1862 16-16-7.186-16-16-16zm0 3.7517c6.7873 0 12.248 5.461 12.248 12.248 0 6.7873-5.461 12.248-12.248 12.248-6.7873 0-12.248-5.461-12.248-12.248 0-6.7873 5.461-12.248 12.248-12.248z"/> <path d="m16 6.178c-3.0366 5.219-6.0997 10.423-9.1327 15.644h18.265c-3.0363-5.2193-6.0944-10.426-9.1327-15.644z"/> </symbol><symbol viewBox="0 0 32 32" id="icon-endevent-termination"> <path d="m16 0.00001125c-8.8138 0-16 7.1862-16 16 0 8.814 7.1862 16 16 16s16-7.1862 16-16-7.186-16-16-16zm0 3.7517c6.7873 0 12.248 5.461 12.248 12.248 0 6.7873-5.461 12.248-12.248 12.248-6.7873 0-12.248-5.461-12.248-12.248 0-6.7873 5.461-12.248 12.248-12.248z"/> <path d="m16 7.633c-4.6098 0-8.367 3.7572-8.367 8.367s3.7572 8.367 8.367 8.367 8.367-3.7572 8.367-8.367-3.7572-8.367-8.367-8.367z"/> </symbol><symbol viewBox="0 0 32 32" id="icon-flow-association"> <path d="m0 17.257h2.5v-2.5137h-2.5zm5 0h2.5v-2.5137h-2.5zm5 0h2.5v-2.5137h-2.5zm5 0h2.5v-2.5137h-2.5zm5 0h2.5v-2.5137h-2.5zm5 0h2.5v-2.5137h-2.5zm5 0h2v-2.5137h-2z"/> </symbol><symbol viewBox="0 0 32 32" id="icon-flow-conditional"> <path d="m5.1989 10.883-0.2103 0.207-4.7783 4.7032-0.21031 0.207 0.21031 0.207 4.7783 4.7032 0.2103 0.207 0.21031-0.207 4.7783-4.7032 0.21031-0.207-0.21031-0.207-4.7783-4.7032zm0 2.3011 2.8611 2.8162-2.8611 2.8162-2.8611-2.8162zm18.172-2.0941v3.6827h-14.338v2.4551h14.338v3.6827l8.629-4.911z"/> </symbol><symbol viewBox="0 0 32 32" id="icon-flow-default"> <path d="m4.7549 9.9939-1.7685 1.7645 0.88618 0.88618 8.4792 8.4792 0.88228 0.88227 1.7685-1.7645-0.88618-0.88618-8.4792-8.4792-0.88227-0.88227zm18.602 1.0095v3.7477h-23.357v2.4985h23.357v3.7477l8.643-4.998-8.643-4.997z"/> </symbol><symbol viewBox="0 0 32 32" id="icon-flow-directionalassociation"> <path d="m21.057 9.9223-1.2081 2.1785 7.0189 3.9011-7.0189 3.8972 1.2081 2.1785 8.9792-4.9884l1.964-1.088-1.964-1.091-8.979-4.9887zm-21.057 7.3267h2.4942v-2.4942h-2.4942zm4.9884 0h2.4942v-2.4942h-2.4942zm4.9884 0h2.4942v-2.4942h-2.4942zm4.9884 0h2.4942v-2.4942h-2.4942zm4.9884 0h2.4942v-2.4942h-2.4942z"/> </symbol><symbol viewBox="0 0 32 32" id="icon-flow-message"> <path d="m4.6223 11.378c-2.5417 0-4.6223 2.08-4.6223 4.622 0 2.5417 2.0806 4.6223 4.6223 4.6223s4.6223-2.0806 4.6223-4.6223-2.0806-4.6223-4.6223-4.6223zm0 1.9176c1.5049 0 2.7047 1.1998 2.7047 2.7047s-1.1998 2.7047-2.7047 2.7047-2.7047-1.1998-2.7047-2.7047 1.1998-2.7047 2.7047-2.7047zm18.529-2.4112v3.8369h-1.6467v2.5579h1.6467v3.8369l8.849-5.117-8.849-5.116zm1.8025 2.8337l3.969 2.281-3.9688 2.3301v-4.6122zm-16.503 1.0032v2.5579h2.8217v-2.5579h-2.8217zm4.868 0v2.5579h2.0463v-2.5579h-2.0463zm4.0927 0v2.5579h2.0463v-2.5579h-2.0463z"/> </symbol><symbol viewBox="0 0 32 32" id="icon-flow-sequence"> <g transform="matrix(.12492 0 0 .12492 3.3203e-7 -99.475)"> <path d="m186.97 88v30h-186.97v20h186.97v30l69.188-40-69.188-40z" transform="translate(0 796.36)"/> </g> </symbol><symbol viewBox="0 0 32 32" id="icon-gateway-complex"> <path d="m16 0.0000075-0.647 0.64723-14.706 14.706-0.647 0.647 0.64722 0.647 14.706 14.706 0.647 0.647 0.647-0.647 14.706-14.706 0.647-0.647-0.647-0.647-14.706-14.706-0.647-0.64699zm0 2.5889l13.411 13.411-13.411 13.411-13.411-13.411 13.411-13.411z"/> <path d="m8.3079 14.98-0.00308 2.0406h15.387l0.0031-2.0406h-15.387zm6.6718-6.6718v15.387l2.0406-0.003v-15.387l-2.0406 0.00308zm-3.698 1.5312-1.4447 1.4406 10.881 10.881 1.445-1.441-10.881-10.881zm9.4354 0l-10.88 10.881 1.445 1.441 10.881-10.881-1.445-1.4406z"/> </symbol><symbol viewBox="0 0 32 32" id="icon-gateway-eventbased"> <path d="m16 12.305-0.15348 0.11103-3.3438 2.4148-0.15184 0.10939 0.05551 0.18124 1.2539 3.9561 0.05878 0.18122h0.19103 4.1797 0.19103l0.05878-0.18122 1.2539-3.9561 0.05551-0.18124-0.154-0.11-3.344-2.414-0.153-0.111zm0 0.64492 3.0368 2.1927-1.1396 3.5936h-3.7944l-1.14-3.595 3.037-2.193zm0-2.6316c-3.1335 0-5.6821 2.5486-5.6821 5.6821s2.5486 5.6821 5.6821 5.6821 5.6821-2.5486 5.6821-5.6821-2.5486-5.6821-5.6821-5.6821zm0 0.87237c2.661 0 4.8097 2.1487 4.8097 4.8097s-2.1487 4.8097-4.8097 4.8097-4.8097-2.1487-4.8097-4.8097 2.1487-4.8097 4.8097-4.8097zm0-2.622c-4.0992 0-7.4317 3.3325-7.4317 7.4317s3.3325 7.4317 7.4317 7.4317 7.4317-3.3325 7.4317-7.4317-3.3325-7.4317-7.4317-7.4317zm0 0.87432c3.6267 0 6.5574 2.9307 6.5574 6.5574s-2.9307 6.5574-6.5574 6.5574-6.5574-2.9307-6.5574-6.5574 2.9307-6.5574 6.5574-6.5574z"/> <path d="m16 0.0000075-0.647 0.64723-14.706 14.706-0.647 0.647 0.64723 0.647 14.706 14.706 0.647 0.647 0.647-0.647 14.706-14.706 0.647-0.647-0.647-0.647-14.706-14.706-0.647-0.64699zm0 2.5889l13.411 13.411-13.411 13.411-13.411-13.411 13.411-13.411z"/> </symbol><symbol viewBox="0 0 32 32" id="icon-gateway-exclusive"> <path d="m11.251 9.7984-1.4547 1.4506 10.953 10.953 1.455-1.451-10.953-10.953zm9.4981 0l-10.953 10.953 1.455 1.451 10.953-10.953-1.455-1.4506z"/> <path d="m16 0.0000075-0.647 0.64723-14.706 14.706-0.647 0.647 0.64722 0.647 14.706 14.706 0.647 0.647 0.647-0.647 14.706-14.706 0.647-0.647-0.647-0.647-14.706-14.706-0.647-0.64699zm0 2.5889l13.411 13.411-13.411 13.411-13.411-13.411 13.411-13.411z"/> </symbol><symbol viewBox="0 0 32 32" id="icon-gateway-exclusivestart"> <path d="m16 11.536-0.18762 0.13573-4.0878 2.9521-0.18564 0.13373 0.06787 0.22156 1.5329 4.8363 0.07186 0.22155h0.23354 5.1098 0.23354l0.07185-0.22155 1.5329-4.8363 0.06786-0.22156-0.18563-0.13373-4.0878-2.9521-0.188-0.136zm0 0.78842 3.7126 2.6806-1.3932 4.3932h-4.6387l-1.394-4.393 3.713-2.681zm0-3.6976c-4.0668 0-7.3734 3.3066-7.3734 7.3734s3.3066 7.3734 7.3734 7.3734 7.3734-3.3066 7.3734-7.3734-3.3066-7.3734-7.3734-7.3734zm0 1.0664c3.4892 0 6.307 2.8178 6.307 6.307s-2.8178 6.307-6.307 6.307-6.307-2.8178-6.307-6.307 2.8178-6.307 6.307-6.307z"/> <path d="m16 0.0000075-0.647 0.64723-14.706 14.706-0.647 0.647 0.64722 0.647 14.706 14.706 0.647 0.647 0.647-0.647 14.706-14.706 0.647-0.647-0.647-0.647-14.706-14.706-0.647-0.64699zm0 2.5889l13.411 13.411-13.411 13.411-13.411-13.411 13.411-13.411z"/> </symbol><symbol viewBox="0 0 32 32" id="icon-gateway-inclusive"> <path d="m16 8.0437c-4.3843 0-7.9563 3.572-7.9563 7.9563s3.572 7.9563 7.9563 7.9563 7.9563-3.572 7.9563-7.9563-3.572-7.9563-7.9563-7.9563zm0 1.8753c3.3683 0 6.081 2.7127 6.081 6.081s-2.7127 6.081-6.081 6.081-6.081-2.7127-6.081-6.081 2.7127-6.081 6.081-6.081z"/> <path d="m16 0-0.647 0.64723-14.706 14.706-0.647 0.647 0.64722 0.647 14.706 14.706 0.647 0.647 0.647-0.647 14.706-14.706 0.647-0.647-0.647-0.647-14.706-14.706-0.647-0.647zm0 2.5889 13.411 13.411-13.411 13.411-13.411-13.411 13.411-13.411z"/> </symbol><symbol viewBox="0 0 32 32" id="icon-gateway-parallel"> <path d="m13.52 7.8525v0.5904 5.0775h-5.0775-0.5904v0.5904 3.7786 0.5904h0.5904 5.0775v5.0774 0.5904h0.5904 3.7786 0.5904v-0.5904-5.0774h5.0775 0.5904v-0.5904-3.7786-0.5904h-0.5904-5.0775v-5.0775-0.5904h-0.5904-3.7786z"/> <path d="m16 0.0000075-0.647 0.64723-14.706 14.706-0.647 0.647 0.64722 0.647 14.706 14.706 0.647 0.647 0.647-0.647 14.706-14.706 0.647-0.647-0.647-0.647-14.706-14.706-0.647-0.64699zm0 2.5889l13.411 13.411-13.411 13.411-13.411-13.411 13.411-13.411z"/> </symbol><symbol viewBox="0 0 32 32" id="icon-gateway-parallelstart"> <path d="m16 0.0000075-0.647 0.64723-14.706 14.706-0.647 0.647 0.64722 0.647 14.706 14.706 0.647 0.647 0.647-0.647 14.706-14.706 0.647-0.647-0.647-0.647-14.706-14.706-0.647-0.64699zm0 2.5889l13.411 13.411-13.411 13.411-13.411-13.411 13.411-13.411z"/> <path d="m14.801 11.522v0.34157 2.9375h-2.9375-0.34157v0.34157 1.7147 0.34158h0.34157 2.9375v2.9375 0.34158h0.34157 1.7147 0.34157v-0.34158-2.9375h2.9375 0.34157v-0.34158-1.7147-0.34157h-0.34157-2.9375v-2.9375-0.34157h-0.34157-1.7147zm1.199-3.6531c-4.4837 0-8.1311 3.6474-8.1311 8.1311s3.6474 8.1311 8.1311 8.1311 8.1311-3.6474 8.1311-8.1311-3.6474-8.1311-8.1311-8.1311zm0 1.1784c3.8469 0 6.9527 3.1059 6.9527 6.9527 0 3.8469-3.1059 6.9527-6.9527 6.9527-3.8469 0-6.9527-3.1059-6.9527-6.9527 0-3.8469 3.1059-6.9527 6.9527-6.9527z"/> </symbol><symbol viewBox="0 0 32 32" id="icon-gateway"> <path d="m16 0.0000075-0.647 0.64723-14.706 14.706-0.647 0.647 0.64722 0.647 14.706 14.706 0.647 0.647 0.647-0.647 14.706-14.706 0.647-0.647-0.647-0.647-14.706-14.706-0.647-0.64699zm0 2.5889l13.411 13.411-13.411 13.411-13.411-13.411 13.411-13.411z"/> </symbol><symbol viewBox="0 0 32 32" id="icon-group"> <path d="m3.195 1.8751h7.5v-1.875h-7.5zm11.25 0h1.875v-1.875h-1.875zm5.625 0h7.5v-1.875h-7.5zm-19.664-0.2461l-0.023437 0.039062-0.019537 0.039062-0.09375 0.19922-0.019525 0.042969-0.015625 0.042969-0.078125 0.20703-0.015625 0.042969-0.01175 0.046875-0.054687 0.21484-0.01175 0.046875-0.00775 0.042969-0.03125 0.22656-0.00775 0.046875-0.003875 0.046875-0.01175 0.23047v0.023437 0.023437 0.58594h1.875v-0.53906l0.01175-0.20312 0.015625-0.11719 0.03125-0.12109 0.042975-0.10547 0.054687-0.125 0.0664-0.10937-1.6016-0.97265zm29.578 0.97265 0.03906 0.085937 0.04296 0.10937 0.03125 0.12109 0.01563 0.11719 0.01175 0.20312v0.79687h1.875v-0.84375-0.023437-0.023437l-0.01175-0.23047-0.0039-0.046875-0.0078-0.046875-0.03125-0.22656-0.0077-0.042969-0.01175-0.046875-0.05469-0.21484-0.01175-0.046875-0.01563-0.042969-0.07813-0.20703-0.01563-0.042969-0.01953-0.042969-0.05469-0.11719zm-29.984 12.425h1.875v-7.5h-1.875zm30.125 0.258h1.875v-7.5h-1.875zm-30.125 5.3672h1.875v-1.875h-1.875zm30.125 0.258h1.875v-1.875h-1.875zm-30.125 7.8945v0.02344 0.02344l0.01175 0.23046 0.003875 0.04687 0.00775 0.04687 0.03125 0.22657 0.00775 0.04687 0.01175 0.04296 0.054687 0.21875 0.01175 0.04296 0.015625 0.04297 0.078125 0.20702 0.015625 0.04687 0.019525 0.03908 0.09375 0.19921 0.019537 0.03906 0.023437 0.03906 0.11327 0.1875 0.023437 0.03906 0.02735 0.03515 0.1289 0.17188 0.02735 0.03908 0.03125 0.03125 0.14452 0.16015 0.03125 0.03515 0.03125 0.02735 0.16016 0.14844 0.03515 0.02734 0.035162 0.02735 0.17577 0.13281 0.035162 0.02344 0.039062 0.02344 0.18359 0.11329 0.039062 0.02342 0.042975 0.01954 0.19531 0.09766 0.042962 0.01953 0.042975 0.01563 0.20702 0.07422 0.042975 0.01562 0.046875 0.01175 0.21484 0.05469 0.046875 0.01175 0.046875 0.0078 0.01175 0.0039 0.16015-1.0469 0.19922-0.79296-0.16797-0.04298-0.1289-0.04687-0.10937-0.05077-0.11329-0.07032-0.0625-0.04296-0.019525-0.01563-0.10937-0.09766-0.078125-0.08984-0.074225-0.10156-0.074212-0.1211-0.054687-0.12109-0.042975-0.10938-0.03125-0.11719-0.015625-0.11719-0.01175-0.20312v-4.3555h-1.875zm30.125-0.046l-0.01175 0.20312-0.01563 0.11719-0.03125 0.11719-0.04297 0.10938-0.05469 0.12109-0.07421 0.1211-0.07423 0.10156-0.07813 0.08984-0.10938 0.09766-0.01952 0.01563-0.0625 0.04296-0.11329 0.07032-0.10938 0.05077-0.1289 0.04687-0.14062 0.03515-0.10548 0.01563h-0.0039l-0.05077 0.0079 0.07813 0.5039 0.0664 1.3633 0.04298-0.0039h0.04687l0.04687-0.0077 0.22265-0.03516 0.04687-0.0078 0.04687-0.01175 0.21485-0.05469 0.04687-0.01175 0.04296-0.01562 0.20704-0.07422 0.04296-0.01563 0.04297-0.01953 0.19531-0.09766 0.04296-0.01954 0.03906-0.02342 0.1836-0.11329 0.03906-0.02344 0.03515-0.02344 0.17579-0.13281 0.03515-0.02735 0.03516-0.02734 0.16015-0.14844 0.03125-0.02735 0.03125-0.03515 0.14454-0.16015 0.03125-0.03125 0.02734-0.03908 0.12891-0.17188 0.02734-0.03515 0.02344-0.03906 0.11329-0.1875 0.02344-0.03906 0.01953-0.03906 0.09375-0.19921 0.01954-0.03908 0.01563-0.04687 0.07812-0.20702 0.01563-0.04298 0.01175-0.04296 0.05469-0.21875 0.01175-0.04296 0.0077-0.04687 0.03125-0.22657 0.0078-0.04687 0.0039-0.04687 0.01175-0.23046v-0.02344-0.02344-4.1445h-1.875zm-23.629 3.242h1.875v-1.875h-1.875zm5.625 0h7.5v-1.875h-7.5zm11.25 0h1.875v-1.875h-1.875z"/> </symbol><symbol viewBox="0 0 32 32" id="icon-interevent-cancel"> <path d="m16.015 2.3612c-7.5184 0-13.624 6.1053-13.624 13.624 0 7.5184 6.1053 13.624 13.624 13.624 7.5184 0 13.624-6.1053 13.624-13.624 0-7.5184-6.1053-13.624-13.624-13.624zm0 1.2443c6.8427 0 12.379 5.5367 12.379 12.379 0 6.8427-5.5367 12.379-12.379 12.379-6.8427 0-12.379-5.5367-12.379-12.379 0-6.8427 5.5367-12.379 12.379-12.379zm0-3.6206c-8.8302 0-16 7.1698-16 16s7.1698 16 16 16 16-7.1698 16-16-7.1698-16-16-16zm0 1.2464c8.1546 0 14.754 6.5991 14.754 14.754 0 8.1546-6.5991 14.754-14.754 14.754-8.1546 0-14.754-6.5991-14.754-14.754 0-8.1546 6.5991-14.754 14.754-14.754z"/> <path d="m20.554 7.4608-0.474 0.4744-4.08 4.0798-4.08-4.0798-0.474-0.4744-0.475 0.4744-3.0358 3.0358-0.4744 0.475 0.4744 0.474 4.0798 4.08-4.0798 4.08-0.4744 0.474 0.4744 0.475 3.0358 3.036 0.475 0.474 0.474-0.474 4.08-4.08l4.0798 4.0798 0.4744 0.4744 0.4744-0.4744 3.0361-3.0361 0.4744-0.4744-0.474-0.474-4.08-4.08 4.08-4.08 0.474-0.474-0.474-0.475-3.036-3.0358-0.475-0.4744zm0 1.8976 2.0873 2.0874-4.0798 4.0798l-0.474 0.474 0.475 0.474 4.08 4.08-2.088 2.088-4.08-4.08-0.474-0.475-0.474 0.475-4.08 4.08-2.0876-2.088 4.0796-4.08 0.475-0.474-0.475-0.474-4.0796-4.08 2.0876-2.0876 4.08 4.0796 0.474 0.475 0.474-0.475 4.08-4.0796z"/> </symbol><symbol viewBox="0 0 32 32" id="icon-interevent-compensation-catch"> <path d="m16.015 2.3612c-7.5184 0-13.624 6.1053-13.624 13.624 0 7.5184 6.1053 13.624 13.624 13.624 7.5184 0 13.624-6.1053 13.624-13.624 0-7.5184-6.1053-13.624-13.624-13.624zm0 1.2443c6.8427 0 12.379 5.5367 12.379 12.379 0 6.8427-5.5367 12.379-12.379 12.379-6.8427 0-12.379-5.5367-12.379-12.379 0-6.8427 5.5367-12.379 12.379-12.379zm0-3.6206c-8.8302 0-16 7.1698-16 16s7.1698 16 16 16 16-7.1698 16-16-7.1698-16-16-16zm0 1.2464c8.1546 0 14.754 6.5991 14.754 14.754 0 8.1546-6.5991 14.754-14.754 14.754-8.1546 0-14.754-6.5991-14.754-14.754 0-8.1546 6.5991-14.754 14.754-14.754z"/> <path d="m15.119 9.5887-1.0498 0.67577-8.0157 5.1639-0.88827 0.57376 0.88827 0.56952 8.0157 5.1639 1.0498 0.67577v-1.2453-4.9514l0.55252 0.35701 8.02 5.1639 1.0455 0.67577v-1.2453-10.332-1.2453l-1.0455 0.67577-8.02 5.1639-0.55252 0.35701v-4.9514-1.2453zm-1.36 2.4906v7.8415l-6.0819-3.9186 6.0819-3.9229zm9.618 0.0042v7.833l-6.0777-3.9144 6.0777-3.9186z"/> </symbol><symbol viewBox="0 0 32 32" id="icon-interevent-compensation-throw"> <path d="m16.015 2.3612c-7.5184 0-13.624 6.1053-13.624 13.624 0 7.5184 6.1053 13.624 13.624 13.624 7.5184 0 13.624-6.1053 13.624-13.624 0-7.5184-6.1053-13.624-13.624-13.624zm0 1.2443c6.8427 0 12.379 5.5367 12.379 12.379 0 6.8427-5.5367 12.379-12.379 12.379-6.8427 0-12.379-5.5367-12.379-12.379 0-6.8427 5.5367-12.379 12.379-12.379zm0-3.6206c-8.8302 0-16 7.1698-16 16s7.1698 16 16 16 16-7.1698 16-16-7.1698-16-16-16zm0 1.2464c8.1546 0 14.754 6.5991 14.754 14.754 0 8.1546-6.5991 14.754-14.754 14.754-8.1546 0-14.754-6.5991-14.754-14.754 0-8.1546 6.5991-14.754 14.754-14.754z"/> <path d="m15.119 9.5882c-3.318 2.1378-6.6385 4.2718-9.954 6.4138 3.3205 2.1325 6.6355 4.2734 9.9539 6.4092v-6.1967c3.5145 2.2695 6.4462 4.1466 9.6181 6.1967v-12.823c-3.4356 2.2223-6.5935 4.2424-9.6181 6.1967v-6.1967z"/> </symbol><symbol viewBox="0 0 32 32" id="icon-interevent-error"> <path d="m16.015 2.3612c-7.5184 0-13.624 6.1053-13.624 13.624 0 7.5184 6.1053 13.624 13.624 13.624 7.5184 0 13.624-6.1053 13.624-13.624 0-7.5184-6.1053-13.624-13.624-13.624zm0 1.2443c6.8427 0 12.379 5.5367 12.379 12.379 0 6.8427-5.5367 12.379-12.379 12.379-6.8427 0-12.379-5.5367-12.379-12.379 0-6.8427 5.5367-12.379 12.379-12.379zm0-3.6206c-8.8302 0-16 7.1698-16 16s7.1698 16 16 16 16-7.1698 16-16-7.1698-16-16-16zm0 1.2464c8.1546 0 14.754 6.5991 14.754 14.754 0 8.1546-6.5991 14.754-14.754 14.754-8.1546 0-14.754-6.5991-14.754-14.754 0-8.1546 6.5991-14.754 14.754-14.754z"/> <path d="m23.174 8.1506a0.6435 0.6435 0 0 0 -0.515 0.3016l-4.637 7.4198-4.588-6.4225a0.6435 0.6435 0 0 0 -1.1381 0.18499l-4.1184 13.384a0.6435 0.6435 0 0 0 1.1381 0.56301l4.6247-6.4746 4.6247 6.4746a0.6435 0.6435 0 0 0 1.1421 -0.19705l4.118-14.413a0.6435 0.6435 0 0 0 -0.651 -0.8204zm-10.03 3.1046 4.3915 6.1489a0.6435 0.6435 0 0 0 1.0697 -0.03619l2.7266-4.3633-2.4974 8.7427-4.3714-6.1207a0.6435 0.6435 0 0 0 -1.0456 0l-2.8432 3.9813 2.5697-8.3526z"/> </symbol><symbol viewBox="0 0 32 32" id="icon-interevent-escalation-catch"> <path d="m16.015 2.3612c-7.5184 0-13.624 6.1053-13.624 13.624 0 7.5184 6.1053 13.624 13.624 13.624 7.5184 0 13.624-6.1053 13.624-13.624 0-7.5184-6.1053-13.624-13.624-13.624zm0 1.2443c6.8427 0 12.379 5.5367 12.379 12.379 0 6.8427-5.5367 12.379-12.379 12.379-6.8427 0-12.379-5.5367-12.379-12.379 0-6.8427 5.5367-12.379 12.379-12.379zm0-3.6206c-8.8302 0-16 7.1698-16 16s7.1698 16 16 16 16-7.1698 16-16-7.1698-16-16-16zm0 1.2464c8.1546 0 14.754 6.5991 14.754 14.754 0 8.1546-6.5991 14.754-14.754 14.754-8.1546 0-14.754-6.5991-14.754-14.754 0-8.1546 6.5991-14.754 14.754-14.754z"/> <path d="m16 5.8403-0.5941 1.3903-6.2076 14.485-0.85679 1.9965 1.8106-1.2043 5.848-3.9 5.848 3.9 1.8106 1.2043-0.85678-1.9965-6.2076-14.485-0.59409-1.3903zm0 3.2857 4.7527 11.094-4.3931-2.93-0.35968-0.23844-0.35969 0.23844-4.393 2.93 4.7527-11.094z"/> </symbol><symbol viewBox="0 0 32 32" id="icon-interevent-escalation-throw"> <path d="m16.015 2.3612c-7.5184 0-13.624 6.1053-13.624 13.624 0 7.5184 6.1053 13.624 13.624 13.624 7.5184 0 13.624-6.1053 13.624-13.624 0-7.5184-6.1053-13.624-13.624-13.624zm0 1.2443c6.8427 0 12.379 5.5367 12.379 12.379 0 6.8427-5.5367 12.379-12.379 12.379-6.8427 0-12.379-5.5367-12.379-12.379 0-6.8427 5.5367-12.379 12.379-12.379zm0-3.6206c-8.8302 0-16 7.1698-16 16s7.1698 16 16 16 16-7.1698 16-16-7.1698-16-16-16zm0 1.2464c8.1546 0 14.754 6.5991 14.754 14.754 0 8.1546-6.5991 14.754-14.754 14.754-8.1546 0-14.754-6.5991-14.754-14.754 0-8.1546 6.5991-14.754 14.754-14.754z"/> <path d="m16 5.8408c-2.801 6.5412-5.122 11.96-7.659 17.871 2.555-1.698 5.106-3.402 7.659-5.104 2.552 1.702 5.104 3.405 7.658 5.104-2.628-6.136-5.394-12.574-7.658-17.871z"/> </symbol><symbol viewBox="0 0 32 32" id="icon-interevent-link-catch"> <path d="m16.015 2.3612c-7.5184 0-13.624 6.1053-13.624 13.624 0 7.5184 6.1053 13.624 13.624 13.624 7.5184 0 13.624-6.1053 13.624-13.624 0-7.5184-6.1053-13.624-13.624-13.624zm0 1.2443c6.8427 0 12.379 5.5367 12.379 12.379 0 6.8427-5.5367 12.379-12.379 12.379-6.8427 0-12.379-5.5367-12.379-12.379 0-6.8427 5.5367-12.379 12.379-12.379zm0-3.6206c-8.8302 0-16 7.1698-16 16s7.1698 16 16 16 16-7.1698 16-16-7.1698-16-16-16zm0 1.2464c8.1546 0 14.754 6.5991 14.754 14.754 0 8.1546-6.5991 14.754-14.754 14.754-8.1546 0-14.754-6.5991-14.754-14.754 0-8.1546 6.5991-14.754 14.754-14.754z"/> <path d="m16.539 6.9437v1.6799 4.6115h-8.8278-0.65879v0.65879 4.2162 0.65879h0.65879 8.8278v4.6115 1.6758l1.1405-1.2311 6.8514-7.3784 0.41587-0.44468-0.41587-0.4488-6.8514-7.3784-1.1405-1.2311zm1.3176 3.3516 5.295 5.7068-5.295 5.7026v-3.5945-0.65879h-0.65879-8.8278v-2.8987h8.8278 0.65879v-0.65879-3.5986z"/> </symbol><symbol viewBox="0 0 32 32" id="icon-interevent-link-throw"> <path d="m16.015 2.3612c-7.5184 0-13.624 6.1053-13.624 13.624 0 7.5184 6.1053 13.624 13.624 13.624 7.5184 0 13.624-6.1053 13.624-13.624 0-7.5184-6.1053-13.624-13.624-13.624zm0 1.2443c6.8427 0 12.379 5.5367 12.379 12.379 0 6.8427-5.5367 12.379-12.379 12.379-6.8427 0-12.379-5.5367-12.379-12.379 0-6.8427 5.5367-12.379 12.379-12.379zm0-3.6206c-8.8302 0-16 7.1698-16 16s7.1698 16 16 16 16-7.1698 16-16-7.1698-16-16-16zm0 1.2464c8.1546 0 14.754 6.5991 14.754 14.754 0 8.1546-6.5991 14.754-14.754 14.754-8.1546 0-14.754-6.5991-14.754-14.754 0-8.1546 6.5991-14.754 14.754-14.754z"/> <path d="m16.539 6.9439v6.2872h-9.4864v5.5337h9.4864v6.2913c2.7988-3.0229 5.6076-6.0364 8.4076-9.0582-2.802-3.019-5.604-6.0375-8.408-9.0541z"/> </symbol><symbol viewBox="0 0 32 32" id="icon-interevent-message-catch"> <path d="m8.3892 10.949v0.62507 8.8214 0.62507h0.62507 14.002 0.62507v-0.62507-8.8214-0.62507h-0.62507-14.002-0.62507zm1.9221 1.2501h11.408l-5.7038 4.0747-5.7038-4.0747zm-0.67195 1.0587 6.0124 4.2935 0.36332 0.25784 0.36333-0.25784 6.0124-4.2935v6.5125h-12.752v-6.5125zm6.376-10.897c-7.5184 0-13.624 6.1053-13.624 13.624 0 7.5184 6.1053 13.624 13.624 13.624 7.5184 0 13.624-6.1053 13.624-13.624 0-7.5184-6.1053-13.624-13.624-13.624zm0 1.2443c6.8427 0 12.379 5.5367 12.379 12.379 0 6.8427-5.5367 12.379-12.379 12.379-6.8427 0-12.379-5.5367-12.379-12.379 0-6.8427 5.5367-12.379 12.379-12.379zm0-3.6206c-8.8302 0-16 7.1698-16 16s7.1698 16 16 16 16-7.1698 16-16-7.1698-16-16-16zm0 1.2464c8.1546 0 14.754 6.5991 14.754 14.754 0 8.1546-6.5991 14.754-14.754 14.754-8.1546 0-14.754-6.5991-14.754-14.754 0-8.1546 6.5991-14.754 14.754-14.754z"/> </symbol><symbol viewBox="0 0 32 32" id="icon-interevent-message-throw"> <path d="m16.015 2.3612c-7.5184 0-13.624 6.1053-13.624 13.624 0 7.5184 6.1053 13.624 13.624 13.624 7.5184 0 13.624-6.1053 13.624-13.624 0-7.5184-6.1053-13.624-13.624-13.624zm0 1.2443c6.8427 0 12.379 5.5367 12.379 12.379 0 6.8427-5.5367 12.379-12.379 12.379-6.8427 0-12.379-5.5367-12.379-12.379 0-6.8427 5.5367-12.379 12.379-12.379zm0-3.6206c-8.8302 0-16 7.1698-16 16s7.1698 16 16 16 16-7.1698 16-16-7.1698-16-16-16zm0 1.2464c8.1546 0 14.754 6.5991 14.754 14.754 0 8.1546-6.5991 14.754-14.754 14.754-8.1546 0-14.754-6.5991-14.754-14.754 0-8.1546 6.5991-14.754 14.754-14.754z"/> <path d="m8.3172 12.493v8.5648h15.366v-8.6285l-7.7147 6.0145zm0.042507-1.5514h15.174l-7.5872 5.9295z"/> </symbol><symbol viewBox="0 0 32 32" id="icon-interevent-multiple-catch"> <path d="m16.015 2.3612c-7.5184 0-13.624 6.1053-13.624 13.624 0 7.5184 6.1053 13.624 13.624 13.624 7.5184 0 13.624-6.1053 13.624-13.624 0-7.5184-6.1053-13.624-13.624-13.624zm0 1.2443c6.8427 0 12.379 5.5367 12.379 12.379 0 6.8427-5.5367 12.379-12.379 12.379-6.8427 0-12.379-5.5367-12.379-12.379 0-6.8427 5.5367-12.379 12.379-12.379zm0-3.6206c-8.8302 0-16 7.1698-16 16s7.1698 16 16 16 16-7.1698 16-16-7.1698-16-16-16zm0 1.2464c8.1546 0 14.754 6.5991 14.754 14.754 0 8.1546-6.5991 14.754-14.754 14.754-8.1546 0-14.754-6.5991-14.754-14.754 0-8.1546 6.5991-14.754 14.754-14.754z"/> <path d="m16 6.2926-0.39763 0.28765-8.6632 6.2563-0.3934 0.28342 0.14382 0.46954 3.2487 10.249 0.15228 0.46954h0.49493 10.829 0.49491l0.15228-0.46954 3.2487-10.249 0.14382-0.46954-0.39339-0.28342-8.6632-6.2563-0.39763-0.28765zm0 1.6709 7.8679 5.681-2.9526 9.3104h-9.8307l-2.9526-9.3104 7.8679-5.681z"/> </symbol><symbol viewBox="0 0 32 32" id="icon-interevent-multiple-throw"> <path d="m16.015 2.3612c-7.5184 0-13.624 6.1053-13.624 13.624 0 7.5184 6.1053 13.624 13.624 13.624 7.5184 0 13.624-6.1053 13.624-13.624 0-7.5184-6.1053-13.624-13.624-13.624zm0 1.2443c6.8427 0 12.379 5.5367 12.379 12.379 0 6.8427-5.5367 12.379-12.379 12.379-6.8427 0-12.379-5.5367-12.379-12.379 0-6.8427 5.5367-12.379 12.379-12.379zm0-3.6206c-8.8302 0-16 7.1698-16 16s7.1698 16 16 16 16-7.1698 16-16-7.1698-16-16-16zm0 1.2464c8.1546 0 14.754 6.5991 14.754 14.754 0 8.1546-6.5991 14.754-14.754 14.754-8.1546 0-14.754-6.5991-14.754-14.754 0-8.1546 6.5991-14.754 14.754-14.754z"/> <path d="m16 5.9925-0.398 0.2877-8.6626 6.2558-0.3934 0.284l0.14382 0.46952 3.2486 10.249 0.15228 0.46954h0.49491 10.829 0.4949l0.15228-0.46954 3.248-10.25 0.144-0.469-0.393-0.284-8.663-6.2558z"/> </symbol><symbol viewBox="0 0 32 32" id="icon-interevent-parallel"> <path d="m16.015 2.3612c-7.5184 0-13.624 6.1053-13.624 13.624 0 7.5184 6.1053 13.624 13.624 13.624 7.5184 0 13.624-6.1053 13.624-13.624 0-7.5184-6.1053-13.624-13.624-13.624zm0 1.2443c6.8427 0 12.379 5.5367 12.379 12.379 0 6.8427-5.5367 12.379-12.379 12.379-6.8427 0-12.379-5.5367-12.379-12.379 0-6.8427 5.5367-12.379 12.379-12.379zm0-3.6206c-8.8302 0-16 7.1698-16 16s7.1698 16 16 16 16-7.1698 16-16-7.1698-16-16-16zm0 1.2464c8.1546 0 14.754 6.5991 14.754 14.754 0 8.1546-6.5991 14.754-14.754 14.754-8.1546 0-14.754-6.5991-14.754-14.754 0-8.1546 6.5991-14.754 14.754-14.754z"/> <path d="m13.295 7.1111v0.64412 5.5395h-5.5395-0.64412v0.64412 4.1224 0.64412h0.64412 5.5395v5.5395 0.64412h0.64412 4.1224 0.64412v-0.64412-5.5395h5.5395 0.64412v-0.64412-4.1224-0.64412h-0.64412-5.5395v-5.5395-0.64412h-0.64412-4.1224-0.64412zm1.2882 1.2882h2.8341v5.5395 0.64412h0.64412 5.5395v2.8341h-5.5395-0.64412v0.64412 5.5395h-2.8341v-5.5395-0.64412h-0.64412-5.5395v-2.8341h5.5395 0.64412v-0.64412-5.5395z"/> </symbol><symbol viewBox="0 0 32 32" id="icon-interevent-rule"> <path d="m16.015 2.3612c-7.5184 0-13.624 6.1053-13.624 13.624 0 7.5184 6.1053 13.624 13.624 13.624 7.5184 0 13.624-6.1053 13.624-13.624 0-7.5184-6.1053-13.624-13.624-13.624zm0 1.2443c6.8427 0 12.379 5.5367 12.379 12.379 0 6.8427-5.5367 12.379-12.379 12.379-6.8427 0-12.379-5.5367-12.379-12.379 0-6.8427 5.5367-12.379 12.379-12.379zm0-3.6206c-8.8302 0-16 7.1698-16 16s7.1698 16 16 16 16-7.1698 16-16-7.1698-16-16-16zm0 1.2464c8.1546 0 14.754 6.5991 14.754 14.754 0 8.1546-6.5991 14.754-14.754 14.754-8.1546 0-14.754-6.5991-14.754-14.754 0-8.1546 6.5991-14.754 14.754-14.754z"/> <path d="m9.7541 7.8685v0.58924 4.8317 1.1785 2.8283 1.1785 2.5926 1.1785 1.2963 0.58924h0.58924 11.313 0.58924v-0.58924-1.2963-1.1785-2.5926-1.1785-2.8283-1.1785-4.8317-0.58924h-0.58924-11.313-0.58924zm1.1785 1.1785h10.135v0.70708h-10.135v-0.70708zm0 1.8856h10.135v2.3569h-10.135v-2.3569zm0 3.5354h10.135v2.8283h-10.135v-2.8283zm0 4.0068h10.135v2.5926h-10.135v-2.5926zm0 3.7711h10.135v0.70708h-10.135v-0.70708z"/> </symbol><symbol viewBox="0 0 32 32" id="icon-interevent-signal-catch"> <path d="m16.015 2.3612c-7.5184 0-13.624 6.1053-13.624 13.624 0 7.5184 6.1053 13.624 13.624 13.624 7.5184 0 13.624-6.1053 13.624-13.624 0-7.5184-6.1053-13.624-13.624-13.624zm0 1.2443c6.8427 0 12.379 5.5367 12.379 12.379 0 6.8427-5.5367 12.379-12.379 12.379-6.8427 0-12.379-5.5367-12.379-12.379 0-6.8427 5.5367-12.379 12.379-12.379zm0-3.6206c-8.8302 0-16 7.1698-16 16s7.1698 16 16 16 16-7.1698 16-16-7.1698-16-16-16zm0 1.2464c8.1546 0 14.754 6.5991 14.754 14.754 0 8.1546-6.5991 14.754-14.754 14.754-8.1546 0-14.754-6.5991-14.754-14.754 0-8.1546 6.5991-14.754 14.754-14.754z"/> <path d="m16 6.1872-0.58852 1.0107-7.9365 13.587-0.59705 1.0278h1.1856 15.873 1.1856l-0.59705-1.0278-7.9365-13.587-0.58852-1.0107zm0 2.7038 6.7424 11.557h-13.485l6.7424-11.557z"/> </symbol><symbol viewBox="0 0 32 32" id="icon-interevent-signal-throw"> <path d="m16.015 2.3612c-7.5184 0-13.624 6.1053-13.624 13.624 0 7.5184 6.1053 13.624 13.624 13.624 7.5184 0 13.624-6.1053 13.624-13.624 0-7.5184-6.1053-13.624-13.624-13.624zm0 1.2443c6.8427 0 12.379 5.5367 12.379 12.379 0 6.8427-5.5367 12.379-12.379 12.379-6.8427 0-12.379-5.5367-12.379-12.379 0-6.8427 5.5367-12.379 12.379-12.379zm0-3.6206c-8.8302 0-16 7.1698-16 16s7.1698 16 16 16 16-7.1698 16-16-7.1698-16-16-16zm0 1.2464c8.1546 0 14.754 6.5991 14.754 14.754 0 8.1546-6.5991 14.754-14.754 14.754-8.1546 0-14.754-6.5991-14.754-14.754 0-8.1546 6.5991-14.754 14.754-14.754z"/> <path d="m16 6.1875c-3.033 5.2125-6.0925 10.41-9.122 15.626h18.244c-3.033-5.214-6.087-10.415-9.122-15.626z"/> </symbol><symbol viewBox="0 0 32 32" id="icon-interevent-timer"> <path d="m16.015 2.3612c-7.5184 0-13.624 6.1053-13.624 13.624 0 7.5184 6.1053 13.624 13.624 13.624 7.5184 0 13.624-6.1053 13.624-13.624 0-7.5184-6.1053-13.624-13.624-13.624zm0 1.2443c6.8427 0 12.379 5.5367 12.379 12.379 0 6.8427-5.5367 12.379-12.379 12.379-6.8427 0-12.379-5.5367-12.379-12.379 0-6.8427 5.5367-12.379 12.379-12.379zm0-3.6206c-8.8302 0-16 7.1698-16 16s7.1698 16 16 16 16-7.1698 16-16-7.1698-16-16-16zm0 1.2464c8.1546 0 14.754 6.5991 14.754 14.754 0 8.1546-6.5991 14.754-14.754 14.754-8.1546 0-14.754-6.5991-14.754-14.754 0-8.1546 6.5991-14.754 14.754-14.754z"/> <path d="m16 6.5865c-5.1908 0-9.4135 4.2226-9.4135 9.4135 0 5.1908 4.2226 9.4135 9.4135 9.4135 5.1908 0 9.4135-4.2226 9.4135-9.4135 0-5.1908-4.2226-9.4135-9.4135-9.4135zm-0.68214 1.3941v0.82709 0.64377 0.038372h1.3643v-0.68214-0.82709c1.7117 0.14342 3.2688 0.81946 4.5064 1.8631l-1.0403 1.0403 0.0086 0.0085-0.02559 0.02558 0.96353 0.96352 0.48175-0.48176 0.58407-0.58408c1.0414 1.2368 1.7156 2.7926 1.8588 4.5021h-1.4708v0.0085h-0.02558v1.3643h0.68214 0.81429c-0.14504 1.7094-0.82001 3.2662-1.8631 4.5021l-1.0445-1.0445-0.0042 0.0042-0.01283-0.01278-0.96353 0.96352 0.48176 0.48176 0.57555 0.57555c-1.2372 1.0426-2.7957 1.7155-4.5064 1.8588l-0.000055-1.4709v-0.01706h-1.3643v0.68214 0.80577c-1.71-0.144-3.265-0.818-4.502-1.86l0.57556-0.57555 0.48175-0.48176-0.96352-0.96352-0.01705 0.01279-0.0042-0.0042-1.0445 1.0445c-1.0433-1.235-1.7183-2.792-1.8633-4.501h0.81856 0.68214v-1.3643h-0.029853v-0.0085h-1.4708c0.1433-1.711 0.8162-3.269 1.8588-4.506l0.58833 0.58834 0.48176 0.48176 0.96352-0.96352-0.02558-0.02984 0.0042-0.0042-1.0403-1.0403c1.2376-1.0436 2.7947-1.7197 4.5064-1.8631zm0 2.9716v0.68214 3.6835 0.67787 0.68214 0.0042h0.68214 4.3657 0.68214v-1.3643h-0.68214-3.6835v-3.6835-0.68214h-1.3643z"/> </symbol><symbol viewBox="0 0 32 32" id="icon-interevent"> <path d="m16.015 2.3612c-7.5184 0-13.624 6.1053-13.624 13.624 0 7.5184 6.1053 13.624 13.624 13.624 7.5184 0 13.624-6.1053 13.624-13.624 0-7.5184-6.1053-13.624-13.624-13.624zm0 1.2443c6.8427 0 12.379 5.5367 12.379 12.379 0 6.8427-5.5367 12.379-12.379 12.379-6.8427 0-12.379-5.5367-12.379-12.379 0-6.8427 5.5367-12.379 12.379-12.379zm0-3.6206c-8.8302 0-16 7.1698-16 16s7.1698 16 16 16 16-7.1698 16-16-7.1698-16-16-16zm0 1.2464c8.1546 0 14.754 6.5991 14.754 14.754 0 8.1546-6.5991 14.754-14.754 14.754-8.1546 0-14.754-6.5991-14.754-14.754 0-8.1546 6.5991-14.754 14.754-14.754z"/> </symbol><symbol viewBox="0 0 32 32" id="icon-lane"> <path d="m0 0v0.9375 30.124 0.938h0.9375 30.124 0.938v-0.938-30.124-0.938h-0.938-30.124-0.938zm1.875 1.875h7.1953a0.93759 0.93759 0 0 0 -0.0077 0.125v13.852a0.93759 0.93759 0 0 0 0 0.30469v13.969h-7.1875v-28.25zm9.0547 0h19.195v13.188h-19.188v-13.062a0.93759 0.93759 0 0 0 -0.0077 -0.125zm0.0077 15.062h19.188v13.188h-19.188v-13.188z"/> </symbol><symbol viewBox="0 0 32 32" id="icon-pool"> <path d="m0 0v0.9375 30.124 0.938h0.9375 30.124 0.938v-0.938-30.124-0.938h-0.938-30.124-0.938zm1.875 1.875h7.1953a0.93759 0.93759 0 0 0 -0.0077 0.125v28.125h-7.1875v-28.25zm9.0547 0h19.195v28.25h-19.188v-28.125a0.93759 0.93759 0 0 0 -0.0077 -0.125z"/> </symbol><symbol viewBox="0 0 32 32" id="icon-startevent-compensation"> <g transform="translate(-.0024230 -1020.4)"> <path d="m16.005 1020.4c-8.8258 0-15.998 7.1721-15.998 15.998 0 8.8258 7.1721 16.002 15.998 16.002 8.8258 0 16.002-7.1763 16.002-16.002 0-8.8258-7.1763-15.998-16.002-15.998zm0 1.8756c7.8124 0 14.126 6.3099 14.126 14.122 0 7.8124-6.314 14.126-14.126 14.126-7.8124 0-14.122-6.3141-14.122-14.126 0-7.8124 6.3098-14.122 14.122-14.122z"/> </g> <path d="m14.892 9.3369-1.091 0.70231-8.3306 5.3667-0.92317 0.5963 0.92317 0.59189 8.3306 5.3667 1.091 0.70231v-1.2942-5.1459l0.57422 0.37103 8.335 5.3667 1.0866 0.70231v-1.2942-10.738-1.2942l-1.0866 0.70231-8.335 5.3667-0.57422 0.37103v-5.1459-1.2942zm-1.4135 2.5884v8.1495l-6.3208-4.0725 6.3208-4.0769zm9.9958 0.0042v8.1406l-6.3164-4.0681 6.3164-4.0725z"/> </symbol><symbol viewBox="0 0 32 32" id="icon-startevent-error"> <path d="m16.003-0.0049619c-8.8258 0-15.998 7.1721-15.998 15.998 0 8.8258 7.1721 16.002 15.998 16.002 8.8258 0 16.002-7.1763 16.002-16.002 0-8.8258-7.1763-15.998-16.002-15.998zm0 1.8756c7.8124 0 14.126 6.3098 14.126 14.122 0 7.8124-6.314 14.126-14.126 14.126-7.8124 0-14.122-6.314-14.122-14.126 0-7.8124 6.3098-14.122 14.122-14.122zm6.9706 6.4996a0.62509 0.62509 0 0 0 -0.501 0.293l-4.504 7.2078-4.457-6.239a0.62509 0.62509 0 0 0 -1.105 0.1797l-4.0006 13a0.62509 0.62509 0 0 0 1.1055 0.5469l4.4924-6.2893 4.4924 6.2893a0.62509 0.62509 0 0 0 1.1094 -0.19141l4-14.001a0.62509 0.62509 0 0 0 -0.633 -0.7968zm-9.7426 3.0157 4.2658 5.9729a0.62509 0.62509 0 0 0 1.0391 -0.03515l2.6485-4.2384-2.4259 8.4925-4.2463-5.9455a0.62509 0.62509 0 0 0 -1.0157 0l-2.7618 3.8673 2.4962-8.1136z"/> </symbol><symbol viewBox="0 0 32 32" id="icon-startevent-escalation"> <path d="m16 4.1419-0.676 1.582-7.0636 16.482-0.9749 2.271 2.0602-1.37 6.6543-4.438 6.654 4.438 2.061 1.37-0.975-2.271-7.064-16.482-0.676-1.5821zm0 3.7387 5.4081 12.623-4.9988-3.3341-0.40928-0.27132-0.40929 0.27132-4.9988 3.3341 5.4081-12.623z"/> <path d="m16.003-0.0049619c-8.8258 0-15.998 7.1721-15.998 15.998 0 8.8258 7.1721 16.002 15.998 16.002 8.8258 0 16.002-7.1763 16.002-16.002 0-8.8258-7.1763-15.998-16.002-15.998zm0 1.8756c7.8124 0 14.126 6.3098 14.126 14.122 0 7.8124-6.314 14.126-14.126 14.126-7.8124 0-14.122-6.314-14.122-14.126 0-7.8124 6.3098-14.122 14.122-14.122z"/> </symbol><symbol viewBox="0 0 32 32" id="icon-startevent-message"> <path d="m16.003-0.0049619c-8.8258 0-15.998 7.1721-15.998 15.998 0 8.8258 7.1721 16.002 15.998 16.002 8.8258 0 16.002-7.1763 16.002-16.002 0-8.8258-7.1763-15.998-16.002-15.998zm0 1.8756c7.8124 0 14.126 6.3098 14.126 14.122 0 7.8124-6.314 14.126-14.126 14.126-7.8124 0-14.122-6.314-14.122-14.126 0-7.8124 6.3098-14.122 14.122-14.122zm-7.6232 9.089v0.62502 8.8207 0.62502h0.62502 14.001 0.62502v-0.62502-8.8207-0.62502h-0.62502-14.001-0.62502zm1.9219 1.25h11.407l-5.7033 4.0744-5.7033-4.0744zm-0.6719 1.0586 6.012 4.2931 0.36329 0.25782 0.3633-0.25782 6.0119-4.2931v6.512h-12.75v-6.512z"/> </symbol><symbol viewBox="0 0 32 32" id="icon-startevent-multiple"> <path d="m16.003-0.0049619c-8.8258 0-15.998 7.1721-15.998 15.998 0 8.8258 7.1721 16.002 15.998 16.002 8.8258 0 16.002-7.1763 16.002-16.002 0-8.8258-7.1763-15.998-16.002-15.998zm0 1.8756c7.8124 0 14.126 6.3098 14.126 14.122 0 7.8124-6.314 14.126-14.126 14.126-7.8124 0-14.122-6.314-14.122-14.126 0-7.8124 6.3098-14.122 14.122-14.122zm0.0021 5.3057-0.3672 0.26564-8.0003 5.7776-0.3633 0.26173 0.13282 0.43361 3.0001 9.4652 0.14063 0.43362h0.45706 10 0.45704l0.14063-0.43362 3-9.466 0.133-0.434-0.364-0.261-8-5.778-0.367-0.2657zm0 1.543 7.2659 5.2463-2.7267 8.598h-9.0785l-2.7267-8.598 7.2659-5.2463z"/> </symbol><symbol viewBox="0 0 32 32" id="icon-startevent-normal"> <path d="m16.003-0.0049619c-8.8258 0-15.998 7.1721-15.998 15.998 0 8.8258 7.1721 16.002 15.998 16.002 8.8258 0 16.002-7.1763 16.002-16.002 0-8.8258-7.1763-15.998-16.002-15.998zm0 1.8756c7.8124 0 14.126 6.3098 14.126 14.122 0 7.8124-6.314 14.126-14.126 14.126-7.8124 0-14.122-6.314-14.122-14.126 0-7.8124 6.3098-14.122 14.122-14.122z"/> </symbol><symbol viewBox="0 0 32 32" id="icon-startevent-parallel"> <path d="m16.003-0.0049619c-8.8258 0-15.998 7.1721-15.998 15.998 0 8.8258 7.1721 16.002 15.998 16.002 8.8258 0 16.002-7.1763 16.002-16.002 0-8.8258-7.1763-15.998-16.002-15.998zm0 1.8756c7.8124 0 14.126 6.3098 14.126 14.122 0 7.8124-6.314 14.126-14.126 14.126-7.8124 0-14.122-6.314-14.122-14.126 0-7.8124 6.3098-14.122 14.122-14.122zm-2.623 5.499v0.62502 5.3752h-5.3752-0.62502v0.62502 4.0002 0.62502h0.62502 5.3752v5.3752 0.62502h0.62502 4.0002 0.62502v-0.62502-5.3752h5.3752 0.62502v-0.62502-4.0002-0.62502h-0.62502-5.3752v-5.3752-0.62502h-0.62502-4.0002-0.62502zm1.25 1.25h2.7501v5.3752 0.62502h0.62502 5.3752v2.7501h-5.3752-0.62502v0.62502 5.3752h-2.7501v-5.3752-0.62502h-0.62502-5.3752v-2.7501h5.3752 0.62502v-0.62502-5.3752z"/> </symbol><symbol viewBox="0 0 32 32" id="icon-startevent-rule"> <path d="m16.003-0.0049619c-8.8258 0-15.998 7.1721-15.998 15.998 0 8.8258 7.1721 16.002 15.998 16.002 8.8258 0 16.002-7.1763 16.002-16.002 0-8.8258-7.1763-15.998-16.002-15.998zm0 1.8756c7.8124 0 14.126 6.3098 14.126 14.122 0 7.8124-6.314 14.126-14.126 14.126-7.8124 0-14.122-6.314-14.122-14.126 0-7.8124 6.3098-14.122 14.122-14.122zm-6.6231 5.499v0.62502 5.1252 1.25 3.0001 1.25 2.7501 1.25 1.3751 0.62502h0.62502 12 0.62502v-0.62502-1.3751-1.25-2.7501-1.25-3.0001-1.25-5.1252-0.62502h-0.62502-12-0.62502zm1.25 1.25h10.75v0.75003h-10.75v-0.75003zm0 2.0001h10.75v2.5001h-10.75v-2.5001zm0 3.7501h10.75v3.0001h-10.75v-3.0001zm0 4.2502h10.75v2.7501h-10.75v-2.7501zm0 4.0002h10.75v0.75003h-10.75v-0.75003z"/> </symbol><symbol viewBox="0 0 32 32" id="icon-startevent-signal"> <path d="m16.003-0.0049619c-8.8258 0-15.998 7.1721-15.998 15.998 0 8.8258 7.1721 16.002 15.998 16.002 8.8258 0 16.002-7.1763 16.002-16.002 0-8.8258-7.1763-15.998-16.002-15.998zm0 1.8756c7.8124 0 14.126 6.3098 14.126 14.122 0 7.8124-6.314 14.126-14.126 14.126-7.8124 0-14.122-6.314-14.122-14.126 0-7.8124 6.3098-14.122 14.122-14.122zm0.0021 4.9678-0.53908 0.92582-7.2698 12.446-0.5469 0.94144h1.086 14.54 1.086l-0.547-0.941-7.27-12.446-0.539-0.9256zm0 2.4767 6.176 10.586h-12.352l6.176-10.586z"/> </symbol><symbol viewBox="0 0 32 32" id="icon-startevent-timer"> <path d="m16.003-0.0049625c-8.8258 0-15.998 7.1721-15.998 15.998 0 8.8258 7.1721 16.002 15.998 16.002 8.8258 0 16.002-7.1763 16.002-16.002 0-8.8258-7.1763-15.998-16.002-15.998zm0 1.8756c7.8124 0 14.126 6.3098 14.126 14.122 0 7.8124-6.314 14.126-14.126 14.126-7.8124 0-14.122-6.314-14.122-14.126 0-7.8124 6.3098-14.122 14.122-14.122z"/> <path d="m16 6.4117c-5.2873 0-9.5883 4.3011-9.5883 9.5883 0 5.2873 4.3011 9.5883 9.5883 9.5883 5.2873 0 9.5883-4.3011 9.5883-9.5883 0-5.2873-4.3011-9.5883-9.5883-9.5883zm-0.69481 1.42v0.84245 0.65572 0.039084h1.3896v-0.69481-0.84245c1.7435 0.14609 3.3295 0.83469 4.5901 1.8977l-1.0596 1.0596 0.0088 0.0087-0.02606 0.02605 0.98143 0.98142 0.4907-0.49071 0.59492-0.59493c1.0608 1.2598 1.7475 2.8444 1.8934 4.5857h-1.4982v0.0087h-0.02605v1.3896h0.69481 0.82942c-0.14773 1.7412-0.83524 3.3269-1.8977 4.5857l-1.0639-1.0639-0.0043 0.0043-0.01307-0.01302-0.98143 0.98142 0.49072 0.49071 0.58624 0.58624c-1.2602 1.062-2.8476 1.7473-4.5901 1.8934l-0.000056-1.4982v-0.01738h-1.3896v0.69481 0.82074c-1.74-0.147-3.325-0.833-4.584-1.894l0.58625-0.58624 0.4907-0.49071-0.98142-0.98142-0.01737 0.01302-0.0043-0.0043-1.0639 1.0639c-1.0631-1.259-1.7506-2.844-1.8983-4.586h0.83377 0.69481v-1.3896h-0.030407v-0.0087h-1.4982c0.146-1.742 0.8314-3.33 1.8934-4.59l0.59926 0.59927 0.49072 0.49071 0.98142-0.98142-0.02605-0.0304 0.0043-0.0043-1.0596-1.0596c1.2606-1.063 2.8466-1.7516 4.5901-1.8977zm0 3.0268v0.69481 3.752 0.69047 0.69481 0.0043h0.69481 4.4468 0.69481v-1.3896h-0.69481-3.752v-3.752-0.69481h-1.3896z"/> </symbol><symbol viewBox="0 0 32 32" id="icon-subprocess-adhoc"> <g> <path d="m20.374 22.206v5.0734h1.057v-5.0734h-1.057zm-2.0082 2.0082v1.057h5.0734v-1.057h-5.0734zm-1.374-3.3823v0.52848 6.7645 0.52848h0.52848 6.7645 0.52848v-0.52848-6.7645-0.52848h-0.52848-6.7645-0.52848zm1.057 1.057h5.7076v5.7076h-5.7076v-5.7076z"/> <path d="m3.2031-0.0000075c-1.7585 0-3.2031 1.4446-3.2031 3.2031v25.59c0 1.7585 1.4446 3.207 3.2031 3.207h25.594c1.758 0 3.203-1.448 3.203-3.207v-25.59c0-1.7584-1.445-3.203-3.203-3.203h-25.594zm0 1.875h25.594c0.75222 0 1.3281 0.5759 1.3281 1.3281v25.59c0 0.75222-0.5759 1.332-1.3281 1.332h-25.594c-0.7521 0-1.328-0.58-1.328-1.332v-25.59c0-0.75222 0.5759-1.3281 1.3281-1.3281z"/> <path d="m9.8485 22.598c-0.1177-0.004-0.2377 0.001-0.3582 0.021-0.9642 0.161-1.7382 1.046-2.2184 2.486l1.0571 0.35467c0.4099-1.2297 0.97121-1.6802 1.3422-1.7421 0.37099-0.06183 0.81394 0.16747 1.1927 0.92493 0.51143 1.0229 1.4037 1.6837 2.368 1.523 0.96426-0.16071 1.7382-1.0454 2.2184-2.4862l-1.057-0.355c-0.4099 1.2297-0.97121 1.6802-1.3422 1.7421-0.37099 0.06183-0.81394-0.16747-1.1927-0.92493-0.4475-0.895-1.1858-1.5109-2.0098-1.5439z"/> </g> </symbol><symbol viewBox="0 0 32 32" id="icon-subprocess-event"> <path d="m15.257 19.932v7.1351h1.4865v-7.1351h-1.4865zm-2.8243 2.8243v1.4865h7.1351v-1.4865h-7.1351zm-1.933-4.756v0.74324 9.5135 0.74324h0.74324 9.5135 0.74324v-0.74324-9.5135-0.744h-0.743-9.514-0.743zm1.4865 1.4865h8.027v8.027h-8.027v-8.027z"/> <path d="m2.8749 0.011765h-0.046875l-0.046875 0.0078125-0.2226 0.035156-0.043 0.007812-0.0468 0.011713-0.211 0.050781-0.046875 0.011712-0.042962 0.015625-0.20312 0.074219-0.042975 0.015625-0.042975 0.023438-0.1914 0.089844-0.042975 0.019531-0.03905 0.023438-0.1797 0.11328-0.03905 0.023438-0.039075 0.027344-0.16796 0.125-0.035162 0.027344-0.03515 0.03125-0.15625 0.14062-0.03515 0.03125-0.02735 0.035156-0.14452 0.15625-0.03125 0.03125-0.02345 0.035156-0.1289 0.17187-0.02735 0.035156-0.023425 0.039062-0.10937 0.18359-0.02345 0.039063-0.019525 0.039063-0.09375 0.19531-0.019525 0.039063-0.015625 0.042969-0.074225 0.20312-0.015625 0.046875-0.01175 0.042969-0.054675 0.21094-0.01175 0.046875-0.00775 0.046875-0.03125 0.21875-0.00775 0.046875-0.003875 0.046875-0.012 0.2263v0.023437 0.023437 0.73828h1.875v-0.69141l0.01175-0.19531 0.015625-0.10938 0.03125-0.11719 0.042963-0.11719 0.046875-0.10937 0.070312-0.11328 0.074225-0.097656 0.046875-0.054687 0.015625-0.015625 0.10546-0.097656 0.10937-0.082031 0.089837-0.050781 0.125-0.0625 0.09375-0.035156 0.15625-0.035156 0.1172-0.019531 0.12109-0.0039h5.625v-1.875h-5.625v0.9375l-0.0469-0.93736zm7.7734 1.8633h5.625v-1.875h-5.625zm7.5 0h5.625v-1.875h-5.625zm7.5 0h3.2031l0.12109 0.0039 0.1172 0.019531 0.15625 0.035156 0.09375 0.035156 0.125 0.0625 0.08984 0.050781 0.10938 0.082031 0.10546 0.097656 0.01563 0.015625 0.04687 0.054687 0.07422 0.097656 0.0664 0.10937 0.02345 0.039063 0.393-0.2385 1.273-0.6133-0.019-0.043-0.02-0.039-0.023-0.0391-0.11-0.1836-0.023-0.039-0.028-0.0352-0.128-0.1719-0.02345-0.035156-0.03125-0.03125-0.14452-0.15625-0.02735-0.035156-0.03515-0.03125-0.15625-0.14062-0.03515-0.03125-0.03516-0.027344-0.16796-0.125-0.03908-0.027344-0.03905-0.023438-0.1797-0.11328-0.03905-0.023438-0.04297-0.019531-0.1914-0.089844-0.04297-0.023438-0.04297-0.015625-0.20312-0.074219-0.04296-0.015625-0.04687-0.011712-0.21094-0.050781-0.04687-0.011712-0.04297-0.0078125-0.22265-0.035156-0.04687-0.0078125h-0.04687l-0.22656-0.011712h-0.02344-0.02344-3.2031zm4.4766 7.7187h1.875v-5.625h-1.875zm-30.125 1.7892h1.875v-5.625h-1.875zm30.125 5.711h1.875v-5.625h-1.875zm-30.125 1.7891h1.875v-5.625h-1.875zm30.125 5.711h1.875v-5.625h-1.875zm-30.125 1.7891h1.875v-5.625h-1.875zm30.125 2.422l-0.01175 0.19531-0.01563 0.11719-0.03125 0.10938-0.04687 0.13281-0.04687 0.10156-0.0703 0.10938-0.01954 0.03125-0.03906 0.04687-0.08985 0.10547-0.08592 0.07422-0.11329 0.08594-0.08984 0.05078-0.125 0.0625-0.10158 0.03906-0.12109 0.02734-0.17579 0.02734 0.28125 1.8555 0.21875-0.03516 0.04298-0.0039 0.04687-0.01171 0.21094-0.05469 0.04687-0.01171 0.04296-0.01563 0.20312-0.07422 0.04298-0.01563 0.04297-0.01953 0.1914-0.09375 0.04297-0.01953 0.03905-0.02344 0.1797-0.11328 0.03905-0.02344 0.03908-0.02344 0.16796-0.12891 0.03516-0.02734 0.03515-0.03125 0.15625-0.14062 0.03515-0.03125 0.02735-0.03125 0.14452-0.15625 0.03125-0.03516 0.02345-0.03516 0.1289-0.17188 0.02735-0.03516 0.02342-0.03906 0.10938-0.18359 0.02345-0.03906 0.01952-0.03906 0.09375-0.19531 0.01953-0.03906 0.01563-0.04297 0.07422-0.20312 0.01563-0.04297 0.01175-0.04687 0.05467-0.21094 0.01175-0.04687 0.0077-0.04687 0.03125-0.21875 0.0078-0.04687 0.0039-0.04687 0.01175-0.22656v-0.02344-0.02344-2.3828h-1.875zm-30.125 0.04687v0.02344 0.02344l0.01175 0.22656 0.003875 0.04687 0.00775 0.04687 0.03125 0.21875 0.00775 0.04687 0.01175 0.04687 0.054675 0.21094 0.01175 0.04687 0.015625 0.04297 0.074225 0.20312 0.015625 0.04297 0.019525 0.03906 0.09375 0.19531 0.019525 0.03906 0.02345 0.03906 0.10937 0.18359 0.023425 0.03906 0.02735 0.03516 0.1289 0.17187 0.02345 0.03516 0.03125 0.03516 0.14452 0.15625 0.02735 0.03125 0.03515 0.03125 0.15625 0.14062 0.03515 0.03125 0.035162 0.02734 0.16796 0.12891 0.039075 0.02344 0.03905 0.02344 0.1797 0.11328 0.03905 0.02344 0.04305 0.01953 0.1914 0.09375 0.042975 0.01953 0.042975 0.01563 0.20312 0.07422 0.042962 0.01563 0.046875 0.01171 0.21094 0.05469 0.046875 0.01171 0.042975 0.0039 0.22265 0.03516 0.046875 0.0078h0.046875l0.22656 0.01171 0.023437 0.0039h0.023437 1.5586v-1.875h-1.5117l-0.16796-0.0078-0.14845-0.02344-0.11718-0.02734-0.10157-0.03906-0.125-0.0625-0.089837-0.05078-0.11329-0.08594-0.085925-0.07422-0.08985-0.10547-0.039063-0.04687-0.019537-0.03125-0.0703-0.10938-0.046875-0.10156-0.046875-0.13281-0.03125-0.10937-0.015625-0.11719-0.01175-0.19531v-0.54688h-1.875zm6.5819 3.148h5.625v-1.875h-5.625zm7.5 0h5.625v-1.875h-5.625zm7.5 0h5.625v-1.875h-5.625z"/> </symbol><symbol viewBox="0 0 32 32" id="icon-subprocess-transaction"> <path d="m15.257 17.932v7.1351h1.4865v-7.1351h-1.4865zm-2.8243 2.8243v1.4865h7.1351v-1.4865h-7.1351zm-1.933-4.756v0.74324 9.5135 0.74324h0.74324 9.5135 0.74324v-0.74324-9.5135-0.744h-0.743-9.514-0.743zm1.4865 1.4865h8.027v8.027h-8.027v-8.027z"/> <path d="m4.1602 2.418c-0.9549 0-1.7422 0.78728-1.7422 1.7422v23.676c0 0.9549 0.78728 1.7461 1.7422 1.7461h23.68c0.9549 0 1.7422-0.79119 1.7422-1.7461v-23.676c0-0.9549-0.78728-1.7422-1.7422-1.7422h-23.68zm0 1.25h23.68c0.28403 0 0.49219 0.20816 0.49219 0.49219v23.676c0 0.28402-0.20816 0.4961-0.49219 0.49609h-23.68c-0.28403 0-0.49219-0.21206-0.49219-0.49609v-23.676c0-0.28403 0.20816-0.49219 0.49219-0.49219zm-1.1602-3.668c-1.6512 0-3 1.3488-3 3v26c0 1.6512 1.3488 3 3 3h26c1.6512 0 3-1.3488 3-3v-26c0-1.6512-1.349-3-3-3h-26zm0 1.25h26c0.98031 0 1.75 0.76969 1.75 1.75v26c0 0.98031-0.76969 1.75-1.75 1.75h-26c-0.9803 0-1.75-0.77-1.75-1.75v-26c0-0.9803 0.7697-1.75 1.75-1.75z"/> </symbol><symbol viewBox="0 0 32 32" id="icon-subprocess"> <path d="m15.257 19.932v7.1351h1.4865v-7.1351h-1.4865zm-2.8243 2.8243v1.4865h7.1351v-1.4865h-7.1351zm-1.933-4.756v0.74324 9.5135 0.74324h0.74324 9.5135 0.74324v-0.74324-9.5135-0.744h-0.743-9.514-0.743zm1.4865 1.4865h8.027v8.027h-8.027v-8.027z"/> <path d="m3.2031-0.0000075c-1.7585 0-3.2031 1.4446-3.2031 3.2031v25.59c0 1.7585 1.4446 3.207 3.2031 3.207h25.594c1.758 0 3.203-1.448 3.203-3.207v-25.59c0-1.7584-1.445-3.203-3.203-3.203h-25.594zm0 1.875h25.594c0.75222 0 1.3281 0.5759 1.3281 1.3281v25.59c0 0.75222-0.5759 1.332-1.3281 1.332h-25.594c-0.7521 0-1.328-0.58-1.328-1.332v-25.59c0-0.75222 0.5759-1.3281 1.3281-1.3281z"/> </symbol><symbol viewBox="0 0 32 32" id="icon-task-abstract"> <path d="m3.2031 0c-1.7585 0-3.2031 1.4446-3.2031 3.2031v25.594c0 1.758 1.4446 3.203 3.2031 3.203h25.594c1.758 0 3.203-1.445 3.203-3.203v-25.594c0-1.7584-1.445-3.203-3.203-3.203h-25.594zm0 1.875h25.594c0.75223 0 1.3281 0.5759 1.3281 1.3281v25.594c0 0.75223-0.5759 1.3281-1.3281 1.3281h-25.594c-0.7521 0-1.328-0.576-1.328-1.328v-25.594c0-0.7521 0.5759-1.328 1.3281-1.328z"/> </symbol><symbol viewBox="0 0 32 32" id="icon-task-manual"> <path d="m3.2031 0c-1.7585 0-3.2031 1.4446-3.2031 3.2031v25.594c0 1.758 1.4446 3.203 3.2031 3.203h25.594c1.758 0 3.203-1.445 3.203-3.203v-25.594c0-1.7584-1.445-3.203-3.203-3.203h-25.594zm0 1.875h25.594c0.75223 0 1.3281 0.5759 1.3281 1.3281v25.594c0 0.75223-0.5759 1.3281-1.3281 1.3281h-25.594c-0.7521 0-1.328-0.576-1.328-1.328v-25.594c0-0.7521 0.5759-1.328 1.3281-1.328z"/> <path d="m10.939 8.1148c-0.60418 0-1.2983 0.22573-2.0574 0.52385-0.3795 0.1491-0.7509 0.3193-1.0773 0.5113-0.3263 0.1919-0.6177 0.3724-0.8364 0.7266-0.91159 1.4759-1.2124 4.0118-1.2125 6.4847 0 1.2365 0.094536 2.4437 0.2915 3.4642 0.19697 1.0205 0.44007 1.8594 1.0266 2.4291 0.44929 0.43641 1.107 0.74045 1.8377 1.0519 0.73068 0.31148 1.3806 0.57877 2.0278 0.57877h4.8752 4.0302c1.116 0 1.9476-0.99755 1.9475-2.1165 0-0.32952-0.08015-0.64364-0.21122-0.92941a0.676 0.676 0 0 0 0.13519 -0.16053c0.56181-0.38245 0.92518-1.0615 0.92518-1.7954 0-0.35398-0.0916-0.69063-0.24081-0.99278 0.65426-0.35466 1.09-1.0856 1.09-1.8884 0-0.26768-0.05167-0.52696-0.13942-0.76887h0.73929 0.06759 0.13942c1.116 0 1.9475-0.99756 1.9475-2.1165 0-1.119-0.83152-2.1165-1.9475-2.1165h-5.1878c0.08775-0.24191 0.13938-0.50119 0.13942-0.76887 0-1.119-0.83574-2.1165-1.9518-2.1165h-1.4828-4.8752zm0 1.3519h4.8752 1.4828c0.29377 0 0.59986 0.28588 0.5999 0.76465 0 0.47877-0.30616 0.76887-0.5999 0.76887v0.67593 0.67593h7.0001c0.29373 0 0.59563 0.28588 0.59567 0.76465 0 0.47876-0.30194 0.76465-0.59567 0.76465h-0.20701-6.3664-0.66748a0.676 0.676 0 0 0 -0.0084 0 0.676 0.676 0 0 0 -0.05914 0 0.67678 0.67678 0 0 0 0.05914 1.3519h0.67593 3.8148c0.29377 0 0.59986 0.29011 0.5999 0.76887 0 0.47877-0.30616 0.76465-0.5999 0.76465h-0.40978-3.405-0.67593a0.676 0.676 0 1 0 0 1.3519 0.676 0.676 0 0 0 0.0084 0h0.66748 2.9699c0.29377 0 0.59567 0.28587 0.59567 0.76465 0 0.45806-0.27648 0.74082-0.55764 0.76465h-3.6754a0.676 0.676 0 1 0 -0.0084 1.3519v0.0042h0.67593 2.1207c0.29373 0 0.59566 0.28589 0.59566 0.76465 0 0.47878-0.30192 0.76465-0.59566 0.76465h-4.0302-4.8752c-0.0577 0-0.83974-0.18937-1.4955-0.46893-0.6567-0.278-1.3429-0.697-1.4289-0.78-0.1557-0.151-0.468-0.813-0.6421-1.715s-0.2662-2.04-0.2662-3.207c0-2.3337 0.4411-4.8476 1.0139-5.775-0.016628 0.02693 0.12998-0.13485 0.36754-0.2746s0.55709-0.2886 0.88716-0.41823c0.66014-0.25927 1.4624-0.42668 1.5631-0.42668z"/> </symbol><symbol viewBox="0 0 32 32" id="icon-task-receive"> <path d="m3.2031 0c-1.7585 0-3.2031 1.4446-3.2031 3.2031v25.594c0 1.758 1.4446 3.203 3.2031 3.203h25.594c1.758 0 3.203-1.445 3.203-3.203v-25.594c0-1.7584-1.445-3.203-3.203-3.203h-25.594zm0 1.875h25.594c0.75223 0 1.3281 0.5759 1.3281 1.3281v25.594c0 0.75223-0.5759 1.3281-1.3281 1.3281h-25.594c-0.7521 0-1.328-0.576-1.328-1.328v-25.594c0-0.7521 0.5759-1.328 1.3281-1.328z"/> <path d="m6.6515 9.8267v0.76627 10.814 0.76627h0.76627 17.164 0.76627v-0.76627-10.814-0.76627h-0.76627-17.164-0.76627zm2.3563 1.5325h13.984l-6.992 4.995-6.9922-4.995zm-0.8238 1.298 7.371 5.263 0.445 0.317l0.4454-0.31609 7.3706-5.2633v7.9836h-15.632v-7.9836z"/> </symbol><symbol viewBox="0 0 32 32" id="icon-task-rule"> <path d="m3.2031 0c-1.7585 0-3.2031 1.4446-3.2031 3.2031v25.594c0 1.758 1.4446 3.203 3.2031 3.203h25.594c1.758 0 3.203-1.445 3.203-3.203v-25.594c0-1.7584-1.445-3.203-3.203-3.203h-25.594zm0 1.875h25.594c0.75223 0 1.3281 0.5759 1.3281 1.3281v25.594c0 0.75223-0.5759 1.3281-1.3281 1.3281h-25.594c-0.7521 0-1.328-0.576-1.328-1.328v-25.594c0-0.7521 0.5759-1.328 1.3281-1.328z"/> <path d="m8.582 6.3426v0.69981 5.7384 1.3996 3.3591 1.3996 3.0792 1.3996 1.5396 0.69981h0.69981 13.436 0.69981v-0.69981-1.5396-1.3996-3.0792-1.3996-3.3591-1.3996-5.7384-0.69981h-0.69981-13.436-0.69981zm1.3996 1.3996h12.037v0.83977h-12.037v-0.83977zm0 2.2394h12.037v2.7992h-12.037v-2.7992zm0 4.1988h12.037v3.3591h-12.037v-3.3591zm0 4.7587h12.037v3.0792h-12.037v-3.0792zm0 4.4788h12.037v0.83977h-12.037v-0.83977z"/> </symbol><symbol viewBox="0 0 32 32" id="icon-task-script"> <path d="m3.2031 0c-1.7585 0-3.2031 1.4446-3.2031 3.2031v25.594c0 1.758 1.4446 3.203 3.2031 3.203h25.594c1.758 0 3.203-1.445 3.203-3.203v-25.594c0-1.7584-1.445-3.203-3.203-3.203h-25.594zm0 1.875h25.594c0.75223 0 1.3281 0.5759 1.3281 1.3281v25.594c0 0.75223-0.5759 1.3281-1.3281 1.3281h-25.594c-0.7521 0-1.328-0.576-1.328-1.328v-25.594c0-0.7521 0.5759-1.328 1.3281-1.328z"/> <path d="m11.607 12.521v0.99391h0.49695 6.4604 0.49695v-0.99391h-0.49695-6.4604-0.49695zm1.7393 8.9452v0.99391h0.49695 6.4604 0.49695v-0.99391h-0.49695-6.4604-0.49695zm0.99391-3.2302v0.99391h0.49695 6.4604 0.49695v-0.99391h-0.49695-6.4604-0.49695zm-1.2424-2.9817v0.99391h0.49695 6.4604 0.49695v-0.99391h-0.49695-6.4604-0.49695zm-1.7393-5.715v0.99391h0.49695 6.9574 0.49695v-0.99391h-0.49695-6.9574-0.49695zm0.63284-2.1121-0.13977 0.07765s-1.2624 0.68201-1.9917 2.0849c-0.72933 1.4029-0.82036 3.5694 1.2074 6.0955 0.98465 1.2266 1.4442 2.2285 1.5918 3.0283 0.1476 0.79981 0.0064 1.4131-0.29895 1.9762-0.6107 1.1262-1.9761 1.9789-2.974 2.776l-1.386 1.1065h1.7743 10.312 0.14753l0.132-0.06988s1.6876-0.83082 2.7721-2.4887c0.54222-0.82892 0.93736-1.8896 0.85026-3.1254-0.0871-1.2357-0.64859-2.6117-1.8869-4.0843-1.747-2.0776-1.6312-3.5388-1.188-4.5929 0.44321-1.0542 1.289-1.6539 1.289-1.6539l1.6267-1.1298h-1.9839-9.6906-0.16306zm0.35719 1.2424h8.0406c-0.22376 0.30131-0.44653 0.64446-0.62119 1.0599-0.59681 1.4195-0.58537 3.5343 1.3822 5.8742 1.1142 1.325 1.5341 2.4412 1.5996 3.37 0.06546 0.92876-0.22166 1.7023-0.65225 2.3605-0.80832 1.2357-2.0317 1.9104-2.1897 1.9956h-8.2929c0.68218-0.54256 1.3657-1.1819 1.8364-2.0499 0.41888-0.77245 0.62823-1.7225 0.43095-2.7915s-0.77647-2.2447-1.848-3.5796c-1.8163-2.2626-1.6048-3.7187-1.0716-4.7444 0.48169-0.92653 1.2302-1.3997 1.386-1.4947z"/> </symbol><symbol viewBox="0 0 32 32" id="icon-task-send"> <path d="m3.2031 0c-1.7585 0-3.2031 1.4446-3.2031 3.2031v25.594c0 1.758 1.4446 3.203 3.2031 3.203h25.594c1.758 0 3.203-1.445 3.203-3.203v-25.594c0-1.7584-1.445-3.203-3.203-3.203h-25.594zm0 1.875h25.594c0.75223 0 1.3281 0.5759 1.3281 1.3281v25.594c0 0.75223-0.5759 1.3281-1.3281 1.3281h-25.594c-0.7521 0-1.328-0.576-1.328-1.328v-25.594c0-0.7521 0.5759-1.328 1.3281-1.328z"/> <path d="m6.6515 11.733v10.422h18.697v-10.499l-9.3873 7.3185zm0.05172-1.8878h18.464l-9.2321 7.215z"/> </symbol><symbol viewBox="0 0 32 32" id="icon-task-service"> <path d="m3.2031 0c-1.7585 0-3.2031 1.4446-3.2031 3.2031v25.594c0 1.758 1.4446 3.203 3.2031 3.203h25.594c1.758 0 3.203-1.445 3.203-3.203v-25.594c0-1.7584-1.445-3.203-3.203-3.203h-25.594zm0 1.875h25.594c0.75223 0 1.3281 0.5759 1.3281 1.3281v25.594c0 0.75223-0.5759 1.3281-1.3281 1.3281h-25.594c-0.7521 0-1.328-0.576-1.328-1.328v-25.594c0-0.7521 0.5759-1.328 1.3281-1.328z"/> <path d="m11.706 6.1202v0.54229 2.4403c-0.0113 0.00472-0.02269 0.00882-0.0339 0.01356l-1.7287-1.7286-0.383-0.383-0.3829 0.383-1.8404 1.8404-0.383 0.3864 0.383 0.383 1.7251 1.7254c-0.00522 0.01217-0.00857 0.0251-0.013585 0.03728h-2.4403-0.54229v0.54229 2.603 0.54229h0.54229 2.4403c0.00472 0.0113 0.00882 0.02269 0.013585 0.03389l-1.7252 1.7252-0.38299 0.38638 0.38299 0.38299 1.8404 1.8404 0.38298 0.38299 0.38299-0.38299 1.9827-1.9827 0.38299-0.38299-0.76599-0.76938-0.38298 0.38299-1.5998 1.5997-1.0744-1.0744 1.5997-1.5964 0.28131-0.28131-0.18302-0.35588c-0.104-0.2-0.1912-0.403-0.2576-0.614l-0.12202-0.3796h-0.39654-2.2573v-1.5184h2.2573 0.39654l0.12202-0.3796c0.066409-0.2111 0.15373-0.41822 0.25759-0.61685l0.18302-0.35249-0.28131-0.2847-1.5997-1.5997 1.0744-1.071 1.5998 1.5998 0.2813 0.28131 0.35249-0.18641c0.19864-0.10387 0.40576-0.19117 0.61686-0.25759l0.3796-0.11862v-0.39655-2.2573h1.5184v2.2607 0.39655l0.3796 0.11863c0.21452 0.067315 0.42151 0.15226 0.61686 0.2542l0.35248 0.18641 0.28131-0.28131 1.5997-1.5998 1.0744 1.071-1.5997 1.5997-0.38299 0.38638 0.76597 0.76598 0.38299-0.38299 1.9827-1.9827 0.38299-0.38299-0.38299-0.38638-1.8404-1.8404-0.38299-0.38299-0.38298 0.38299-1.7286 1.7285c-0.0113-0.00472-0.02261-0.00894-0.03389-0.01356v-2.4403-0.54229h-0.54228-2.603-0.54229zm6.7447 10.107c-1.1928 0-2.1692 0.9763-2.1692 2.1691 0 1.1929 0.9763 2.1692 2.1692 2.1692s2.1692-0.97629 2.1692-2.1692-0.9763-2.1691-2.1692-2.1691zm0 0.86766c0.72393 0 1.3015 0.57756 1.3015 1.3015s-0.57756 1.3015-1.3015 1.3015c-0.72393 0-1.3015-0.57756-1.3015-1.3015 0-0.72393 0.57756-1.3015 1.3015-1.3015zm-1.8438-6.1821v0.54229 2.4403c-0.01217 0.0051-0.02512 0.0084-0.03728 0.01356l-1.7252-1.7252-0.38299-0.38299-0.38299 0.38299-1.8404 1.8404-0.38299 0.38299 0.38299 0.38299 1.7252 1.7251c-0.0052 0.01217-0.0086 0.02507-0.01358 0.03728h-2.4403-0.54228v0.54229 2.603 0.54229h0.54228 2.4403c0.0051 0.01217 0.0083 0.02511 0.01358 0.03729l-1.7252 1.7252-0.38299 0.38298 0.38299 0.38299 1.8404 1.8404 0.38299 0.38299 0.38299-0.38299 1.7285-1.7285c0.01167 0.0048 0.02221 0.01217 0.03389 0.01695v2.4403 0.54228h0.54229 2.603 0.54229v-0.54228-2.4403c0.01217-0.0051 0.02511-0.0083 0.03728-0.01358l1.7252 1.7252 0.38299 0.38299 0.38299-0.38299 1.8404-1.8404 0.38298-0.38299-0.38298-0.38298-1.7285-1.7285c0.005-0.01167 0.01217-0.02222 0.01695-0.03389h2.4403 0.54229v-0.54229-2.603-0.54229h-0.54229-2.4403c-0.0051-0.01217-0.0083-0.02511-0.01359-0.03728l1.7252-1.7251 0.38298-0.38299-0.38298-0.38299-1.8404-1.8404-0.38299-0.38299-0.38299 0.38299-1.7285 1.7285c-0.01167-0.0048-0.02222-0.01217-0.0339-0.01695v-2.4403-0.54229h-0.54229-2.603-0.54229zm1.0846 1.0846h1.5184v2.2607 0.39655l0.3796 0.12202c0.21452 0.06732 0.42151 0.15226 0.61686 0.2542l0.35249 0.18302 0.28131-0.28131 1.5997-1.5997 1.0744 1.0744-1.5997 1.5998-0.28131 0.28131 0.18302 0.35248c0.10381 0.19854 0.19119 0.4058 0.25759 0.61686l0.12202 0.3796h0.39655 2.2573v1.5184h-2.2607-0.39655l-0.12202 0.3796c-0.06732 0.21452-0.15226 0.42151-0.2542 0.61686l-0.18302 0.35247 0.28131 0.28132 1.5997 1.5997-1.0744 1.0744-1.5997-1.5997-0.28131-0.28131-0.35249 0.18302c-0.19854 0.10381-0.4058 0.19117-0.61686 0.25759l-0.3796 0.12202v0.39654 2.2573h-1.5184v-2.2607-0.39654l-0.3796-0.12202c-0.216-0.07-0.423-0.155-0.618-0.257l-0.35249-0.18302-0.28131 0.28131-1.5997 1.5997-1.0744-1.0744 1.5997-1.5997 0.28131-0.28132-0.18302-0.35248c-0.10381-0.19854-0.19119-0.4058-0.25759-0.61686l-0.12202-0.3796h-0.39655-2.2573v-1.5184h2.2573 0.39655l0.12202-0.3796c0.06641-0.2111 0.15371-0.41822 0.25759-0.61686l0.18302-0.35248-0.28131-0.28131-1.5997-1.5998 1.0744-1.0744 1.5997 1.5998 0.28131 0.28131 0.35249-0.18302c0.19862-0.10386 0.40576-0.19117 0.61684-0.25759l0.3796-0.12202v-0.39655-2.2573z"/> </symbol><symbol viewBox="0 0 32 32" id="icon-task-user"> <path d="m3.2031 0c-1.7585 0-3.2031 1.4446-3.2031 3.2031v25.594c0 1.758 1.4446 3.203 3.2031 3.203h25.594c1.758 0 3.203-1.445 3.203-3.203v-25.594c0-1.7584-1.445-3.203-3.203-3.203h-25.594zm0 1.875h25.594c0.75223 0 1.3281 0.5759 1.3281 1.3281v25.594c0 0.75223-0.5759 1.3281-1.3281 1.3281h-25.594c-0.7521 0-1.328-0.576-1.328-1.328v-25.594c0-0.7521 0.5759-1.328 1.3281-1.328z"/> <path d="m16 7.2811c-2.741 0-4.9774 2.2364-4.9774 4.9774 0 1.763 0.92674 3.3192 2.3163 4.2039-1.1639 0.5049-2.1908 1.3058-3.0226 2.2365-1.4214 1.591-2.316 3.563-2.316 5.347v0.67262h0.67262 14.655 0.67262v-0.67262c0-1.784-0.89466-3.7567-2.3163-5.3474-0.83178-0.93062-1.8587-1.7316-3.0226-2.2365 1.3896-0.88468 2.3163-2.4409 2.3163-4.2039 0-2.741-2.2364-4.9774-4.9774-4.9774zm0 1.3452c2.014 0 3.6322 1.6182 3.6322 3.6322s-1.6182 3.6322-3.6322 3.6322-3.6322-1.6182-3.6322-3.6322 1.6182-3.6322 3.6322-3.6322zm0 8.6138c1.7808 0 3.4521 0.97681 4.6831 2.3542 1.0342 1.1571 1.693 2.5754 1.8875 3.7793h-2.5265v-1.257-0.67262h-0.0083c-0.0013-0.3543-0.32622-0.67705-0.68103-0.67262-0.35218 0.0044-0.66861 0.32885-0.66422 0.68103v1.9212h-5.3726v-1.2612-0.67262h-0.0083c-0.0038-0.35254-0.3277-0.67283-0.68103-0.66842-0.35218 0.0044-0.66861 0.32885-0.66422 0.68103v1.9212h-2.5349c0.19454-1.2039 0.85337-2.6222 1.8875-3.7793 1.231-1.3774 2.9023-2.3542 4.6831-2.3542z"/> </symbol><symbol viewBox="0 0 32 32" id="icon-textannotation"> <g transform="matrix(.12511 0 0 .12511 .11676 -99.667)"> <path d="m248.58 837.33-11.382 124.65c-0.58947 5.82-0.88415 9.6509-0.88404 11.493-0.00011 2.9468 0.55242 5.1938 1.6576 6.7408 1.3996 2.1365 3.2782 3.7204 5.6358 4.7518 2.431 1.0314 6.4829 1.5471 12.156 1.5471l-1.2156 4.0887h-59.01l1.2156-4.0887h2.5416c4.7885 0.00001 8.693-1.0314 11.714-3.0942 2.1364-1.3997 3.794-3.7204 4.9728-6.9619 0.81029-2.2838 1.5838-7.6617 2.3206-16.134l1.7681-19.007h-42.876l-15.25 20.665c-3.4625 4.6413-5.6358 7.9933-6.5198 10.056-0.88407 1.9891-1.3261 3.8677-1.3261 5.6358-0.00002 2.3575 0.95769 4.3834 2.8732 6.0778 1.9154 1.6944 5.0832 2.6153 9.5035 2.7626l-1.2156 4.0887h-44.313l1.2156-4.0887c5.4516-0.221 10.24-2.0259 14.366-5.4148 4.1992-3.4625 10.424-10.793 18.675-21.991l89.51-121.78h3.8677m-21.88 36.798-43.429 59.121h37.682l5.7463-59.121m-226.7-77.74v10 236 10h10 94v-20h-84v-216h84v-20h-94-10z"/> </g> </symbol></svg>