<?xml version="1.0" encoding="UTF-8" standalone="no"?>
<svg xmlns:rdf="http://www.w3.org/1999/02/22-rdf-syntax-ns#" xmlns="http://www.w3.org/2000/svg" height="32" width="32" version="1.1" xmlns:cc="http://creativecommons.org/ns#" xmlns:dc="http://purl.org/dc/elements/1.1/">
 <path style="color:#000000;text-indent:0;block-progression:tb;text-decoration-line:none;text-transform:none" d="m2.8376 0c-1.5465 0-2.8376 1.2911-2.8376 2.8376v26.324c0 1.547 1.2911 2.838 2.8376 2.838h26.324c1.547 0 2.838-1.291 2.838-2.838v-26.324c0-1.5469-1.291-2.838-2.838-2.838h-26.324zm0.11439 2.952h26.096v26.096h-26.096v-26.096z"/>
 <path style="color:#000000;text-indent:0;block-progression:tb;text-decoration-line:none;text-transform:none" d="m15.324 19.592v6.4865h1.3514v-6.4865h-1.3514zm-2.5676 2.5676v1.3514h6.4865v-1.3514h-6.4865zm-1.756-4.325v0.67567 8.6486 0.67568h0.67568 8.6486 0.67568v-0.67568-8.6486-0.67567h-0.67568-8.6486-0.67568zm1.3514 1.3514h7.2973v7.2973h-7.2973v-7.2973z"/>
</svg>
