<?xml version="1.0" encoding="UTF-8" standalone="no"?>
<svg xmlns:rdf="http://www.w3.org/1999/02/22-rdf-syntax-ns#" xmlns="http://www.w3.org/2000/svg" height="32" width="32" version="1.1" xmlns:cc="http://creativecommons.org/ns#" xmlns:dc="http://purl.org/dc/elements/1.1/">
 <path style="color:#000000;text-indent:0;block-progression:tb;text-decoration-line:none;text-transform:none" d="m2.8376 0c-1.5465 0-2.8376 1.2911-2.8376 2.8376v26.324c0 1.547 1.2911 2.838 2.8376 2.838h26.324c1.547 0 2.838-1.291 2.838-2.838v-26.324c0-1.5469-1.291-2.838-2.838-2.838h-26.324zm0.11439 2.952h26.096v26.096h-26.096v-26.096z"/>
 <path style="color:#000000;text-indent:0;block-progression:tb;text-decoration-line:none;text-transform:none" d="m8.309 5.9872v0.72557 5.9496 1.4511 3.4827 1.4511 3.1925 1.4511 1.5962 0.72556h0.72557 13.931 0.72557v-0.72556-1.5962-1.4511-3.1925-1.4511-3.4827-1.4511-5.9496-0.72557h-0.72557-13.931-0.72557zm1.4511 1.4511h12.48v0.87068h-12.48v-0.87068zm0 2.3218h12.48v2.9022h-12.48v-2.9022zm0 4.3534h12.48v3.4827h-12.48v-3.4827zm0 4.9338h12.48v3.1925h-12.48v-3.1925zm0 4.6436h12.48v0.87067h-12.48v-0.87067z"/>
</svg>
