<?xml version="1.0" encoding="UTF-8" standalone="no"?>
<svg xmlns:rdf="http://www.w3.org/1999/02/22-rdf-syntax-ns#" xmlns="http://www.w3.org/2000/svg" height="32" width="32" version="1.1" xmlns:cc="http://creativecommons.org/ns#" xmlns:dc="http://purl.org/dc/elements/1.1/">
 <path style="color:#000000;text-indent:0;block-progression:tb;text-decoration-line:none;text-transform:none" d="m2.8376 0c-1.5465 0-2.8376 1.2911-2.8376 2.8376v26.324c0 1.547 1.2911 2.838 2.8376 2.838h26.324c1.547 0 2.838-1.291 2.838-2.838v-26.324c0-1.5469-1.291-2.838-2.838-2.838h-26.324zm0.11439 2.952h26.096v26.096h-26.096v-26.096z"/>
 <path style="color:#000000;text-indent:0;block-progression:tb;text-decoration-line:none;text-transform:none" d="m10.855 11.926v1.1639h0.58197 7.5656 0.58197v-1.1639h-0.58197-7.5656-0.58197zm2.0369 10.475v1.1639h0.58197 7.5656 0.58197v-1.1639h-0.58197-7.5656-0.58197zm1.1639-3.7828v1.1639h0.58197 7.5656 0.58197v-1.1639h-0.58197-7.5656-0.58197zm-1.4549-3.4918v1.1639h0.58197 7.5656 0.58197v-1.1639h-0.58197-7.5656-0.58197zm-2.0369-6.6927v1.1639h0.58197 8.1476 0.58197v-1.1639h-0.58197-8.1476-0.58197zm0.7411-2.4734-0.16367 0.0909s-1.4783 0.79868-2.3324 2.4415c-0.8541 1.6429-0.9607 4.18 1.414 7.1382 1.1531 1.4364 1.6913 2.6097 1.8641 3.5464 0.17284 0.93665 0.008 1.6548-0.3501 2.3143-0.71518 1.3188-2.3142 2.3174-3.4827 3.2508l-1.6231 1.2958h2.0778 12.076 0.17277l0.15459-0.08184s1.9763-0.97297 3.2463-2.9144c0.63499-0.97071 1.0977-2.2129 0.99572-3.66-0.102-1.4472-0.75956-3.0585-2.2097-4.7831-2.0458-2.433-1.9103-4.1442-1.3913-5.3787 0.51903-1.2345 1.5095-1.9369 1.5095-1.9369l1.905-1.3231h-2.3233-11.348-0.19096zm0.4183 1.4549h9.4161c-0.26203 0.35285-0.52292 0.75471-0.72746 1.2412-0.69892 1.6624-0.68551 4.1389 1.6186 6.8791 1.3048 1.5517 1.7966 2.8588 1.8732 3.9465 0.0767 1.0876-0.25958 1.9935-0.76384 2.7644-0.9466 1.4471-2.3792 2.2373-2.5643 2.337h-9.7116c0.79889-0.63538 1.5993-1.3841 2.1506-2.4006 0.49054-0.9046 0.7357-2.0172 0.50467-3.269s-0.9093-2.6287-2.1642-4.192c-2.127-2.6497-1.8793-4.3549-1.2549-5.556 0.56409-1.085 1.4406-1.6392 1.6232-1.7504z"/>
</svg>
