<?xml version="1.0" encoding="UTF-8" standalone="no"?>
<svg xmlns:rdf="http://www.w3.org/1999/02/22-rdf-syntax-ns#" xmlns="http://www.w3.org/2000/svg" height="32" width="32" version="1.1" xmlns:cc="http://creativecommons.org/ns#" xmlns:dc="http://purl.org/dc/elements/1.1/">
 <path style="color:#000000;text-indent:0;block-progression:tb;text-decoration-line:none;text-transform:none" d="m2.8376 0c-1.5465 0-2.8376 1.2911-2.8376 2.8376v26.324c0 1.547 1.2911 2.838 2.8376 2.838h26.324c1.547 0 2.838-1.291 2.838-2.838v-26.324c0-1.5469-1.291-2.838-2.838-2.838h-26.324zm0.11439 2.952h26.096v26.096h-26.096v-26.096z"/>
 <path style="color:#000000;text-indent:0;block-progression:tb;text-decoration-line:none;text-transform:none" d="m18.992 22.033v0.74557 2.1202 0.74557h1.4911v-0.74557-2.1202-0.74557h-1.4911zm-7.4557-0.0019v0.74557 2.1249 0.74557h1.4911v-0.74557-2.1249-0.74557h-1.4911zm4.4641-6.149c-2.513 0-4.7242 1.3449-6.3 3.1081-1.5759 1.7631-2.5676 3.9498-2.5676 5.9273v0.74557h0.74556 16.244 0.74556v-0.74557c0-1.9775-0.99168-4.1641-2.5675-5.9273-1.5759-1.7632-3.7871-3.1081-6.3-3.1081zm0 1.4911c1.9739 0 3.8264 1.0827 5.191 2.6095 1.1463 1.2826 1.8766 2.8547 2.0922 4.1892h-14.567c0.21564-1.3345 0.94594-2.9066 2.0923-4.1892 1.3645-1.5267 3.217-2.6095 5.191-2.6095zm0-11.036c-3.0382 0-5.5172 2.479-5.5172 5.5172s2.4789 5.5172 5.5172 5.5172c3.0382 0 5.5172-2.479 5.5172-5.5172s-2.479-5.5172-5.5172-5.5172zm0 1.4911c2.2324 0 4.0261 1.7937 4.0261 4.0261s-1.7937 4.0261-4.0261 4.0261-4.0261-1.7937-4.0261-4.0261 1.7937-4.0261 4.0261-4.0261z"/>
</svg>
