<?xml version="1.0" encoding="UTF-8" standalone="no"?>
<svg xmlns:rdf="http://www.w3.org/1999/02/22-rdf-syntax-ns#" xmlns="http://www.w3.org/2000/svg" height="32" width="32" version="1.1" xmlns:cc="http://creativecommons.org/ns#" xmlns:dc="http://purl.org/dc/elements/1.1/">
 <path style="color:#000000;text-indent:0;block-progression:tb;text-decoration-line:none;text-transform:none" d="m2.8376 0c-1.5465 0-2.8376 1.2911-2.8376 2.8376v26.324c0 1.547 1.2911 2.838 2.8376 2.838h26.324c1.547 0 2.838-1.291 2.838-2.838v-26.324c0-1.5469-1.291-2.838-2.838-2.838h-26.324zm0.11439 2.952h26.096v26.096h-26.096v-26.096z"/>
 <path style="color:#000000;text-indent:0;block-progression:tb;text-decoration-line:none;text-transform:none" d="m11.399 8.8319c-0.54923 0-1.1803 0.20521-1.8703 0.47621-0.3447 0.1355-0.6823 0.2902-0.979 0.4647-0.2967 0.1746-0.5616 0.3382-0.7604 0.6602-0.82869 1.3417-1.1022 3.647-1.1022 5.895 0 1.124 0.085943 2.2214 0.26499 3.1491 0.17906 0.9277 0.40005 1.6903 0.9332 2.2082 0.40843 0.39672 1.0063 0.67311 1.6706 0.95626 0.66423 0.28315 1.2551 0.52613 1.8434 0.52613h4.4318 3.6637c1.0145 0 1.7704-0.90682 1.7704-1.924 0-0.29955-0.07286-0.58511-0.19201-0.84488a0.61452 0.61452 0 0 0 0.12289 -0.14593c0.51071-0.34768 0.84104-0.96499 0.84104-1.6322 0-0.32179-0.08327-0.62782-0.21891-0.90248 0.59476-0.3224 0.99083-0.98686 0.99083-1.7166 0-0.24333-0.04699-0.47904-0.12674-0.69895h0.67206 0.06145 0.12673c1.0145 0 1.7704-0.90683 1.7704-1.924s-0.7559-1.924-1.7704-1.924h-4.716c0.07977-0.21992 0.1267-0.45561 0.12673-0.69895 0-1.0172-0.75973-1.924-1.7743-1.924h-1.348-4.4318zm0 1.2289h4.4318 1.348c0.26706 0 0.54531 0.25988 0.54535 0.69511 0 0.43522-0.27832 0.69895-0.54535 0.69895v0.61446 0.61446h6.3635c0.26702 0 0.54146 0.25988 0.5415 0.6951 0 0.43522-0.27448 0.69511-0.5415 0.69511h-0.18818-5.7874-0.60677a0.61452 0.61452 0 0 0 -0.0077 0 0.61452 0.61452 0 0 0 -0.0538 0 0.61523 0.61523 0 0 0 0.0538 1.2289h0.61446 3.4679c0.26705 0 0.5453 0.26372 0.54534 0.69895 0 0.43522-0.27832 0.6951-0.54534 0.6951h-0.37252-3.0953-0.61446a0.61452 0.61452 0 1 0 0 1.2289 0.61452 0.61452 0 0 0 0.0077 0h0.60677 2.6998c0.26705 0 0.54149 0.25987 0.54149 0.6951 0 0.4164-0.25134 0.67345-0.50692 0.69511h-3.3411a0.61452 0.61452 0 1 0 -0.0077 1.2289v0.0038h0.61446 1.9279c0.26702 0 0.54149 0.25989 0.54149 0.6951 0 0.43524-0.27447 0.69511-0.54149 0.69511h-3.6637-4.4318c-0.05242 0-0.76337-0.17215-1.3595-0.42629-0.5964-0.254-1.2202-0.635-1.2983-0.711-0.1415-0.137-0.4254-0.739-0.5837-1.559s-0.242-1.854-0.242-2.915c0-2.1215 0.40099-4.4067 0.92169-5.2498-0.015153 0.02449 0.11815-0.12258 0.33411-0.24962s0.50643-0.26235 0.80648-0.38019c0.60011-0.2357 1.3294-0.38788 1.4209-0.38788z"/>
</svg>
