<?xml version="1.0" encoding="UTF-8" standalone="no"?>
<svg xmlns:rdf="http://www.w3.org/1999/02/22-rdf-syntax-ns#" xmlns="http://www.w3.org/2000/svg" height="256" width="256" version="1.1" xmlns:cc="http://creativecommons.org/ns#" xmlns:dc="http://purl.org/dc/elements/1.1/">
 <path style="block-progression:tb;text-indent:0;color:#000000;text-transform:none" d="m22.701 0c-12.372 0-22.701 10.329-22.701 22.701v210.6c0 12.37 10.329 22.7 22.701 22.7h210.6c12.37 0 22.7-10.33 22.7-22.7v-210.6c0-12.371-10.33-22.7-22.7-22.7h-210.6zm0.91513 23.616h208.77v208.77h-208.77v-208.77z"/>
 <path style="block-progression:tb;text-indent:0;color:#000000;text-transform:none" d="m90.562 69.672c-4.4692 0-9.604 1.6698-15.219 3.875-2.8071 1.1026-5.5545 2.3611-7.9687 3.7812s-4.5694 2.7552-6.1875 5.375c-6.7432 10.918-8.9687 29.676-8.9688 47.969 0 9.1463 0.6993 18.076 2.1563 25.625 1.457 7.5489 3.2553 13.754 7.5937 17.969 3.3235 3.2282 8.1888 5.4773 13.594 7.7812 5.405 2.3041 10.213 4.2812 15 4.2812h36.062 29.812c8.2554 0 14.406-7.379 14.406-15.656 0-2.4375-0.5929-4.7611-1.5624-6.875a5.0005 5.0005 0 0 0 1 -1.1875c4.1558-2.8291 6.8437-7.8523 6.8437-13.281 0-2.6185-0.6776-5.1087-1.7813-7.3438 4.8397-2.6235 8.0626-8.0303 8.0626-13.969 0-1.9801-0.3822-3.898-1.0313-5.6875h5.4687 0.5 1.0313c8.2554 0 14.406-7.3791 14.406-15.656 0-8.2771-6.1509-15.656-14.406-15.656h-38.375c0.6491-1.7895 1.031-3.7074 1.0313-5.6875 0-8.2771-6.1821-15.656-14.438-15.656h-10.969-36.062zm0 10h36.062 10.969c2.1731 0 4.4373 2.1147 4.4376 5.6562 0 3.5415-2.2647 5.6875-4.4376 5.6875v5 5h51.781c2.1728 0 4.406 2.1147 4.4063 5.6562 0 3.5415-2.2335 5.6562-4.4063 5.6562h-1.5313-47.094-4.9375a5.0005 5.0005 0 0 0 -0.062 0 5.0005 5.0005 0 0 0 -0.4375 0 5.0062 5.0062 0 0 0 0.4375 10h5 28.219c2.1731 0 4.4373 2.146 4.4376 5.6875 0 3.5415-2.2647 5.6562-4.4376 5.6562h-3.0312-25.188-5a5.0005 5.0005 0 1 0 0 10 5.0005 5.0005 0 0 0 0.062 0h4.9375 21.969c2.1731 0 4.4063 2.1146 4.4063 5.6562 0 3.3884-2.0452 5.48-4.125 5.6562h-27.188a5.0005 5.0005 0 1 0 -0.062 10v0.0312h5 15.688c2.1728 0 4.4062 2.1148 4.4062 5.6562 0 3.5416-2.2334 5.6562-4.4062 5.6562h-29.812-36.062c-0.4268 0-6.2117-1.4008-11.062-3.4688-4.8508-2.0678-9.9268-5.1637-10.562-5.7812-1.1518-1.1189-3.4619-6.0141-4.75-12.688-1.2881-6.6734-1.9687-15.087-1.9688-23.719 0-17.263 3.2629-35.859 7.5-42.719-0.123 0.19921 0.9615-0.99751 2.7188-2.0312s4.1209-2.1348 6.5625-3.0938c4.8832-1.9179 10.818-3.1562 11.562-3.1562z"/>
</svg>
