<?xml version="1.0" encoding="UTF-8" standalone="no"?>
<svg xmlns:rdf="http://www.w3.org/1999/02/22-rdf-syntax-ns#" xmlns="http://www.w3.org/2000/svg" height="32" width="32" version="1.1" xmlns:cc="http://creativecommons.org/ns#" xmlns:dc="http://purl.org/dc/elements/1.1/">
 <path style="color:#000000;text-indent:0;block-progression:tb;text-decoration-line:none;text-transform:none" d="m16.419 14.815v1.3045 3.581h-6.8551-0.51158v0.51158 3.2741 0.51158h0.51158 6.8551v3.581 1.3013l0.88566-0.95601 5.3204-5.7297 0.32294-0.34532-0.32294-0.34851-5.3204-5.7297-0.88566-0.95601zm1.0232 2.6026 4.1118 4.4315-4.1118 4.4283v-2.7913-0.51157h-0.51158-6.8551v-2.2509h6.8551 0.51158v-0.51158-2.7945z"/>
 <path style="color:#000000;text-indent:0;block-progression:tb;text-decoration-line:none;text-transform:none" d="m3.0517 0v0.9375 30.125 0.9375h0.9375 24.016 0.9375v-0.9375-19.957a0.93759 0.93759 0 0 0 0 -0.21094v-0.19531l-0.07422-0.07422a0.93759 0.93759 0 0 0 -0.47656 -0.47656l-9.75-9.8711-0.277-0.2759h-0.39-13.985-0.9373zm1.875 1.875h12.133v9.125 0.9375h0.9375 9.0703v18.188h-22.141v-28.25zm14.008 1.3633 6.7422 6.8242h-6.7422v-6.8242z"/>
</svg>
