<?xml version="1.0" encoding="UTF-8" standalone="no"?>
<svg xmlns:rdf="http://www.w3.org/1999/02/22-rdf-syntax-ns#" xmlns="http://www.w3.org/2000/svg" height="32" width="32" version="1.1" xmlns:cc="http://creativecommons.org/ns#" xmlns:dc="http://purl.org/dc/elements/1.1/">
 <path style="color:#000000;text-indent:0;block-progression:tb;text-decoration-line:none;text-transform:none" d="m31.044 4.5408a0.93762 0.92753 0 0 0 -0.9219 0.94289v22.351a0.93762 0.92753 0 1 0 1.875 0v-22.351a0.93762 0.92753 0 0 0 -0.953 -0.9432zm-30.114 0.0581a0.93762 0.93432 0 0 0 -0.9219 0.9498v22.546a0.93762 0.93432 0 1 0 1.875 0v-22.546a0.93762 0.93432 0 0 0 -0.95315 -0.9501zm0.47105 22.679c0.00937 0.01646 0.044512 0.09685 0.070775 0.29214l-1.4715 0.507c0.1081 0.80388 0.4502 1.1397 0.75622 1.407 0.30604 0.26731 0.66182 0.46926 1.0915 0.66176 0.85937 0.38502 2.0102 0.70541 3.4086 0.97775 2.7969 0.54464 6.5739 0.87638 10.732 0.87638 4.2389 0 8.0735-0.34448 10.881-0.9062 1.404-0.28086 2.5465-0.60859 3.39-1.0076 0.42176-0.19948 0.76882-0.40989 1.0692-0.7035 0.30034-0.2936 0.67055-0.7786 0.67055-1.6395h-1.505c0-0.43945 0.15834-0.51518 0.05215-0.41136-0.10619 0.10381-0.36115 0.28142-0.71152 0.44714-0.70075 0.33142-1.7943 0.65852-3.1516 0.93002-2.7146 0.54305-6.507 0.88235-10.695 0.88235-4.1087 0-7.8464-0.32531-10.554-0.85252-1.3536-0.26361-2.4517-0.58525-3.1814-0.91218-0.36484-0.16345-0.63989-0.33192-0.77859-0.45309-0.06935-0.06059-0.083925-0.11186-0.0745-0.09539zm14.595-27.278c-4.257 0-8.1078 0.48022-10.923 1.2716-1.4078 0.3956-2.5526 0.8671-3.3892 1.4231-0.4183 0.278-0.75829 0.5664-1.0448 0.96-0.28649 0.3936-0.61789 1.0174-0.61789 2.0884s0.3314 1.6948 0.6179 2.0884c0.2865 0.39355 0.6265 0.682 1.0448 0.95999 0.83661 0.55598 1.9814 1.0275 3.3891 1.4231 2.8153 0.79134 6.6664 1.2716 10.924 1.2716 4.2572 0 8.1083-0.48022 10.924-1.2716 1.4076-0.39567 2.5524-0.86716 3.3891-1.4231 0.4183-0.27799 0.75829-0.56643 1.0448-0.95999 0.2865-0.39355 0.61789-1.0174 0.61789-2.0884s-0.33139-1.6948-0.61789-2.0884c-0.288-0.3936-0.628-0.682-1.046-0.96-0.836-0.556-1.981-1.0275-3.389-1.4231-2.815-0.79137-6.666-1.2716-10.924-1.2716zm0 2.6092c3.561 0.1919 11.481 0.6624 13.794 3.1339-3.087 2.7248-10.644 2.8662-13.794 2.88-3.786-0.2279-11.187-0.34-13.794-2.88 3.423-2.7134 10.375-3.119 13.794-3.1339z"/>
</svg>
