<?xml version="1.0" encoding="UTF-8" standalone="no"?>
<svg xmlns:rdf="http://www.w3.org/1999/02/22-rdf-syntax-ns#" xmlns="http://www.w3.org/2000/svg" height="32" width="32" version="1.1" xmlns:cc="http://creativecommons.org/ns#" xmlns:dc="http://purl.org/dc/elements/1.1/">
 <path style="color:#000000;text-indent:0;block-progression:tb;text-decoration-line:none;text-transform:none" d="m16 0.00001125c-8.8138 0-16 7.1862-16 16 0 8.814 7.1862 16 16 16s16-7.1862 16-16-7.186-16-16-16zm0 3.7517c6.7873 0 12.248 5.461 12.248 12.248 0 6.7873-5.461 12.248-12.248 12.248-6.7873 0-12.248-5.461-12.248-12.248 0-6.7873 5.461-12.248 12.248-12.248z"/>
 <path style="color:#000000;text-indent:0;block-progression:tb;text-decoration-line:none;text-transform:none" d="m20.027 8.4503-0.42 0.4194-3.607 3.6073-3.607-3.6073l-0.41943-0.41943-0.41943 0.41943-2.6843 2.6843-0.41943 0.41943 0.41943 0.41943 3.6071 3.6071-3.6071 3.6071-0.41943 0.41943 0.41943 0.41943 2.6843 2.6843 0.41943 0.41943 0.41943-0.41943 3.607-3.606 3.6071 3.6071 0.41943 0.41943 0.41943-0.41943 2.6843-2.6843 0.41943-0.41943-0.41943-0.41943-3.6071-3.6071 3.6071-3.6071 0.41943-0.41943-0.41943-0.41943-2.6843-2.6843z"/>
</svg>
