<?xml version="1.0" encoding="UTF-8" standalone="no"?>
<svg xmlns:rdf="http://www.w3.org/1999/02/22-rdf-syntax-ns#" xmlns="http://www.w3.org/2000/svg" height="32" width="32" version="1.1" xmlns:cc="http://creativecommons.org/ns#" xmlns:dc="http://purl.org/dc/elements/1.1/">
 <path style="color:#000000;text-indent:0;block-progression:tb;text-decoration-line:none;text-transform:none" d="m16 0.00001125c-8.8138 0-16 7.1862-16 16 0 8.814 7.1862 16 16 16s16-7.1862 16-16-7.186-16-16-16zm0 3.7517c6.7873 0 12.248 5.461 12.248 12.248 0 6.7873-5.461 12.248-12.248 12.248-6.7873 0-12.248-5.461-12.248-12.248 0-6.7873 5.461-12.248 12.248-12.248z"/>
 <path style="color:#000000;text-indent:0;block-progression:tb;text-decoration-line:none;text-transform:none" d="m15.444 10.504c-2.844 1.8328-5.6904 3.6618-8.5324 5.4976 2.8463 1.8279 5.688 3.6632 8.5324 5.494v-5.3118c3.0127 1.9454 5.5256 3.5544 8.2446 5.3118v-10.992c-2.945 1.9049-5.6519 3.6365-8.2446 5.3118v-5.3118z"/>
</svg>
