<?xml version="1.0" encoding="UTF-8" standalone="no"?>
<svg xmlns:rdf="http://www.w3.org/1999/02/22-rdf-syntax-ns#" xmlns="http://www.w3.org/2000/svg" height="32" width="32" version="1.1" xmlns:cc="http://creativecommons.org/ns#" xmlns:dc="http://purl.org/dc/elements/1.1/">
 <path style="color:#000000;text-indent:0;block-progression:tb;text-decoration-line:none;text-transform:none" d="m16 0.00000875c-8.8138 0-16 7.1862-16 16 0 8.814 7.1862 16 16 16s16-7.1862 16-16-7.186-16-16-16zm0 3.7517c6.7873 0 12.248 5.461 12.248 12.248 0 6.7873-5.461 12.248-12.248 12.248-6.7873 0-12.248-5.461-12.248-12.248-0.0003-6.7873 5.4607-12.248 12.248-12.248z"/>
 <path d="m7.3467 12.05v9.6467h17.307v-9.7185l-8.6892 6.7742zm0.047895-1.7474h17.091l-8.5456 6.6785z"/>
</svg>
