<?xml version="1.0" encoding="UTF-8" standalone="no"?>
<svg xmlns:rdf="http://www.w3.org/1999/02/22-rdf-syntax-ns#" xmlns="http://www.w3.org/2000/svg" height="32" width="32" version="1.1" xmlns:cc="http://creativecommons.org/ns#" xmlns:dc="http://purl.org/dc/elements/1.1/">
 <path style="color:#000000;text-indent:0;block-progression:tb;text-decoration-line:none;text-transform:none" d="m16 0.00001125c-8.8138 0-16 7.1862-16 16 0 8.814 7.1862 16 16 16s16-7.1862 16-16-7.186-16-16-16zm0 3.7517c6.7873 0 12.248 5.461 12.248 12.248 0 6.7873-5.461 12.248-12.248 12.248-6.7873 0-12.248-5.461-12.248-12.248 0-6.7873 5.461-12.248 12.248-12.248z"/>
 <path style="color:#000000;text-indent:0;block-progression:tb;text-decoration-line:none;text-transform:none" d="m22.778 8.583c-0.19517 0.00933-0.38282 0.11933-0.4864 0.28501l-4.382 7.011-4.336-6.0686c-0.131-0.183-0.37-0.2822-0.592-0.2461s-0.417 0.2059-0.483 0.4209l-3.8915 12.647c-0.083001 0.27279 0.05653 0.59561 0.31212 0.72204 0.25557 0.12644 0.59684 0.04148 0.76331-0.19003l4.3701-6.1181 4.3701 6.1181c0.13214 0.18484 0.37413 0.28421 0.59804 0.24558s0.41862-0.21335 0.48119-0.43178l3.892-13.62c0.053-0.1851 0.011-0.3949-0.109-0.5459-0.119-0.1509-0.314-0.239-0.507-0.2291z"/>
</svg>
