<?xml version="1.0" encoding="UTF-8" standalone="no"?>
<svg xmlns:rdf="http://www.w3.org/1999/02/22-rdf-syntax-ns#" xmlns="http://www.w3.org/2000/svg" height="32" width="32" version="1.1" xmlns:cc="http://creativecommons.org/ns#" xmlns:dc="http://purl.org/dc/elements/1.1/">
 <path style="color:#000000;text-indent:0;block-progression:tb;text-decoration-line:none;text-transform:none" d="m16 0.00000875c-8.8138 0-16 7.1862-16 16 0 8.814 7.1862 16 16 16s16-7.1862 16-16-7.186-16-16-16zm0 3.7517c6.7873 0 12.248 5.461 12.248 12.248 0 6.7873-5.461 12.248-12.248 12.248-6.7873 0-12.248-5.461-12.248-12.248-0.0003-6.7873 5.4607-12.248 12.248-12.248z"/>
 <path style="color:#000000;text-indent:0;block-progression:tb;text-decoration-line:none;text-transform:none" d="m16 6.395-0.38797 0.28066-8.4526 6.1042-0.38384 0.27653 0.14032 0.45812 3.1698 10 0.14858 0.45813h0.48289 10.566 0.48288l0.14858-0.45813 3.1698-10 0.14032-0.45812-0.38383-0.27653-8.4526-6.1042z"/>
</svg>
