<?xml version="1.0" encoding="UTF-8" standalone="no"?>
<svg xmlns:rdf="http://www.w3.org/1999/02/22-rdf-syntax-ns#" xmlns="http://www.w3.org/2000/svg" height="32" width="32" version="1.1" xmlns:cc="http://creativecommons.org/ns#" xmlns:dc="http://purl.org/dc/elements/1.1/">
 <path style="color:#000000;text-indent:0;block-progression:tb;text-decoration-line:none;text-transform:none" d="m4.6223 11.378c-2.5417 0-4.6223 2.08-4.6223 4.622 0 2.5417 2.0806 4.6223 4.6223 4.6223s4.6223-2.0806 4.6223-4.6223-2.0806-4.6223-4.6223-4.6223zm0 1.9176c1.5049 0 2.7047 1.1998 2.7047 2.7047s-1.1998 2.7047-2.7047 2.7047-2.7047-1.1998-2.7047-2.7047 1.1998-2.7047 2.7047-2.7047zm18.529-2.4112v3.8369h-1.6467v2.5579h1.6467v3.8369l8.849-5.117-8.849-5.116zm1.8025 2.8337l3.969 2.281-3.9688 2.3301v-4.6122zm-16.503 1.0032v2.5579h2.8217v-2.5579h-2.8217zm4.868 0v2.5579h2.0463v-2.5579h-2.0463zm4.0927 0v2.5579h2.0463v-2.5579h-2.0463z"/>
</svg>
