<?xml version="1.0" encoding="UTF-8" standalone="no"?>
<svg xmlns:rdf="http://www.w3.org/1999/02/22-rdf-syntax-ns#" xmlns="http://www.w3.org/2000/svg" height="32" width="32" version="1.1" xmlns:cc="http://creativecommons.org/ns#" xmlns:dc="http://purl.org/dc/elements/1.1/">
 <path style="color:#000000;text-indent:0;block-progression:tb;text-decoration-line:none;text-transform:none" d="m16 0.0000075-0.647 0.64723-14.706 14.706-0.647 0.647 0.64722 0.647 14.706 14.706 0.647 0.647 0.647-0.647 14.706-14.706 0.647-0.647-0.647-0.647-14.706-14.706-0.647-0.64699zm0 2.5889l13.411 13.411-13.411 13.411-13.411-13.411 13.411-13.411z"/>
 <path style="color:#000000;text-indent:0;block-progression:tb;text-decoration-line:none;text-transform:none" d="m8.3079 14.98-0.00308 2.0406h15.387l0.0031-2.0406h-15.387zm6.6718-6.6718v15.387l2.0406-0.003v-15.387l-2.0406 0.00308zm-3.698 1.5312-1.4447 1.4406 10.881 10.881 1.445-1.441-10.881-10.881zm9.4354 0l-10.88 10.881 1.445 1.441 10.881-10.881-1.445-1.4406z"/>
</svg>
