<?xml version="1.0" encoding="UTF-8" standalone="no"?>
<svg xmlns:rdf="http://www.w3.org/1999/02/22-rdf-syntax-ns#" xmlns="http://www.w3.org/2000/svg" height="32" width="32" version="1.1" xmlns:cc="http://creativecommons.org/ns#" xmlns:dc="http://purl.org/dc/elements/1.1/">
 <path style="color:#000000;text-indent:0;block-progression:tb;text-decoration-line:none;text-transform:none" d="m16 12.305-0.15348 0.11103-3.3438 2.4148-0.15184 0.10939 0.05551 0.18124 1.2539 3.9561 0.05878 0.18122h0.19103 4.1797 0.19103l0.05878-0.18122 1.2539-3.9561 0.05551-0.18124-0.154-0.11-3.344-2.414-0.153-0.111zm0 0.64492 3.0368 2.1927-1.1396 3.5936h-3.7944l-1.14-3.595 3.037-2.193zm0-2.6316c-3.1335 0-5.6821 2.5486-5.6821 5.6821s2.5486 5.6821 5.6821 5.6821 5.6821-2.5486 5.6821-5.6821-2.5486-5.6821-5.6821-5.6821zm0 0.87237c2.661 0 4.8097 2.1487 4.8097 4.8097s-2.1487 4.8097-4.8097 4.8097-4.8097-2.1487-4.8097-4.8097 2.1487-4.8097 4.8097-4.8097zm0-2.622c-4.0992 0-7.4317 3.3325-7.4317 7.4317s3.3325 7.4317 7.4317 7.4317 7.4317-3.3325 7.4317-7.4317-3.3325-7.4317-7.4317-7.4317zm0 0.87432c3.6267 0 6.5574 2.9307 6.5574 6.5574s-2.9307 6.5574-6.5574 6.5574-6.5574-2.9307-6.5574-6.5574 2.9307-6.5574 6.5574-6.5574z"/>
 <path style="color:#000000;text-indent:0;block-progression:tb;text-decoration-line:none;text-transform:none" d="m16 0.0000075-0.647 0.64723-14.706 14.706-0.647 0.647 0.64723 0.647 14.706 14.706 0.647 0.647 0.647-0.647 14.706-14.706 0.647-0.647-0.647-0.647-14.706-14.706-0.647-0.64699zm0 2.5889l13.411 13.411-13.411 13.411-13.411-13.411 13.411-13.411z"/>
</svg>
