<?xml version="1.0" encoding="UTF-8" standalone="no"?>
<svg xmlns:rdf="http://www.w3.org/1999/02/22-rdf-syntax-ns#" xmlns="http://www.w3.org/2000/svg" height="32" width="32" version="1.1" xmlns:cc="http://creativecommons.org/ns#" xmlns:dc="http://purl.org/dc/elements/1.1/">
 <path style="color:#000000;text-indent:0;block-progression:tb;text-decoration-line:none;text-transform:none" d="m16 0.0000075-0.647 0.64723-14.706 14.706-0.647 0.647 0.64722 0.647 14.706 14.706 0.647 0.647 0.647-0.647 14.706-14.706 0.647-0.647-0.647-0.647-14.706-14.706-0.647-0.64699zm0 2.5889l13.411 13.411-13.411 13.411-13.411-13.411 13.411-13.411z"/>
 <path style="color:#000000;text-indent:0;block-progression:tb;text-decoration-line:none;text-transform:none" d="m14.801 11.522v0.34157 2.9375h-2.9375-0.34157v0.34157 1.7147 0.34158h0.34157 2.9375v2.9375 0.34158h0.34157 1.7147 0.34157v-0.34158-2.9375h2.9375 0.34157v-0.34158-1.7147-0.34157h-0.34157-2.9375v-2.9375-0.34157h-0.34157-1.7147zm1.199-3.6531c-4.4837 0-8.1311 3.6474-8.1311 8.1311s3.6474 8.1311 8.1311 8.1311 8.1311-3.6474 8.1311-8.1311-3.6474-8.1311-8.1311-8.1311zm0 1.1784c3.8469 0 6.9527 3.1059 6.9527 6.9527 0 3.8469-3.1059 6.9527-6.9527 6.9527-3.8469 0-6.9527-3.1059-6.9527-6.9527 0-3.8469 3.1059-6.9527 6.9527-6.9527z"/>
</svg>
