<?xml version="1.0" encoding="UTF-8" standalone="no"?>
<svg xmlns:rdf="http://www.w3.org/1999/02/22-rdf-syntax-ns#" xmlns="http://www.w3.org/2000/svg" height="32" width="32" version="1.1" xmlns:cc="http://creativecommons.org/ns#" xmlns:dc="http://purl.org/dc/elements/1.1/">
 <path style="color:#000000;text-indent:0;block-progression:tb;text-decoration-line:none;text-transform:none" d="m13.52 7.8525v0.5904 5.0775h-5.0775-0.5904v0.5904 3.7786 0.5904h0.5904 5.0775v5.0774 0.5904h0.5904 3.7786 0.5904v-0.5904-5.0774h5.0775 0.5904v-0.5904-3.7786-0.5904h-0.5904-5.0775v-5.0775-0.5904h-0.5904-3.7786z"/>
 <path style="color:#000000;text-indent:0;block-progression:tb;text-decoration-line:none;text-transform:none" d="m16 0.0000075-0.647 0.64723-14.706 14.706-0.647 0.647 0.64722 0.647 14.706 14.706 0.647 0.647 0.647-0.647 14.706-14.706 0.647-0.647-0.647-0.647-14.706-14.706-0.647-0.64699zm0 2.5889l13.411 13.411-13.411 13.411-13.411-13.411 13.411-13.411z"/>
</svg>
