<?xml version="1.0" encoding="UTF-8" standalone="no"?>
<svg xmlns:rdf="http://www.w3.org/1999/02/22-rdf-syntax-ns#" xmlns="http://www.w3.org/2000/svg" height="32" width="32" version="1.1" xmlns:cc="http://creativecommons.org/ns#" xmlns:dc="http://purl.org/dc/elements/1.1/">
 <path style="color:#000000;text-indent:0;block-progression:tb;text-decoration-line:none;text-transform:none" d="m16 8.0437c-4.3843 0-7.9563 3.572-7.9563 7.9563s3.572 7.9563 7.9563 7.9563 7.9563-3.572 7.9563-7.9563-3.572-7.9563-7.9563-7.9563zm0 1.8753c3.3683 0 6.081 2.7127 6.081 6.081s-2.7127 6.081-6.081 6.081-6.081-2.7127-6.081-6.081 2.7127-6.081 6.081-6.081z"/>
 <path style="color:#000000;text-indent:0;block-progression:tb;text-decoration-line:none;text-transform:none" d="m16 0-0.647 0.64723-14.706 14.706-0.647 0.647 0.64722 0.647 14.706 14.706 0.647 0.647 0.647-0.647 14.706-14.706 0.647-0.647-0.647-0.647-14.706-14.706-0.647-0.647zm0 2.5889 13.411 13.411-13.411 13.411-13.411-13.411 13.411-13.411z"/>
</svg>
