<?xml version="1.0" encoding="UTF-8" standalone="no"?>
<svg xmlns:rdf="http://www.w3.org/1999/02/22-rdf-syntax-ns#" xmlns="http://www.w3.org/2000/svg" height="32" width="32" version="1.1" xmlns:cc="http://creativecommons.org/ns#" xmlns:dc="http://purl.org/dc/elements/1.1/">
 <path style="color:#000000;text-indent:0;block-progression:tb;text-decoration-line:none;text-transform:none" d="m16 11.536-0.18762 0.13573-4.0878 2.9521-0.18564 0.13373 0.06787 0.22156 1.5329 4.8363 0.07186 0.22155h0.23354 5.1098 0.23354l0.07185-0.22155 1.5329-4.8363 0.06786-0.22156-0.18563-0.13373-4.0878-2.9521-0.188-0.136zm0 0.78842 3.7126 2.6806-1.3932 4.3932h-4.6387l-1.394-4.393 3.713-2.681zm0-3.6976c-4.0668 0-7.3734 3.3066-7.3734 7.3734s3.3066 7.3734 7.3734 7.3734 7.3734-3.3066 7.3734-7.3734-3.3066-7.3734-7.3734-7.3734zm0 1.0664c3.4892 0 6.307 2.8178 6.307 6.307s-2.8178 6.307-6.307 6.307-6.307-2.8178-6.307-6.307 2.8178-6.307 6.307-6.307z"/>
 <path style="color:#000000;text-indent:0;block-progression:tb;text-decoration-line:none;text-transform:none" d="m16 0.0000075-0.647 0.64723-14.706 14.706-0.647 0.647 0.64722 0.647 14.706 14.706 0.647 0.647 0.647-0.647 14.706-14.706 0.647-0.647-0.647-0.647-14.706-14.706-0.647-0.64699zm0 2.5889l13.411 13.411-13.411 13.411-13.411-13.411 13.411-13.411z"/>
</svg>
