<?xml version="1.0" encoding="UTF-8" standalone="no"?>
<svg xmlns:rdf="http://www.w3.org/1999/02/22-rdf-syntax-ns#" xmlns="http://www.w3.org/2000/svg" height="32" width="32" version="1.1" xmlns:cc="http://creativecommons.org/ns#" xmlns:dc="http://purl.org/dc/elements/1.1/">
 <path style="color:#000000;text-indent:0;block-progression:tb;text-decoration-line:none;text-transform:none" d="m3.195 1.8751h7.5v-1.875h-7.5zm11.25 0h1.875v-1.875h-1.875zm5.625 0h7.5v-1.875h-7.5zm-19.664-0.2461l-0.023437 0.039062-0.019537 0.039062-0.09375 0.19922-0.019525 0.042969-0.015625 0.042969-0.078125 0.20703-0.015625 0.042969-0.01175 0.046875-0.054687 0.21484-0.01175 0.046875-0.00775 0.042969-0.03125 0.22656-0.00775 0.046875-0.003875 0.046875-0.01175 0.23047v0.023437 0.023437 0.58594h1.875v-0.53906l0.01175-0.20312 0.015625-0.11719 0.03125-0.12109 0.042975-0.10547 0.054687-0.125 0.0664-0.10937-1.6016-0.97265zm29.578 0.97265 0.03906 0.085937 0.04296 0.10937 0.03125 0.12109 0.01563 0.11719 0.01175 0.20312v0.79687h1.875v-0.84375-0.023437-0.023437l-0.01175-0.23047-0.0039-0.046875-0.0078-0.046875-0.03125-0.22656-0.0077-0.042969-0.01175-0.046875-0.05469-0.21484-0.01175-0.046875-0.01563-0.042969-0.07813-0.20703-0.01563-0.042969-0.01953-0.042969-0.05469-0.11719zm-29.984 12.425h1.875v-7.5h-1.875zm30.125 0.258h1.875v-7.5h-1.875zm-30.125 5.3672h1.875v-1.875h-1.875zm30.125 0.258h1.875v-1.875h-1.875zm-30.125 7.8945v0.02344 0.02344l0.01175 0.23046 0.003875 0.04687 0.00775 0.04687 0.03125 0.22657 0.00775 0.04687 0.01175 0.04296 0.054687 0.21875 0.01175 0.04296 0.015625 0.04297 0.078125 0.20702 0.015625 0.04687 0.019525 0.03908 0.09375 0.19921 0.019537 0.03906 0.023437 0.03906 0.11327 0.1875 0.023437 0.03906 0.02735 0.03515 0.1289 0.17188 0.02735 0.03908 0.03125 0.03125 0.14452 0.16015 0.03125 0.03515 0.03125 0.02735 0.16016 0.14844 0.03515 0.02734 0.035162 0.02735 0.17577 0.13281 0.035162 0.02344 0.039062 0.02344 0.18359 0.11329 0.039062 0.02342 0.042975 0.01954 0.19531 0.09766 0.042962 0.01953 0.042975 0.01563 0.20702 0.07422 0.042975 0.01562 0.046875 0.01175 0.21484 0.05469 0.046875 0.01175 0.046875 0.0078 0.01175 0.0039 0.16015-1.0469 0.19922-0.79296-0.16797-0.04298-0.1289-0.04687-0.10937-0.05077-0.11329-0.07032-0.0625-0.04296-0.019525-0.01563-0.10937-0.09766-0.078125-0.08984-0.074225-0.10156-0.074212-0.1211-0.054687-0.12109-0.042975-0.10938-0.03125-0.11719-0.015625-0.11719-0.01175-0.20312v-4.3555h-1.875zm30.125-0.046l-0.01175 0.20312-0.01563 0.11719-0.03125 0.11719-0.04297 0.10938-0.05469 0.12109-0.07421 0.1211-0.07423 0.10156-0.07813 0.08984-0.10938 0.09766-0.01952 0.01563-0.0625 0.04296-0.11329 0.07032-0.10938 0.05077-0.1289 0.04687-0.14062 0.03515-0.10548 0.01563h-0.0039l-0.05077 0.0079 0.07813 0.5039 0.0664 1.3633 0.04298-0.0039h0.04687l0.04687-0.0077 0.22265-0.03516 0.04687-0.0078 0.04687-0.01175 0.21485-0.05469 0.04687-0.01175 0.04296-0.01562 0.20704-0.07422 0.04296-0.01563 0.04297-0.01953 0.19531-0.09766 0.04296-0.01954 0.03906-0.02342 0.1836-0.11329 0.03906-0.02344 0.03515-0.02344 0.17579-0.13281 0.03515-0.02735 0.03516-0.02734 0.16015-0.14844 0.03125-0.02735 0.03125-0.03515 0.14454-0.16015 0.03125-0.03125 0.02734-0.03908 0.12891-0.17188 0.02734-0.03515 0.02344-0.03906 0.11329-0.1875 0.02344-0.03906 0.01953-0.03906 0.09375-0.19921 0.01954-0.03908 0.01563-0.04687 0.07812-0.20702 0.01563-0.04298 0.01175-0.04296 0.05469-0.21875 0.01175-0.04296 0.0077-0.04687 0.03125-0.22657 0.0078-0.04687 0.0039-0.04687 0.01175-0.23046v-0.02344-0.02344-4.1445h-1.875zm-23.629 3.242h1.875v-1.875h-1.875zm5.625 0h7.5v-1.875h-7.5zm11.25 0h1.875v-1.875h-1.875z"/>
</svg>
