<?xml version="1.0" encoding="UTF-8" standalone="no"?>
<svg xmlns:rdf="http://www.w3.org/1999/02/22-rdf-syntax-ns#" xmlns="http://www.w3.org/2000/svg" height="32" width="32" version="1.1" xmlns:cc="http://creativecommons.org/ns#" xmlns:dc="http://purl.org/dc/elements/1.1/">
 <path style="color:#000000;text-indent:0;block-progression:tb;text-decoration-line:none;text-transform:none" d="m16.015 2.3612c-7.5184 0-13.624 6.1053-13.624 13.624 0 7.5184 6.1053 13.624 13.624 13.624 7.5184 0 13.624-6.1053 13.624-13.624 0-7.5184-6.1053-13.624-13.624-13.624zm0 1.2443c6.8427 0 12.379 5.5367 12.379 12.379 0 6.8427-5.5367 12.379-12.379 12.379-6.8427 0-12.379-5.5367-12.379-12.379 0-6.8427 5.5367-12.379 12.379-12.379zm0-3.6206c-8.8302 0-16 7.1698-16 16s7.1698 16 16 16 16-7.1698 16-16-7.1698-16-16-16zm0 1.2464c8.1546 0 14.754 6.5991 14.754 14.754 0 8.1546-6.5991 14.754-14.754 14.754-8.1546 0-14.754-6.5991-14.754-14.754 0-8.1546 6.5991-14.754 14.754-14.754z"/>
 <path style="color:#000000;text-indent:0;block-progression:tb;text-decoration-line:none;text-transform:none" d="m15.119 9.5887-1.0498 0.67577-8.0157 5.1639-0.88827 0.57376 0.88827 0.56952 8.0157 5.1639 1.0498 0.67577v-1.2453-4.9514l0.55252 0.35701 8.02 5.1639 1.0455 0.67577v-1.2453-10.332-1.2453l-1.0455 0.67577-8.02 5.1639-0.55252 0.35701v-4.9514-1.2453zm-1.36 2.4906v7.8415l-6.0819-3.9186 6.0819-3.9229zm9.618 0.0042v7.833l-6.0777-3.9144 6.0777-3.9186z"/>
</svg>
