<?xml version="1.0" encoding="UTF-8" standalone="no"?>
<svg xmlns:rdf="http://www.w3.org/1999/02/22-rdf-syntax-ns#" xmlns="http://www.w3.org/2000/svg" height="32" width="32" version="1.1" xmlns:cc="http://creativecommons.org/ns#" xmlns:dc="http://purl.org/dc/elements/1.1/">
 <path style="color:#000000;text-indent:0;block-progression:tb;text-decoration-line:none;text-transform:none" d="m16.015 2.3612c-7.5184 0-13.624 6.1053-13.624 13.624 0 7.5184 6.1053 13.624 13.624 13.624 7.5184 0 13.624-6.1053 13.624-13.624 0-7.5184-6.1053-13.624-13.624-13.624zm0 1.2443c6.8427 0 12.379 5.5367 12.379 12.379 0 6.8427-5.5367 12.379-12.379 12.379-6.8427 0-12.379-5.5367-12.379-12.379 0-6.8427 5.5367-12.379 12.379-12.379zm0-3.6206c-8.8302 0-16 7.1698-16 16s7.1698 16 16 16 16-7.1698 16-16-7.1698-16-16-16zm0 1.2464c8.1546 0 14.754 6.5991 14.754 14.754 0 8.1546-6.5991 14.754-14.754 14.754-8.1546 0-14.754-6.5991-14.754-14.754 0-8.1546 6.5991-14.754 14.754-14.754z"/>
 <path style="color:#000000;text-indent:0;block-progression:tb;text-decoration-line:none;text-transform:none" d="m20.554 7.4608-0.474 0.4744-4.08 4.0798-4.08-4.0798-0.474-0.4744-0.475 0.4744-3.0358 3.0358-0.4744 0.475 0.4744 0.474 4.0798 4.08-4.0798 4.08-0.4744 0.474 0.4744 0.475 3.0358 3.036 0.475 0.474 0.474-0.474 4.08-4.08l4.0798 4.0798 0.4744 0.4744 0.4744-0.4744 3.0361-3.0361 0.4744-0.4744-0.474-0.474-4.08-4.08 4.08-4.08 0.474-0.474-0.474-0.475-3.036-3.0358-0.475-0.4744zm0 1.8976 2.0873 2.0874-4.0798 4.0798l-0.474 0.474 0.475 0.474 4.08 4.08-2.088 2.088-4.08-4.08-0.474-0.475-0.474 0.475-4.08 4.08-2.0876-2.088 4.0796-4.08 0.475-0.474-0.475-0.474-4.0796-4.08 2.0876-2.0876 4.08 4.0796 0.474 0.475 0.474-0.475 4.08-4.0796z"/>
</svg>
