<?xml version="1.0" encoding="UTF-8" standalone="no"?>
<svg xmlns:rdf="http://www.w3.org/1999/02/22-rdf-syntax-ns#" xmlns="http://www.w3.org/2000/svg" height="32" width="32" version="1.1" xmlns:cc="http://creativecommons.org/ns#" xmlns:dc="http://purl.org/dc/elements/1.1/">
 <path style="color:#000000;text-indent:0;block-progression:tb;text-decoration-line:none;text-transform:none" d="m16.015 2.3612c-7.5184 0-13.624 6.1053-13.624 13.624 0 7.5184 6.1053 13.624 13.624 13.624 7.5184 0 13.624-6.1053 13.624-13.624 0-7.5184-6.1053-13.624-13.624-13.624zm0 1.2443c6.8427 0 12.379 5.5367 12.379 12.379 0 6.8427-5.5367 12.379-12.379 12.379-6.8427 0-12.379-5.5367-12.379-12.379 0-6.8427 5.5367-12.379 12.379-12.379zm0-3.6206c-8.8302 0-16 7.1698-16 16s7.1698 16 16 16 16-7.1698 16-16-7.1698-16-16-16zm0 1.2464c8.1546 0 14.754 6.5991 14.754 14.754 0 8.1546-6.5991 14.754-14.754 14.754-8.1546 0-14.754-6.5991-14.754-14.754 0-8.1546 6.5991-14.754 14.754-14.754z"/>
 <path style="color:#000000;text-indent:0;block-progression:tb;text-decoration-line:none;text-transform:none" d="m9.7541 7.8685v0.58924 4.8317 1.1785 2.8283 1.1785 2.5926 1.1785 1.2963 0.58924h0.58924 11.313 0.58924v-0.58924-1.2963-1.1785-2.5926-1.1785-2.8283-1.1785-4.8317-0.58924h-0.58924-11.313-0.58924zm1.1785 1.1785h10.135v0.70708h-10.135v-0.70708zm0 1.8856h10.135v2.3569h-10.135v-2.3569zm0 3.5354h10.135v2.8283h-10.135v-2.8283zm0 4.0068h10.135v2.5926h-10.135v-2.5926zm0 3.7711h10.135v0.70708h-10.135v-0.70708z"/>
</svg>
