<?xml version="1.0" encoding="UTF-8" standalone="no"?>
<svg xmlns:rdf="http://www.w3.org/1999/02/22-rdf-syntax-ns#" xmlns="http://www.w3.org/2000/svg" height="32" width="32" version="1.1" xmlns:cc="http://creativecommons.org/ns#" xmlns:dc="http://purl.org/dc/elements/1.1/">
 <path style="color:#000000;text-indent:0;block-progression:tb;text-decoration-line:none;text-transform:none" d="m8.3892 10.949v0.62507 8.8214 0.62507h0.62507 14.002 0.62507v-0.62507-8.8214-0.62507h-0.62507-14.002-0.62507zm1.9221 1.2501h11.408l-5.7038 4.0747-5.7038-4.0747zm-0.67195 1.0587 6.0124 4.2935 0.36332 0.25784 0.36333-0.25784 6.0124-4.2935v6.5125h-12.752v-6.5125zm6.376-10.897c-7.5184 0-13.624 6.1053-13.624 13.624 0 7.5184 6.1053 13.624 13.624 13.624 7.5184 0 13.624-6.1053 13.624-13.624 0-7.5184-6.1053-13.624-13.624-13.624zm0 1.2443c6.8427 0 12.379 5.5367 12.379 12.379 0 6.8427-5.5367 12.379-12.379 12.379-6.8427 0-12.379-5.5367-12.379-12.379 0-6.8427 5.5367-12.379 12.379-12.379zm0-3.6206c-8.8302 0-16 7.1698-16 16s7.1698 16 16 16 16-7.1698 16-16-7.1698-16-16-16zm0 1.2464c8.1546 0 14.754 6.5991 14.754 14.754 0 8.1546-6.5991 14.754-14.754 14.754-8.1546 0-14.754-6.5991-14.754-14.754 0-8.1546 6.5991-14.754 14.754-14.754z"/>
</svg>
