<?xml version="1.0" encoding="UTF-8" standalone="no"?>
<svg xmlns:rdf="http://www.w3.org/1999/02/22-rdf-syntax-ns#" xmlns="http://www.w3.org/2000/svg" height="32" width="32" version="1.1" xmlns:cc="http://creativecommons.org/ns#" xmlns:dc="http://purl.org/dc/elements/1.1/">
 <path style="color:#000000;text-indent:0;block-progression:tb;text-decoration-line:none;text-transform:none" d="m16.015 2.3612c-7.5184 0-13.624 6.1053-13.624 13.624 0 7.5184 6.1053 13.624 13.624 13.624 7.5184 0 13.624-6.1053 13.624-13.624 0-7.5184-6.1053-13.624-13.624-13.624zm0 1.2443c6.8427 0 12.379 5.5367 12.379 12.379 0 6.8427-5.5367 12.379-12.379 12.379-6.8427 0-12.379-5.5367-12.379-12.379 0-6.8427 5.5367-12.379 12.379-12.379zm0-3.6206c-8.8302 0-16 7.1698-16 16s7.1698 16 16 16 16-7.1698 16-16-7.1698-16-16-16zm0 1.2464c8.1546 0 14.754 6.5991 14.754 14.754 0 8.1546-6.5991 14.754-14.754 14.754-8.1546 0-14.754-6.5991-14.754-14.754 0-8.1546 6.5991-14.754 14.754-14.754z"/>
 <path style="color:#000000;text-indent:0;block-progression:tb;text-decoration-line:none;text-transform:none" d="m23.174 8.1506a0.6435 0.6435 0 0 0 -0.515 0.3016l-4.637 7.4198-4.588-6.4225a0.6435 0.6435 0 0 0 -1.1381 0.18499l-4.1184 13.384a0.6435 0.6435 0 0 0 1.1381 0.56301l4.6247-6.4746 4.6247 6.4746a0.6435 0.6435 0 0 0 1.1421 -0.19705l4.118-14.413a0.6435 0.6435 0 0 0 -0.651 -0.8204zm-10.03 3.1046 4.3915 6.1489a0.6435 0.6435 0 0 0 1.0697 -0.03619l2.7266-4.3633-2.4974 8.7427-4.3714-6.1207a0.6435 0.6435 0 0 0 -1.0456 0l-2.8432 3.9813 2.5697-8.3526z"/>
</svg>
