<?xml version="1.0" encoding="UTF-8" standalone="no"?>
<svg xmlns:rdf="http://www.w3.org/1999/02/22-rdf-syntax-ns#" xmlns="http://www.w3.org/2000/svg" height="32" width="32" version="1.1" xmlns:cc="http://creativecommons.org/ns#" xmlns:dc="http://purl.org/dc/elements/1.1/">
 <path style="color:#000000;text-indent:0;block-progression:tb;text-decoration-line:none;text-transform:none" d="m16.015 2.3612c-7.5184 0-13.624 6.1053-13.624 13.624 0 7.5184 6.1053 13.624 13.624 13.624 7.5184 0 13.624-6.1053 13.624-13.624 0-7.5184-6.1053-13.624-13.624-13.624zm0 1.2443c6.8427 0 12.379 5.5367 12.379 12.379 0 6.8427-5.5367 12.379-12.379 12.379-6.8427 0-12.379-5.5367-12.379-12.379 0-6.8427 5.5367-12.379 12.379-12.379zm0-3.6206c-8.8302 0-16 7.1698-16 16s7.1698 16 16 16 16-7.1698 16-16-7.1698-16-16-16zm0 1.2464c8.1546 0 14.754 6.5991 14.754 14.754 0 8.1546-6.5991 14.754-14.754 14.754-8.1546 0-14.754-6.5991-14.754-14.754 0-8.1546 6.5991-14.754 14.754-14.754z"/>
 <path style="color:#000000;text-indent:0;block-progression:tb;text-decoration-line:none;text-transform:none" d="m16 6.5865c-5.1908 0-9.4135 4.2226-9.4135 9.4135 0 5.1908 4.2226 9.4135 9.4135 9.4135 5.1908 0 9.4135-4.2226 9.4135-9.4135 0-5.1908-4.2226-9.4135-9.4135-9.4135zm-0.68214 1.3941v0.82709 0.64377 0.038372h1.3643v-0.68214-0.82709c1.7117 0.14342 3.2688 0.81946 4.5064 1.8631l-1.0403 1.0403 0.0086 0.0085-0.02559 0.02558 0.96353 0.96352 0.48175-0.48176 0.58407-0.58408c1.0414 1.2368 1.7156 2.7926 1.8588 4.5021h-1.4708v0.0085h-0.02558v1.3643h0.68214 0.81429c-0.14504 1.7094-0.82001 3.2662-1.8631 4.5021l-1.0445-1.0445-0.0042 0.0042-0.01283-0.01278-0.96353 0.96352 0.48176 0.48176 0.57555 0.57555c-1.2372 1.0426-2.7957 1.7155-4.5064 1.8588l-0.000055-1.4709v-0.01706h-1.3643v0.68214 0.80577c-1.71-0.144-3.265-0.818-4.502-1.86l0.57556-0.57555 0.48175-0.48176-0.96352-0.96352-0.01705 0.01279-0.0042-0.0042-1.0445 1.0445c-1.0433-1.235-1.7183-2.792-1.8633-4.501h0.81856 0.68214v-1.3643h-0.029853v-0.0085h-1.4708c0.1433-1.711 0.8162-3.269 1.8588-4.506l0.58833 0.58834 0.48176 0.48176 0.96352-0.96352-0.02558-0.02984 0.0042-0.0042-1.0403-1.0403c1.2376-1.0436 2.7947-1.7197 4.5064-1.8631zm0 2.9716v0.68214 3.6835 0.67787 0.68214 0.0042h0.68214 4.3657 0.68214v-1.3643h-0.68214-3.6835v-3.6835-0.68214h-1.3643z"/>
</svg>
