<?xml version="1.0" encoding="UTF-8" standalone="no"?>
<svg xmlns:rdf="http://www.w3.org/1999/02/22-rdf-syntax-ns#" xmlns="http://www.w3.org/2000/svg" height="32" width="32" version="1.1" xmlns:cc="http://creativecommons.org/ns#" xmlns:dc="http://purl.org/dc/elements/1.1/">
 <path style="color:#000000;text-indent:0;block-progression:tb;text-decoration-line:none;text-transform:none" d="m16.003-0.0049619c-8.8258 0-15.998 7.1721-15.998 15.998 0 8.8258 7.1721 16.002 15.998 16.002 8.8258 0 16.002-7.1763 16.002-16.002 0-8.8258-7.1763-15.998-16.002-15.998zm0 1.8756c7.8124 0 14.126 6.3098 14.126 14.122 0 7.8124-6.314 14.126-14.126 14.126-7.8124 0-14.122-6.314-14.122-14.126 0-7.8124 6.3098-14.122 14.122-14.122zm6.9706 6.4996a0.62509 0.62509 0 0 0 -0.501 0.293l-4.504 7.2078-4.457-6.239a0.62509 0.62509 0 0 0 -1.105 0.1797l-4.0006 13a0.62509 0.62509 0 0 0 1.1055 0.5469l4.4924-6.2893 4.4924 6.2893a0.62509 0.62509 0 0 0 1.1094 -0.19141l4-14.001a0.62509 0.62509 0 0 0 -0.633 -0.7968zm-9.7426 3.0157 4.2658 5.9729a0.62509 0.62509 0 0 0 1.0391 -0.03515l2.6485-4.2384-2.4259 8.4925-4.2463-5.9455a0.62509 0.62509 0 0 0 -1.0157 0l-2.7618 3.8673 2.4962-8.1136z"/>
</svg>
