<?xml version="1.0" encoding="UTF-8" standalone="no"?>
<svg xmlns:rdf="http://www.w3.org/1999/02/22-rdf-syntax-ns#" xmlns="http://www.w3.org/2000/svg" height="32" width="32" version="1.1" xmlns:cc="http://creativecommons.org/ns#" xmlns:dc="http://purl.org/dc/elements/1.1/">
 <path style="color:#000000;text-indent:0;block-progression:tb;text-decoration-line:none;text-transform:none" d="m16.003-0.0049619c-8.8258 0-15.998 7.1721-15.998 15.998 0 8.8258 7.1721 16.002 15.998 16.002 8.8258 0 16.002-7.1763 16.002-16.002 0-8.8258-7.1763-15.998-16.002-15.998zm0 1.8756c7.8124 0 14.126 6.3098 14.126 14.122 0 7.8124-6.314 14.126-14.126 14.126-7.8124 0-14.122-6.314-14.122-14.126 0-7.8124 6.3098-14.122 14.122-14.122zm-6.6231 5.499v0.62502 5.1252 1.25 3.0001 1.25 2.7501 1.25 1.3751 0.62502h0.62502 12 0.62502v-0.62502-1.3751-1.25-2.7501-1.25-3.0001-1.25-5.1252-0.62502h-0.62502-12-0.62502zm1.25 1.25h10.75v0.75003h-10.75v-0.75003zm0 2.0001h10.75v2.5001h-10.75v-2.5001zm0 3.7501h10.75v3.0001h-10.75v-3.0001zm0 4.2502h10.75v2.7501h-10.75v-2.7501zm0 4.0002h10.75v0.75003h-10.75v-0.75003z"/>
</svg>
