<?xml version="1.0" encoding="UTF-8" standalone="no"?>
<svg xmlns:rdf="http://www.w3.org/1999/02/22-rdf-syntax-ns#" xmlns="http://www.w3.org/2000/svg" height="32" width="32" version="1.1" xmlns:cc="http://creativecommons.org/ns#" xmlns:dc="http://purl.org/dc/elements/1.1/">
 <path style="color:#000000;text-indent:0;block-progression:tb;text-decoration-line:none;text-transform:none" d="m16.003-0.0049619c-8.8258 0-15.998 7.1721-15.998 15.998 0 8.8258 7.1721 16.002 15.998 16.002 8.8258 0 16.002-7.1763 16.002-16.002 0-8.8258-7.1763-15.998-16.002-15.998zm0 1.8756c7.8124 0 14.126 6.3098 14.126 14.122 0 7.8124-6.314 14.126-14.126 14.126-7.8124 0-14.122-6.314-14.122-14.126 0-7.8124 6.3098-14.122 14.122-14.122zm-7.6232 9.089v0.62502 8.8207 0.62502h0.62502 14.001 0.62502v-0.62502-8.8207-0.62502h-0.62502-14.001-0.62502zm1.9219 1.25h11.407l-5.7033 4.0744-5.7033-4.0744zm-0.6719 1.0586 6.012 4.2931 0.36329 0.25782 0.3633-0.25782 6.0119-4.2931v6.512h-12.75v-6.512z"/>
</svg>
