<?xml version="1.0" encoding="UTF-8" standalone="no"?>
<svg xmlns:rdf="http://www.w3.org/1999/02/22-rdf-syntax-ns#" xmlns="http://www.w3.org/2000/svg" height="32" width="32" version="1.1" xmlns:cc="http://creativecommons.org/ns#" xmlns:dc="http://purl.org/dc/elements/1.1/">
 <path style="color:#000000;text-indent:0;block-progression:tb;text-decoration-line:none;text-transform:none" d="m16.003-0.0049619c-8.8258 0-15.998 7.1721-15.998 15.998 0 8.8258 7.1721 16.002 15.998 16.002 8.8258 0 16.002-7.1763 16.002-16.002 0-8.8258-7.1763-15.998-16.002-15.998zm0 1.8756c7.8124 0 14.126 6.3098 14.126 14.122 0 7.8124-6.314 14.126-14.126 14.126-7.8124 0-14.122-6.314-14.122-14.126 0-7.8124 6.3098-14.122 14.122-14.122zm0.0021 5.3057-0.3672 0.26564-8.0003 5.7776-0.3633 0.26173 0.13282 0.43361 3.0001 9.4652 0.14063 0.43362h0.45706 10 0.45704l0.14063-0.43362 3-9.466 0.133-0.434-0.364-0.261-8-5.778-0.367-0.2657zm0 1.543 7.2659 5.2463-2.7267 8.598h-9.0785l-2.7267-8.598 7.2659-5.2463z"/>
</svg>
