<?xml version="1.0" encoding="UTF-8" standalone="no"?>
<svg xmlns:rdf="http://www.w3.org/1999/02/22-rdf-syntax-ns#" xmlns="http://www.w3.org/2000/svg" height="32" width="32" version="1.1" xmlns:cc="http://creativecommons.org/ns#" xmlns:dc="http://purl.org/dc/elements/1.1/">
 <path style="color:#000000;text-indent:0;block-progression:tb;text-decoration-line:none;text-transform:none" d="m16.003-0.0049625c-8.8258 0-15.998 7.1721-15.998 15.998 0 8.8258 7.1721 16.002 15.998 16.002 8.8258 0 16.002-7.1763 16.002-16.002 0-8.8258-7.1763-15.998-16.002-15.998zm0 1.8756c7.8124 0 14.126 6.3098 14.126 14.122 0 7.8124-6.314 14.126-14.126 14.126-7.8124 0-14.122-6.314-14.122-14.126 0-7.8124 6.3098-14.122 14.122-14.122z"/>
 <path style="color:#000000;text-indent:0;block-progression:tb;text-decoration-line:none;text-transform:none" d="m16 6.4117c-5.2873 0-9.5883 4.3011-9.5883 9.5883 0 5.2873 4.3011 9.5883 9.5883 9.5883 5.2873 0 9.5883-4.3011 9.5883-9.5883 0-5.2873-4.3011-9.5883-9.5883-9.5883zm-0.69481 1.42v0.84245 0.65572 0.039084h1.3896v-0.69481-0.84245c1.7435 0.14609 3.3295 0.83469 4.5901 1.8977l-1.0596 1.0596 0.0088 0.0087-0.02606 0.02605 0.98143 0.98142 0.4907-0.49071 0.59492-0.59493c1.0608 1.2598 1.7475 2.8444 1.8934 4.5857h-1.4982v0.0087h-0.02605v1.3896h0.69481 0.82942c-0.14773 1.7412-0.83524 3.3269-1.8977 4.5857l-1.0639-1.0639-0.0043 0.0043-0.01307-0.01302-0.98143 0.98142 0.49072 0.49071 0.58624 0.58624c-1.2602 1.062-2.8476 1.7473-4.5901 1.8934l-0.000056-1.4982v-0.01738h-1.3896v0.69481 0.82074c-1.74-0.147-3.325-0.833-4.584-1.894l0.58625-0.58624 0.4907-0.49071-0.98142-0.98142-0.01737 0.01302-0.0043-0.0043-1.0639 1.0639c-1.0631-1.259-1.7506-2.844-1.8983-4.586h0.83377 0.69481v-1.3896h-0.030407v-0.0087h-1.4982c0.146-1.742 0.8314-3.33 1.8934-4.59l0.59926 0.59927 0.49072 0.49071 0.98142-0.98142-0.02605-0.0304 0.0043-0.0043-1.0596-1.0596c1.2606-1.063 2.8466-1.7516 4.5901-1.8977zm0 3.0268v0.69481 3.752 0.69047 0.69481 0.0043h0.69481 4.4468 0.69481v-1.3896h-0.69481-3.752v-3.752-0.69481h-1.3896z"/>
</svg>
