<?xml version="1.0" encoding="UTF-8" standalone="no"?>
<svg xmlns:rdf="http://www.w3.org/1999/02/22-rdf-syntax-ns#" xmlns="http://www.w3.org/2000/svg" height="32" width="32" version="1.1" xmlns:cc="http://creativecommons.org/ns#" xmlns:dc="http://purl.org/dc/elements/1.1/">
 <g transform="translate(-.0024230 -1020.4)">
  <path style="color:#000000;text-indent:0;block-progression:tb;text-decoration-line:none;text-transform:none" d="m16.005 1020.4c-8.8258 0-15.998 7.1721-15.998 15.998 0 8.8258 7.1721 16.002 15.998 16.002 8.8258 0 16.002-7.1763 16.002-16.002 0-8.8258-7.1763-15.998-16.002-15.998zm0 1.8756c7.8124 0 14.126 6.3099 14.126 14.122 0 7.8124-6.314 14.126-14.126 14.126-7.8124 0-14.122-6.3141-14.122-14.126 0-7.8124 6.3098-14.122 14.122-14.122z"/>
 </g>
 <path style="color:#000000;text-indent:0;block-progression:tb;text-decoration-line:none;text-transform:none" d="m14.892 9.3369-1.091 0.70231-8.3306 5.3667-0.92317 0.5963 0.92317 0.59189 8.3306 5.3667 1.091 0.70231v-1.2942-5.1459l0.57422 0.37103 8.335 5.3667 1.0866 0.70231v-1.2942-10.738-1.2942l-1.0866 0.70231-8.335 5.3667-0.57422 0.37103v-5.1459-1.2942zm-1.4135 2.5884v8.1495l-6.3208-4.0725 6.3208-4.0769zm9.9958 0.0042v8.1406l-6.3164-4.0681 6.3164-4.0725z"/>
</svg>
