<?xml version="1.0" encoding="UTF-8" standalone="no"?>
<svg xmlns:rdf="http://www.w3.org/1999/02/22-rdf-syntax-ns#" xmlns="http://www.w3.org/2000/svg" height="32" width="32" version="1.1" xmlns:cc="http://creativecommons.org/ns#" xmlns:dc="http://purl.org/dc/elements/1.1/">
 <path style="color:#000000;text-indent:0;block-progression:tb;text-decoration-line:none;text-transform:none" d="m15.257 19.932v7.1351h1.4865v-7.1351h-1.4865zm-2.8243 2.8243v1.4865h7.1351v-1.4865h-7.1351zm-1.933-4.756v0.74324 9.5135 0.74324h0.74324 9.5135 0.74324v-0.74324-9.5135-0.744h-0.743-9.514-0.743zm1.4865 1.4865h8.027v8.027h-8.027v-8.027z"/>
 <path style="color:#000000;text-indent:0;block-progression:tb;text-decoration-line:none;text-transform:none" d="m3.2031-0.0000075c-1.7585 0-3.2031 1.4446-3.2031 3.2031v25.59c0 1.7585 1.4446 3.207 3.2031 3.207h25.594c1.758 0 3.203-1.448 3.203-3.207v-25.59c0-1.7584-1.445-3.203-3.203-3.203h-25.594zm0 1.875h25.594c0.75222 0 1.3281 0.5759 1.3281 1.3281v25.59c0 0.75222-0.5759 1.332-1.3281 1.332h-25.594c-0.7521 0-1.328-0.58-1.328-1.332v-25.59c0-0.75222 0.5759-1.3281 1.3281-1.3281z"/>
</svg>
