<?xml version="1.0" encoding="UTF-8" standalone="no"?>
<svg xmlns:rdf="http://www.w3.org/1999/02/22-rdf-syntax-ns#" xmlns="http://www.w3.org/2000/svg" height="32" width="32" version="1.1" xmlns:cc="http://creativecommons.org/ns#" xmlns:dc="http://purl.org/dc/elements/1.1/">
 <path style="color:#000000;text-indent:0;block-progression:tb;text-decoration-line:none;text-transform:none" d="m15.257 19.932v7.1351h1.4865v-7.1351h-1.4865zm-2.8243 2.8243v1.4865h7.1351v-1.4865h-7.1351zm-1.933-4.756v0.74324 9.5135 0.74324h0.74324 9.5135 0.74324v-0.74324-9.5135-0.744h-0.743-9.514-0.743zm1.4865 1.4865h8.027v8.027h-8.027v-8.027z"/>
 <path style="color:#000000;text-indent:0;block-progression:tb;text-decoration-line:none;text-transform:none" d="m2.8749 0.011765h-0.046875l-0.046875 0.0078125-0.2226 0.035156-0.043 0.007812-0.0468 0.011713-0.211 0.050781-0.046875 0.011712-0.042962 0.015625-0.20312 0.074219-0.042975 0.015625-0.042975 0.023438-0.1914 0.089844-0.042975 0.019531-0.03905 0.023438-0.1797 0.11328-0.03905 0.023438-0.039075 0.027344-0.16796 0.125-0.035162 0.027344-0.03515 0.03125-0.15625 0.14062-0.03515 0.03125-0.02735 0.035156-0.14452 0.15625-0.03125 0.03125-0.02345 0.035156-0.1289 0.17187-0.02735 0.035156-0.023425 0.039062-0.10937 0.18359-0.02345 0.039063-0.019525 0.039063-0.09375 0.19531-0.019525 0.039063-0.015625 0.042969-0.074225 0.20312-0.015625 0.046875-0.01175 0.042969-0.054675 0.21094-0.01175 0.046875-0.00775 0.046875-0.03125 0.21875-0.00775 0.046875-0.003875 0.046875-0.012 0.2263v0.023437 0.023437 0.73828h1.875v-0.69141l0.01175-0.19531 0.015625-0.10938 0.03125-0.11719 0.042963-0.11719 0.046875-0.10937 0.070312-0.11328 0.074225-0.097656 0.046875-0.054687 0.015625-0.015625 0.10546-0.097656 0.10937-0.082031 0.089837-0.050781 0.125-0.0625 0.09375-0.035156 0.15625-0.035156 0.1172-0.019531 0.12109-0.0039h5.625v-1.875h-5.625v0.9375l-0.0469-0.93736zm7.7734 1.8633h5.625v-1.875h-5.625zm7.5 0h5.625v-1.875h-5.625zm7.5 0h3.2031l0.12109 0.0039 0.1172 0.019531 0.15625 0.035156 0.09375 0.035156 0.125 0.0625 0.08984 0.050781 0.10938 0.082031 0.10546 0.097656 0.01563 0.015625 0.04687 0.054687 0.07422 0.097656 0.0664 0.10937 0.02345 0.039063 0.393-0.2385 1.273-0.6133-0.019-0.043-0.02-0.039-0.023-0.0391-0.11-0.1836-0.023-0.039-0.028-0.0352-0.128-0.1719-0.02345-0.035156-0.03125-0.03125-0.14452-0.15625-0.02735-0.035156-0.03515-0.03125-0.15625-0.14062-0.03515-0.03125-0.03516-0.027344-0.16796-0.125-0.03908-0.027344-0.03905-0.023438-0.1797-0.11328-0.03905-0.023438-0.04297-0.019531-0.1914-0.089844-0.04297-0.023438-0.04297-0.015625-0.20312-0.074219-0.04296-0.015625-0.04687-0.011712-0.21094-0.050781-0.04687-0.011712-0.04297-0.0078125-0.22265-0.035156-0.04687-0.0078125h-0.04687l-0.22656-0.011712h-0.02344-0.02344-3.2031zm4.4766 7.7187h1.875v-5.625h-1.875zm-30.125 1.7892h1.875v-5.625h-1.875zm30.125 5.711h1.875v-5.625h-1.875zm-30.125 1.7891h1.875v-5.625h-1.875zm30.125 5.711h1.875v-5.625h-1.875zm-30.125 1.7891h1.875v-5.625h-1.875zm30.125 2.422l-0.01175 0.19531-0.01563 0.11719-0.03125 0.10938-0.04687 0.13281-0.04687 0.10156-0.0703 0.10938-0.01954 0.03125-0.03906 0.04687-0.08985 0.10547-0.08592 0.07422-0.11329 0.08594-0.08984 0.05078-0.125 0.0625-0.10158 0.03906-0.12109 0.02734-0.17579 0.02734 0.28125 1.8555 0.21875-0.03516 0.04298-0.0039 0.04687-0.01171 0.21094-0.05469 0.04687-0.01171 0.04296-0.01563 0.20312-0.07422 0.04298-0.01563 0.04297-0.01953 0.1914-0.09375 0.04297-0.01953 0.03905-0.02344 0.1797-0.11328 0.03905-0.02344 0.03908-0.02344 0.16796-0.12891 0.03516-0.02734 0.03515-0.03125 0.15625-0.14062 0.03515-0.03125 0.02735-0.03125 0.14452-0.15625 0.03125-0.03516 0.02345-0.03516 0.1289-0.17188 0.02735-0.03516 0.02342-0.03906 0.10938-0.18359 0.02345-0.03906 0.01952-0.03906 0.09375-0.19531 0.01953-0.03906 0.01563-0.04297 0.07422-0.20312 0.01563-0.04297 0.01175-0.04687 0.05467-0.21094 0.01175-0.04687 0.0077-0.04687 0.03125-0.21875 0.0078-0.04687 0.0039-0.04687 0.01175-0.22656v-0.02344-0.02344-2.3828h-1.875zm-30.125 0.04687v0.02344 0.02344l0.01175 0.22656 0.003875 0.04687 0.00775 0.04687 0.03125 0.21875 0.00775 0.04687 0.01175 0.04687 0.054675 0.21094 0.01175 0.04687 0.015625 0.04297 0.074225 0.20312 0.015625 0.04297 0.019525 0.03906 0.09375 0.19531 0.019525 0.03906 0.02345 0.03906 0.10937 0.18359 0.023425 0.03906 0.02735 0.03516 0.1289 0.17187 0.02345 0.03516 0.03125 0.03516 0.14452 0.15625 0.02735 0.03125 0.03515 0.03125 0.15625 0.14062 0.03515 0.03125 0.035162 0.02734 0.16796 0.12891 0.039075 0.02344 0.03905 0.02344 0.1797 0.11328 0.03905 0.02344 0.04305 0.01953 0.1914 0.09375 0.042975 0.01953 0.042975 0.01563 0.20312 0.07422 0.042962 0.01563 0.046875 0.01171 0.21094 0.05469 0.046875 0.01171 0.042975 0.0039 0.22265 0.03516 0.046875 0.0078h0.046875l0.22656 0.01171 0.023437 0.0039h0.023437 1.5586v-1.875h-1.5117l-0.16796-0.0078-0.14845-0.02344-0.11718-0.02734-0.10157-0.03906-0.125-0.0625-0.089837-0.05078-0.11329-0.08594-0.085925-0.07422-0.08985-0.10547-0.039063-0.04687-0.019537-0.03125-0.0703-0.10938-0.046875-0.10156-0.046875-0.13281-0.03125-0.10937-0.015625-0.11719-0.01175-0.19531v-0.54688h-1.875zm6.5819 3.148h5.625v-1.875h-5.625zm7.5 0h5.625v-1.875h-5.625zm7.5 0h5.625v-1.875h-5.625z"/>
</svg>
