<?xml version="1.0" encoding="UTF-8" standalone="no"?>
<svg xmlns:rdf="http://www.w3.org/1999/02/22-rdf-syntax-ns#" xmlns="http://www.w3.org/2000/svg" height="32" width="32" version="1.1" xmlns:cc="http://creativecommons.org/ns#" xmlns:dc="http://purl.org/dc/elements/1.1/">
 <g>
  <path style="color:#000000;text-indent:0;block-progression:tb;text-decoration-line:none;text-transform:none" d="m20.374 22.206v5.0734h1.057v-5.0734h-1.057zm-2.0082 2.0082v1.057h5.0734v-1.057h-5.0734zm-1.374-3.3823v0.52848 6.7645 0.52848h0.52848 6.7645 0.52848v-0.52848-6.7645-0.52848h-0.52848-6.7645-0.52848zm1.057 1.057h5.7076v5.7076h-5.7076v-5.7076z"/>
  <path style="color:#000000;text-indent:0;block-progression:tb;text-decoration-line:none;text-transform:none" d="m3.2031-0.0000075c-1.7585 0-3.2031 1.4446-3.2031 3.2031v25.59c0 1.7585 1.4446 3.207 3.2031 3.207h25.594c1.758 0 3.203-1.448 3.203-3.207v-25.59c0-1.7584-1.445-3.203-3.203-3.203h-25.594zm0 1.875h25.594c0.75222 0 1.3281 0.5759 1.3281 1.3281v25.59c0 0.75222-0.5759 1.332-1.3281 1.332h-25.594c-0.7521 0-1.328-0.58-1.328-1.332v-25.59c0-0.75222 0.5759-1.3281 1.3281-1.3281z"/>
  <path style="color:#000000;text-indent:0;block-progression:tb;text-decoration-line:none;text-transform:none" d="m9.8485 22.598c-0.1177-0.004-0.2377 0.001-0.3582 0.021-0.9642 0.161-1.7382 1.046-2.2184 2.486l1.0571 0.35467c0.4099-1.2297 0.97121-1.6802 1.3422-1.7421 0.37099-0.06183 0.81394 0.16747 1.1927 0.92493 0.51143 1.0229 1.4037 1.6837 2.368 1.523 0.96426-0.16071 1.7382-1.0454 2.2184-2.4862l-1.057-0.355c-0.4099 1.2297-0.97121 1.6802-1.3422 1.7421-0.37099 0.06183-0.81394-0.16747-1.1927-0.92493-0.4475-0.895-1.1858-1.5109-2.0098-1.5439z"/>
 </g>
</svg>
