<?xml version="1.0" encoding="UTF-8" standalone="no"?>
<svg xmlns:rdf="http://www.w3.org/1999/02/22-rdf-syntax-ns#" xmlns="http://www.w3.org/2000/svg" height="32" width="32" version="1.1" xmlns:cc="http://creativecommons.org/ns#" xmlns:dc="http://purl.org/dc/elements/1.1/">
 <path style="color:#000000;text-indent:0;block-progression:tb;text-decoration-line:none;text-transform:none" d="m15.257 17.932v7.1351h1.4865v-7.1351h-1.4865zm-2.8243 2.8243v1.4865h7.1351v-1.4865h-7.1351zm-1.933-4.756v0.74324 9.5135 0.74324h0.74324 9.5135 0.74324v-0.74324-9.5135-0.744h-0.743-9.514-0.743zm1.4865 1.4865h8.027v8.027h-8.027v-8.027z"/>
 <path style="color:#000000;text-indent:0;block-progression:tb;text-decoration-line:none;text-transform:none" d="m4.1602 2.418c-0.9549 0-1.7422 0.78728-1.7422 1.7422v23.676c0 0.9549 0.78728 1.7461 1.7422 1.7461h23.68c0.9549 0 1.7422-0.79119 1.7422-1.7461v-23.676c0-0.9549-0.78728-1.7422-1.7422-1.7422h-23.68zm0 1.25h23.68c0.28403 0 0.49219 0.20816 0.49219 0.49219v23.676c0 0.28402-0.20816 0.4961-0.49219 0.49609h-23.68c-0.28403 0-0.49219-0.21206-0.49219-0.49609v-23.676c0-0.28403 0.20816-0.49219 0.49219-0.49219zm-1.1602-3.668c-1.6512 0-3 1.3488-3 3v26c0 1.6512 1.3488 3 3 3h26c1.6512 0 3-1.3488 3-3v-26c0-1.6512-1.349-3-3-3h-26zm0 1.25h26c0.98031 0 1.75 0.76969 1.75 1.75v26c0 0.98031-0.76969 1.75-1.75 1.75h-26c-0.9803 0-1.75-0.77-1.75-1.75v-26c0-0.9803 0.7697-1.75 1.75-1.75z"/>
</svg>
