<?xml version="1.0" encoding="UTF-8" standalone="no"?>
<svg xmlns:rdf="http://www.w3.org/1999/02/22-rdf-syntax-ns#" xmlns="http://www.w3.org/2000/svg" height="32" width="32" version="1.1" xmlns:cc="http://creativecommons.org/ns#" xmlns:dc="http://purl.org/dc/elements/1.1/">
 <path style="color:#000000;text-indent:0;block-progression:tb;text-decoration-line:none;text-transform:none" d="m3.2031 0c-1.7585 0-3.2031 1.4446-3.2031 3.2031v25.594c0 1.758 1.4446 3.203 3.2031 3.203h25.594c1.758 0 3.203-1.445 3.203-3.203v-25.594c0-1.7584-1.445-3.203-3.203-3.203h-25.594zm0 1.875h25.594c0.75223 0 1.3281 0.5759 1.3281 1.3281v25.594c0 0.75223-0.5759 1.3281-1.3281 1.3281h-25.594c-0.7521 0-1.328-0.576-1.328-1.328v-25.594c0-0.7521 0.5759-1.328 1.3281-1.328z"/>
 <path style="color:#000000;text-indent:0;block-progression:tb;text-decoration-line:none;text-transform:none" d="m11.607 12.521v0.99391h0.49695 6.4604 0.49695v-0.99391h-0.49695-6.4604-0.49695zm1.7393 8.9452v0.99391h0.49695 6.4604 0.49695v-0.99391h-0.49695-6.4604-0.49695zm0.99391-3.2302v0.99391h0.49695 6.4604 0.49695v-0.99391h-0.49695-6.4604-0.49695zm-1.2424-2.9817v0.99391h0.49695 6.4604 0.49695v-0.99391h-0.49695-6.4604-0.49695zm-1.7393-5.715v0.99391h0.49695 6.9574 0.49695v-0.99391h-0.49695-6.9574-0.49695zm0.63284-2.1121-0.13977 0.07765s-1.2624 0.68201-1.9917 2.0849c-0.72933 1.4029-0.82036 3.5694 1.2074 6.0955 0.98465 1.2266 1.4442 2.2285 1.5918 3.0283 0.1476 0.79981 0.0064 1.4131-0.29895 1.9762-0.6107 1.1262-1.9761 1.9789-2.974 2.776l-1.386 1.1065h1.7743 10.312 0.14753l0.132-0.06988s1.6876-0.83082 2.7721-2.4887c0.54222-0.82892 0.93736-1.8896 0.85026-3.1254-0.0871-1.2357-0.64859-2.6117-1.8869-4.0843-1.747-2.0776-1.6312-3.5388-1.188-4.5929 0.44321-1.0542 1.289-1.6539 1.289-1.6539l1.6267-1.1298h-1.9839-9.6906-0.16306zm0.35719 1.2424h8.0406c-0.22376 0.30131-0.44653 0.64446-0.62119 1.0599-0.59681 1.4195-0.58537 3.5343 1.3822 5.8742 1.1142 1.325 1.5341 2.4412 1.5996 3.37 0.06546 0.92876-0.22166 1.7023-0.65225 2.3605-0.80832 1.2357-2.0317 1.9104-2.1897 1.9956h-8.2929c0.68218-0.54256 1.3657-1.1819 1.8364-2.0499 0.41888-0.77245 0.62823-1.7225 0.43095-2.7915s-0.77647-2.2447-1.848-3.5796c-1.8163-2.2626-1.6048-3.7187-1.0716-4.7444 0.48169-0.92653 1.2302-1.3997 1.386-1.4947z"/>
</svg>
