<?xml version="1.0" encoding="UTF-8" standalone="no"?>
<svg xmlns:rdf="http://www.w3.org/1999/02/22-rdf-syntax-ns#" xmlns="http://www.w3.org/2000/svg" height="32" width="32" version="1.1" xmlns:cc="http://creativecommons.org/ns#" xmlns:dc="http://purl.org/dc/elements/1.1/">
 <path style="color:#000000;text-indent:0;block-progression:tb;text-decoration-line:none;text-transform:none" d="m3.2031 0c-1.7585 0-3.2031 1.4446-3.2031 3.2031v25.594c0 1.758 1.4446 3.203 3.2031 3.203h25.594c1.758 0 3.203-1.445 3.203-3.203v-25.594c0-1.7584-1.445-3.203-3.203-3.203h-25.594zm0 1.875h25.594c0.75223 0 1.3281 0.5759 1.3281 1.3281v25.594c0 0.75223-0.5759 1.3281-1.3281 1.3281h-25.594c-0.7521 0-1.328-0.576-1.328-1.328v-25.594c0-0.7521 0.5759-1.328 1.3281-1.328z"/>
</svg>
