<?xml version="1.0" encoding="UTF-8" standalone="no"?>
<svg xmlns:rdf="http://www.w3.org/1999/02/22-rdf-syntax-ns#" xmlns="http://www.w3.org/2000/svg" height="32" width="32" version="1.1" xmlns:cc="http://creativecommons.org/ns#" xmlns:dc="http://purl.org/dc/elements/1.1/">
 <path style="color:#000000;text-indent:0;block-progression:tb;text-decoration-line:none;text-transform:none" d="m3.2031 0c-1.7585 0-3.2031 1.4446-3.2031 3.2031v25.594c0 1.758 1.4446 3.203 3.2031 3.203h25.594c1.758 0 3.203-1.445 3.203-3.203v-25.594c0-1.7584-1.445-3.203-3.203-3.203h-25.594zm0 1.875h25.594c0.75223 0 1.3281 0.5759 1.3281 1.3281v25.594c0 0.75223-0.5759 1.3281-1.3281 1.3281h-25.594c-0.7521 0-1.328-0.576-1.328-1.328v-25.594c0-0.7521 0.5759-1.328 1.3281-1.328z"/>
 <path style="color:#000000;text-indent:0;block-progression:tb;text-decoration-line:none;text-transform:none" d="m10.939 8.1148c-0.60418 0-1.2983 0.22573-2.0574 0.52385-0.3795 0.1491-0.7509 0.3193-1.0773 0.5113-0.3263 0.1919-0.6177 0.3724-0.8364 0.7266-0.91159 1.4759-1.2124 4.0118-1.2125 6.4847 0 1.2365 0.094536 2.4437 0.2915 3.4642 0.19697 1.0205 0.44007 1.8594 1.0266 2.4291 0.44929 0.43641 1.107 0.74045 1.8377 1.0519 0.73068 0.31148 1.3806 0.57877 2.0278 0.57877h4.8752 4.0302c1.116 0 1.9476-0.99755 1.9475-2.1165 0-0.32952-0.08015-0.64364-0.21122-0.92941a0.676 0.676 0 0 0 0.13519 -0.16053c0.56181-0.38245 0.92518-1.0615 0.92518-1.7954 0-0.35398-0.0916-0.69063-0.24081-0.99278 0.65426-0.35466 1.09-1.0856 1.09-1.8884 0-0.26768-0.05167-0.52696-0.13942-0.76887h0.73929 0.06759 0.13942c1.116 0 1.9475-0.99756 1.9475-2.1165 0-1.119-0.83152-2.1165-1.9475-2.1165h-5.1878c0.08775-0.24191 0.13938-0.50119 0.13942-0.76887 0-1.119-0.83574-2.1165-1.9518-2.1165h-1.4828-4.8752zm0 1.3519h4.8752 1.4828c0.29377 0 0.59986 0.28588 0.5999 0.76465 0 0.47877-0.30616 0.76887-0.5999 0.76887v0.67593 0.67593h7.0001c0.29373 0 0.59563 0.28588 0.59567 0.76465 0 0.47876-0.30194 0.76465-0.59567 0.76465h-0.20701-6.3664-0.66748a0.676 0.676 0 0 0 -0.0084 0 0.676 0.676 0 0 0 -0.05914 0 0.67678 0.67678 0 0 0 0.05914 1.3519h0.67593 3.8148c0.29377 0 0.59986 0.29011 0.5999 0.76887 0 0.47877-0.30616 0.76465-0.5999 0.76465h-0.40978-3.405-0.67593a0.676 0.676 0 1 0 0 1.3519 0.676 0.676 0 0 0 0.0084 0h0.66748 2.9699c0.29377 0 0.59567 0.28587 0.59567 0.76465 0 0.45806-0.27648 0.74082-0.55764 0.76465h-3.6754a0.676 0.676 0 1 0 -0.0084 1.3519v0.0042h0.67593 2.1207c0.29373 0 0.59566 0.28589 0.59566 0.76465 0 0.47878-0.30192 0.76465-0.59566 0.76465h-4.0302-4.8752c-0.0577 0-0.83974-0.18937-1.4955-0.46893-0.6567-0.278-1.3429-0.697-1.4289-0.78-0.1557-0.151-0.468-0.813-0.6421-1.715s-0.2662-2.04-0.2662-3.207c0-2.3337 0.4411-4.8476 1.0139-5.775-0.016628 0.02693 0.12998-0.13485 0.36754-0.2746s0.55709-0.2886 0.88716-0.41823c0.66014-0.25927 1.4624-0.42668 1.5631-0.42668z"/>
</svg>
