<?xml version="1.0" encoding="UTF-8" standalone="no"?>
<svg xmlns:rdf="http://www.w3.org/1999/02/22-rdf-syntax-ns#" xmlns="http://www.w3.org/2000/svg" height="32" width="32" version="1.1" xmlns:cc="http://creativecommons.org/ns#" xmlns:dc="http://purl.org/dc/elements/1.1/">
 <path style="color:#000000;text-indent:0;block-progression:tb;text-decoration-line:none;text-transform:none" d="m3.2031 0c-1.7585 0-3.2031 1.4446-3.2031 3.2031v25.594c0 1.758 1.4446 3.203 3.2031 3.203h25.594c1.758 0 3.203-1.445 3.203-3.203v-25.594c0-1.7584-1.445-3.203-3.203-3.203h-25.594zm0 1.875h25.594c0.75223 0 1.3281 0.5759 1.3281 1.3281v25.594c0 0.75223-0.5759 1.3281-1.3281 1.3281h-25.594c-0.7521 0-1.328-0.576-1.328-1.328v-25.594c0-0.7521 0.5759-1.328 1.3281-1.328z"/>
 <path style="color:#000000;text-indent:0;block-progression:tb;text-decoration-line:none;text-transform:none" d="m11.706 6.1202v0.54229 2.4403c-0.0113 0.00472-0.02269 0.00882-0.0339 0.01356l-1.7287-1.7286-0.383-0.383-0.3829 0.383-1.8404 1.8404-0.383 0.3864 0.383 0.383 1.7251 1.7254c-0.00522 0.01217-0.00857 0.0251-0.013585 0.03728h-2.4403-0.54229v0.54229 2.603 0.54229h0.54229 2.4403c0.00472 0.0113 0.00882 0.02269 0.013585 0.03389l-1.7252 1.7252-0.38299 0.38638 0.38299 0.38299 1.8404 1.8404 0.38298 0.38299 0.38299-0.38299 1.9827-1.9827 0.38299-0.38299-0.76599-0.76938-0.38298 0.38299-1.5998 1.5997-1.0744-1.0744 1.5997-1.5964 0.28131-0.28131-0.18302-0.35588c-0.104-0.2-0.1912-0.403-0.2576-0.614l-0.12202-0.3796h-0.39654-2.2573v-1.5184h2.2573 0.39654l0.12202-0.3796c0.066409-0.2111 0.15373-0.41822 0.25759-0.61685l0.18302-0.35249-0.28131-0.2847-1.5997-1.5997 1.0744-1.071 1.5998 1.5998 0.2813 0.28131 0.35249-0.18641c0.19864-0.10387 0.40576-0.19117 0.61686-0.25759l0.3796-0.11862v-0.39655-2.2573h1.5184v2.2607 0.39655l0.3796 0.11863c0.21452 0.067315 0.42151 0.15226 0.61686 0.2542l0.35248 0.18641 0.28131-0.28131 1.5997-1.5998 1.0744 1.071-1.5997 1.5997-0.38299 0.38638 0.76597 0.76598 0.38299-0.38299 1.9827-1.9827 0.38299-0.38299-0.38299-0.38638-1.8404-1.8404-0.38299-0.38299-0.38298 0.38299-1.7286 1.7285c-0.0113-0.00472-0.02261-0.00894-0.03389-0.01356v-2.4403-0.54229h-0.54228-2.603-0.54229zm6.7447 10.107c-1.1928 0-2.1692 0.9763-2.1692 2.1691 0 1.1929 0.9763 2.1692 2.1692 2.1692s2.1692-0.97629 2.1692-2.1692-0.9763-2.1691-2.1692-2.1691zm0 0.86766c0.72393 0 1.3015 0.57756 1.3015 1.3015s-0.57756 1.3015-1.3015 1.3015c-0.72393 0-1.3015-0.57756-1.3015-1.3015 0-0.72393 0.57756-1.3015 1.3015-1.3015zm-1.8438-6.1821v0.54229 2.4403c-0.01217 0.0051-0.02512 0.0084-0.03728 0.01356l-1.7252-1.7252-0.38299-0.38299-0.38299 0.38299-1.8404 1.8404-0.38299 0.38299 0.38299 0.38299 1.7252 1.7251c-0.0052 0.01217-0.0086 0.02507-0.01358 0.03728h-2.4403-0.54228v0.54229 2.603 0.54229h0.54228 2.4403c0.0051 0.01217 0.0083 0.02511 0.01358 0.03729l-1.7252 1.7252-0.38299 0.38298 0.38299 0.38299 1.8404 1.8404 0.38299 0.38299 0.38299-0.38299 1.7285-1.7285c0.01167 0.0048 0.02221 0.01217 0.03389 0.01695v2.4403 0.54228h0.54229 2.603 0.54229v-0.54228-2.4403c0.01217-0.0051 0.02511-0.0083 0.03728-0.01358l1.7252 1.7252 0.38299 0.38299 0.38299-0.38299 1.8404-1.8404 0.38298-0.38299-0.38298-0.38298-1.7285-1.7285c0.005-0.01167 0.01217-0.02222 0.01695-0.03389h2.4403 0.54229v-0.54229-2.603-0.54229h-0.54229-2.4403c-0.0051-0.01217-0.0083-0.02511-0.01359-0.03728l1.7252-1.7251 0.38298-0.38299-0.38298-0.38299-1.8404-1.8404-0.38299-0.38299-0.38299 0.38299-1.7285 1.7285c-0.01167-0.0048-0.02222-0.01217-0.0339-0.01695v-2.4403-0.54229h-0.54229-2.603-0.54229zm1.0846 1.0846h1.5184v2.2607 0.39655l0.3796 0.12202c0.21452 0.06732 0.42151 0.15226 0.61686 0.2542l0.35249 0.18302 0.28131-0.28131 1.5997-1.5997 1.0744 1.0744-1.5997 1.5998-0.28131 0.28131 0.18302 0.35248c0.10381 0.19854 0.19119 0.4058 0.25759 0.61686l0.12202 0.3796h0.39655 2.2573v1.5184h-2.2607-0.39655l-0.12202 0.3796c-0.06732 0.21452-0.15226 0.42151-0.2542 0.61686l-0.18302 0.35247 0.28131 0.28132 1.5997 1.5997-1.0744 1.0744-1.5997-1.5997-0.28131-0.28131-0.35249 0.18302c-0.19854 0.10381-0.4058 0.19117-0.61686 0.25759l-0.3796 0.12202v0.39654 2.2573h-1.5184v-2.2607-0.39654l-0.3796-0.12202c-0.216-0.07-0.423-0.155-0.618-0.257l-0.35249-0.18302-0.28131 0.28131-1.5997 1.5997-1.0744-1.0744 1.5997-1.5997 0.28131-0.28132-0.18302-0.35248c-0.10381-0.19854-0.19119-0.4058-0.25759-0.61686l-0.12202-0.3796h-0.39655-2.2573v-1.5184h2.2573 0.39655l0.12202-0.3796c0.06641-0.2111 0.15371-0.41822 0.25759-0.61686l0.18302-0.35248-0.28131-0.28131-1.5997-1.5998 1.0744-1.0744 1.5997 1.5998 0.28131 0.28131 0.35249-0.18302c0.19862-0.10386 0.40576-0.19117 0.61684-0.25759l0.3796-0.12202v-0.39655-2.2573z"/>
</svg>
