<?xml version="1.0" encoding="UTF-8" standalone="no"?>
<svg xmlns:rdf="http://www.w3.org/1999/02/22-rdf-syntax-ns#" xmlns="http://www.w3.org/2000/svg" height="32" width="32" version="1.1" xmlns:cc="http://creativecommons.org/ns#" xmlns:dc="http://purl.org/dc/elements/1.1/">
 <path style="color:#000000;text-indent:0;block-progression:tb;text-decoration-line:none;text-transform:none" d="m3.2031 0c-1.7585 0-3.2031 1.4446-3.2031 3.2031v25.594c0 1.758 1.4446 3.203 3.2031 3.203h25.594c1.758 0 3.203-1.445 3.203-3.203v-25.594c0-1.7584-1.445-3.203-3.203-3.203h-25.594zm0 1.875h25.594c0.75223 0 1.3281 0.5759 1.3281 1.3281v25.594c0 0.75223-0.5759 1.3281-1.3281 1.3281h-25.594c-0.7521 0-1.328-0.576-1.328-1.328v-25.594c0-0.7521 0.5759-1.328 1.3281-1.328z"/>
 <path style="color:#000000;text-indent:0;block-progression:tb;text-decoration-line:none;text-transform:none" d="m16 7.2811c-2.741 0-4.9774 2.2364-4.9774 4.9774 0 1.763 0.92674 3.3192 2.3163 4.2039-1.1639 0.5049-2.1908 1.3058-3.0226 2.2365-1.4214 1.591-2.316 3.563-2.316 5.347v0.67262h0.67262 14.655 0.67262v-0.67262c0-1.784-0.89466-3.7567-2.3163-5.3474-0.83178-0.93062-1.8587-1.7316-3.0226-2.2365 1.3896-0.88468 2.3163-2.4409 2.3163-4.2039 0-2.741-2.2364-4.9774-4.9774-4.9774zm0 1.3452c2.014 0 3.6322 1.6182 3.6322 3.6322s-1.6182 3.6322-3.6322 3.6322-3.6322-1.6182-3.6322-3.6322 1.6182-3.6322 3.6322-3.6322zm0 8.6138c1.7808 0 3.4521 0.97681 4.6831 2.3542 1.0342 1.1571 1.693 2.5754 1.8875 3.7793h-2.5265v-1.257-0.67262h-0.0083c-0.0013-0.3543-0.32622-0.67705-0.68103-0.67262-0.35218 0.0044-0.66861 0.32885-0.66422 0.68103v1.9212h-5.3726v-1.2612-0.67262h-0.0083c-0.0038-0.35254-0.3277-0.67283-0.68103-0.66842-0.35218 0.0044-0.66861 0.32885-0.66422 0.68103v1.9212h-2.5349c0.19454-1.2039 0.85337-2.6222 1.8875-3.7793 1.231-1.3774 2.9023-2.3542 4.6831-2.3542z"/>
</svg>
