<?xml version="1.0" encoding="UTF-8" standalone="no"?>
<svg xmlns:rdf="http://www.w3.org/1999/02/22-rdf-syntax-ns#" xmlns="http://www.w3.org/2000/svg" height="32" width="32" version="1.1" xmlns:cc="http://creativecommons.org/ns#" xmlns:dc="http://purl.org/dc/elements/1.1/">
 <g transform="matrix(.12511 0 0 .12511 .11676 -99.667)">
  <path d="m248.58 837.33-11.382 124.65c-0.58947 5.82-0.88415 9.6509-0.88404 11.493-0.00011 2.9468 0.55242 5.1938 1.6576 6.7408 1.3996 2.1365 3.2782 3.7204 5.6358 4.7518 2.431 1.0314 6.4829 1.5471 12.156 1.5471l-1.2156 4.0887h-59.01l1.2156-4.0887h2.5416c4.7885 0.00001 8.693-1.0314 11.714-3.0942 2.1364-1.3997 3.794-3.7204 4.9728-6.9619 0.81029-2.2838 1.5838-7.6617 2.3206-16.134l1.7681-19.007h-42.876l-15.25 20.665c-3.4625 4.6413-5.6358 7.9933-6.5198 10.056-0.88407 1.9891-1.3261 3.8677-1.3261 5.6358-0.00002 2.3575 0.95769 4.3834 2.8732 6.0778 1.9154 1.6944 5.0832 2.6153 9.5035 2.7626l-1.2156 4.0887h-44.313l1.2156-4.0887c5.4516-0.221 10.24-2.0259 14.366-5.4148 4.1992-3.4625 10.424-10.793 18.675-21.991l89.51-121.78h3.8677m-21.88 36.798-43.429 59.121h37.682l5.7463-59.121m-226.7-77.74v10 236 10h10 94v-20h-84v-216h84v-20h-94-10z"/>
 </g>
</svg>
